<svg xmlns="http://www.w3.org/2000/svg" viewBox="0 0 800 400" width="800" height="400">
  <style>
    @keyframes drawLine {
      to { stroke-dashoffset: 0; }
    }
    @keyframes fadeInPoint {
      from { opacity: 0; }
      to { opacity: 1; }
    }
    .data-line-0 {
      stroke-dasharray: 1135;
      stroke-dashoffset: 1135;
      animation: drawLine 2s ease-out forwards;
    }
    .data-line-1 {
      stroke-dasharray: 1107;
      stroke-dashoffset: 1107;
      animation: drawLine 2s ease-out forwards;
    }
    .data-line-2 {
      stroke-dasharray: 1086;
      stroke-dashoffset: 1086;
      animation: drawLine 2s ease-out forwards;
    }
    .data-point {
      opacity: 0;
      animation: fadeInPoint 0.5s ease-out forwards;
    }
    .chart-bg { fill: #fff; }
    .chart-text { fill: #24292e; }
    .chart-muted { fill: #6a737d; }
    .chart-grid { stroke: #eee; }
    .chart-axis { stroke: #6a737d; }
    @media (prefers-color-scheme: dark) {
      .chart-bg { fill: #0d1117; }
      .chart-text { fill: #e6edf3; }
      .chart-muted { fill: #8b949e; }
      .chart-grid { stroke: #21262d; }
      .chart-axis { stroke: #8b949e; }
    }
  </style>
  <rect width="800" height="400" class="chart-bg" />
  <text x="400" y="14" text-anchor="middle" class="chart-text" font-size="16" font-weight="bold" font-family="-apple-system, BlinkMacSystemFont, 'Segoe UI', Helvetica, Arial, sans-serif">Top Repositories</text>
  <g class="legend">
    <rect x="220" y="31" width="12" height="3" fill="#dfb317" />
    <line x1="220" y1="32.5" x2="232" y2="32.5" stroke="#dfb317" stroke-width="2" />
    <text x="236" y="36" class="chart-text" font-size="10" font-family="-apple-system, BlinkMacSystemFont, 'Segoe UI', Helvetica, Arial, sans-serif">star-tracker</text>
    <rect x="340" y="31" width="12" height="3" fill="#28a745" />
    <line x1="340" y1="32.5" x2="352" y2="32.5" stroke="#28a745" stroke-width="2" />
    <text x="356" y="36" class="chart-text" font-size="10" font-family="-apple-system, BlinkMacSystemFont, 'Segoe UI', Helvetica, Arial, sans-serif">utils</text>
    <rect x="460" y="31" width="12" height="3" fill="#e74c3c" />
    <line x1="460" y1="32.5" x2="472" y2="32.5" stroke="#e74c3c" stroke-width="2" />
    <text x="476" y="36" class="chart-text" font-size="10" font-family="-apple-system, BlinkMacSystemFont, 'Segoe UI', Helvetica, Arial, sans-serif">website</text>
  </g>
  <g class="grid">
    <line x1="60" y1="350" x2="770" y2="350" class="chart-grid" stroke-opacity="0.3" />
    <text x="52" y="354" text-anchor="end" class="chart-muted" font-size="11" font-family="-apple-system, BlinkMacSystemFont, 'Segoe UI', Helvetica, Arial, sans-serif">0</text>
    <line x1="60" y1="293.1818181818182" x2="770" y2="293.1818181818182" class="chart-grid" stroke-opacity="0.3" />
    <text x="52" y="297.1818181818182" text-anchor="end" class="chart-muted" font-size="11" font-family="-apple-system, BlinkMacSystemFont, 'Segoe UI', Helvetica, Arial, sans-serif">50</text>
    <line x1="60" y1="236.36363636363637" x2="770" y2="236.36363636363637" class="chart-grid" stroke-opacity="0.3" />
    <text x="52" y="240.36363636363637" text-anchor="end" class="chart-muted" font-size="11" font-family="-apple-system, BlinkMacSystemFont, 'Segoe UI', Helvetica, Arial, sans-serif">100</text>
    <line x1="60" y1="179.54545454545453" x2="770" y2="179.54545454545453" class="chart-grid" stroke-opacity="0.3" />
    <text x="52" y="183.54545454545453" text-anchor="end" class="chart-muted" font-size="11" font-family="-apple-system, BlinkMacSystemFont, 'Segoe UI', Helvetica, Arial, sans-serif">150</text>
    <line x1="60" y1="122.72727272727272" x2="770" y2="122.72727272727272" class="chart-grid" stroke-opacity="0.3" />
    <text x="52" y="126.72727272727272" text-anchor="end" class="chart-muted" font-size="11" font-family="-apple-system, BlinkMacSystemFont, 'Segoe UI', Helvetica, Arial, sans-serif">200</text>
    <line x1="60" y1="65.90909090909088" x2="770" y2="65.90909090909088" class="chart-grid" stroke-opacity="0.3" />
    <text x="52" y="69.90909090909088" text-anchor="end" class="chart-muted" font-size="11" font-family="-apple-system, BlinkMacSystemFont, 'Segoe UI', Helvetica, Arial, sans-serif">250</text>
  </g>
  <g class="milestones">
    
  </g>
  <g class="x-axis">
    <text x="60" y="370" text-anchor="middle" class="chart-muted" font-size="11" font-family="-apple-system, BlinkMacSystemFont, 'Segoe UI', Helvetica, Arial, sans-serif">Jan 1</text>
    <text x="178.33333333333331" y="370" text-anchor="middle" class="chart-muted" font-size="11" font-family="-apple-system, BlinkMacSystemFont, 'Segoe UI', Helvetica, Arial, sans-serif">Mar 1</text>
    <text x="296.66666666666663" y="370" text-anchor="middle" class="chart-muted" font-size="11" font-family="-apple-system, BlinkMacSystemFont, 'Segoe UI', Helvetica, Arial, sans-serif">May 1</text>
    <text x="415" y="370" text-anchor="middle" class="chart-muted" font-size="11" font-family="-apple-system, BlinkMacSystemFont, 'Segoe UI', Helvetica, Arial, sans-serif">Aug 1</text>
    <text x="533.3333333333333" y="370" text-anchor="middle" class="chart-muted" font-size="11" font-family="-apple-system, BlinkMacSystemFont, 'Segoe UI', Helvetica, Arial, sans-serif">Nov 1</text>
    <text x="651.6666666666667" y="370" text-anchor="middle" class="chart-muted" font-size="11" font-family="-apple-system, BlinkMacSystemFont, 'Segoe UI', Helvetica, Arial, sans-serif">Feb 1</text>
    <text x="770" y="370" text-anchor="middle" class="chart-muted" font-size="11" font-family="-apple-system, BlinkMacSystemFont, 'Segoe UI', Helvetica, Arial, sans-serif">Jun 1</text>
  </g>
  <line x1="60" y1="50" x2="60" y2="350" class="chart-axis" stroke-width="1" />
  <line x1="60" y1="350" x2="770" y2="350" class="chart-axis" stroke-width="1" />
  
  
  
  <path d="M60,336.3636363636364 C75.77777777777777,332.1212121212121 146.77777777777777,314.54545454545456 178.33333333333331,304.54545454545456 C209.88888888888886,294.54545454545456 265.1111111111111,273.4848484848485 296.66666666666663,261.3636363636364 C328.2222222222222,249.24242424242425 383.44444444444446,226.81818181818184 415,213.63636363636365 C446.55555555555554,200.45454545454547 501.7777777777777,175.37878787878788 533.3333333333333,162.5 C564.8888888888888,149.62121212121212 620.1111111111112,128.40909090909093 651.6666666666667,117.04545454545456 C683.2222222222223,105.6818181818182 754.2222222222223,82.5757575757576 770,77.27272727272731" fill="none" stroke="#dfb317" stroke-width="2.5" class="data-line-0" />
  <path d="M60,344.3181818181818 C75.77777777777777,342.04545454545456 146.77777777777777,333.3333333333333 178.33333333333331,327.27272727272725 C209.88888888888886,321.2121212121212 265.1111111111111,307.95454545454544 296.66666666666663,298.8636363636364 C328.2222222222222,289.7727272727273 383.44444444444446,270.1515151515152 415,259.0909090909091 C446.55555555555554,248.03030303030306 501.7777777777777,226.51515151515153 533.3333333333333,215.9090909090909 C564.8888888888888,205.30303030303028 620.1111111111112,188.18181818181816 651.6666666666667,179.54545454545453 C683.2222222222223,170.9090909090909 754.2222222222223,154.92424242424244 770,151.13636363636365" fill="none" stroke="#28a745" stroke-width="2.5" class="data-line-1" />
  <path d="M60,346.59090909090907 C75.77777777777777,345.530303030303 146.77777777777777,341.96969696969694 178.33333333333331,338.6363636363636 C209.88888888888886,335.3030303030303 265.1111111111111,326.8939393939394 296.66666666666663,321.59090909090907 C328.2222222222222,316.28787878787875 383.44444444444446,305.6818181818182 415,298.8636363636364 C446.55555555555554,292.04545454545456 501.7777777777777,278.030303030303 533.3333333333333,270.45454545454544 C564.8888888888888,262.8787878787879 620.1111111111112,249.62121212121212 651.6666666666667,242.04545454545456 C683.2222222222223,234.469696969697 754.2222222222223,217.42424242424244 770,213.63636363636365" fill="none" stroke="#e74c3c" stroke-width="2.5" class="data-line-2" />
  <g class="points">
    
    <circle cx="60" cy="336.3636363636364" r="4" fill="#dfb317" class="data-point" style="animation-delay: 1.50s" />
    <circle cx="178.33333333333331" cy="304.54545454545456" r="4" fill="#dfb317" class="data-point" style="animation-delay: 1.55s" />
    <circle cx="296.66666666666663" cy="261.3636363636364" r="4" fill="#dfb317" class="data-point" style="animation-delay: 1.60s" />
    <circle cx="415" cy="213.63636363636365" r="4" fill="#dfb317" class="data-point" style="animation-delay: 1.65s" />
    <circle cx="533.3333333333333" cy="162.5" r="4" fill="#dfb317" class="data-point" style="animation-delay: 1.70s" />
    <circle cx="651.6666666666667" cy="117.04545454545456" r="4" fill="#dfb317" class="data-point" style="animation-delay: 1.75s" />
    <circle cx="770" cy="77.27272727272731" r="4" fill="#dfb317" class="data-point" style="animation-delay: 1.80s" />
    
    <circle cx="60" cy="344.3181818181818" r="4" fill="#28a745" class="data-point" style="animation-delay: 1.50s" />
    <circle cx="178.33333333333331" cy="327.27272727272725" r="4" fill="#28a745" class="data-point" style="animation-delay: 1.55s" />
    <circle cx="296.66666666666663" cy="298.8636363636364" r="4" fill="#28a745" class="data-point" style="animation-delay: 1.60s" />
    <circle cx="415" cy="259.0909090909091" r="4" fill="#28a745" class="data-point" style="animation-delay: 1.65s" />
    <circle cx="533.3333333333333" cy="215.9090909090909" r="4" fill="#28a745" class="data-point" style="animation-delay: 1.70s" />
    <circle cx="651.6666666666667" cy="179.54545454545453" r="4" fill="#28a745" class="data-point" style="animation-delay: 1.75s" />
    <circle cx="770" cy="151.13636363636365" r="4" fill="#28a745" class="data-point" style="animation-delay: 1.80s" />
    
    <circle cx="60" cy="346.59090909090907" r="4" fill="#e74c3c" class="data-point" style="animation-delay: 1.50s" />
    <circle cx="178.33333333333331" cy="338.6363636363636" r="4" fill="#e74c3c" class="data-point" style="animation-delay: 1.55s" />
    <circle cx="296.66666666666663" cy="321.59090909090907" r="4" fill="#e74c3c" class="data-point" style="animation-delay: 1.60s" />
    <circle cx="415" cy="298.8636363636364" r="4" fill="#e74c3c" class="data-point" style="animation-delay: 1.65s" />
    <circle cx="533.3333333333333" cy="270.45454545454544" r="4" fill="#e74c3c" class="data-point" style="animation-delay: 1.70s" />
    <circle cx="651.6666666666667" cy="242.04545454545456" r="4" fill="#e74c3c" class="data-point" style="animation-delay: 1.75s" />
    <circle cx="770" cy="213.63636363636365" r="4" fill="#e74c3c" class="data-point" style="animation-delay: 1.80s" />
  </g>
</svg>