<svg xmlns="http://www.w3.org/2000/svg" viewBox="0 0 800 400" width="800" height="400">
  <style>
    @keyframes drawLine {
      to { stroke-dashoffset: 0; }
    }
    @keyframes fadeInPoint {
      from { opacity: 0; }
      to { opacity: 1; }
    }
    .data-line-0 {
      stroke-dasharray: 1135;
      stroke-dashoffset: 1135;
      animation: drawLine 2s ease-out forwards;
    }
    .data-line-1 {
      stroke-dasharray: 1092;
      stroke-dashoffset: 1092;
      animation: drawLine 2s ease-out forwards;
    }
    .data-line-2 {
      stroke-dasharray: 1075;
      stroke-dashoffset: 1075;
      animation: drawLine 2s ease-out forwards;
    }
    .data-point {
      opacity: 0;
      animation: fadeInPoint 0.5s ease-out forwards;
    }
    .chart-bg { fill: #fff; }
    .chart-text { fill: #24292e; }
    .chart-muted { fill: #6a737d; }
    .chart-grid { stroke: #eee; }
    .chart-axis { stroke: #6a737d; }
    @media (prefers-color-scheme: dark) {
      .chart-bg { fill: #0d1117; }
      .chart-text { fill: #e6edf3; }
      .chart-muted { fill: #8b949e; }
      .chart-grid { stroke: #21262d; }
      .chart-axis { stroke: #8b949e; }
    }
  </style>
  <rect width="800" height="400" class="chart-bg" />
  <text x="400" y="14" text-anchor="middle" class="chart-text" font-size="16" font-weight="bold" font-family="-apple-system, BlinkMacSystemFont, 'Segoe UI', Helvetica, Arial, sans-serif">Top Repositories</text>
  <g class="legend">
    <rect x="220" y="31" width="12" height="3" fill="#dfb317" />
    <line x1="220" y1="32.5" x2="232" y2="32.5" stroke="#dfb317" stroke-width="2" />
    <text x="236" y="36" class="chart-text" font-size="10" font-family="-apple-system, BlinkMacSystemFont, 'Segoe UI', Helvetica, Arial, sans-serif">hello-world</text>
    <rect x="340" y="31" width="12" height="3" fill="#28a745" />
    <line x1="340" y1="32.5" x2="352" y2="32.5" stroke="#28a745" stroke-width="2" />
    <text x="356" y="36" class="chart-text" font-size="10" font-family="-apple-system, BlinkMacSystemFont, 'Segoe UI', Helvetica, Arial, sans-serif">spoon-knife</text>
    <rect x="460" y="31" width="12" height="3" fill="#e74c3c" />
    <line x1="460" y1="32.5" x2="472" y2="32.5" stroke="#e74c3c" stroke-width="2" />
    <text x="476" y="36" class="chart-text" font-size="10" font-family="-apple-system, BlinkMacSystemFont, 'Segoe UI', Helvetica, Arial, sans-serif">octo-utils</text>
  </g>
  <g class="grid">
    <line x1="60" y1="350" x2="770" y2="350" class="chart-grid" stroke-opacity="0.3" />
    <text x="52" y="354" text-anchor="end" class="chart-muted" font-size="11" font-family="-apple-system, BlinkMacSystemFont, 'Segoe UI', Helvetica, Arial, sans-serif">0</text>
    <line x1="60" y1="275" x2="770" y2="275" class="chart-grid" stroke-opacity="0.3" />
    <text x="52" y="279" text-anchor="end" class="chart-muted" font-size="11" font-family="-apple-system, BlinkMacSystemFont, 'Segoe UI', Helvetica, Arial, sans-serif">50</text>
    <line x1="60" y1="200" x2="770" y2="200" class="chart-grid" stroke-opacity="0.3" />
    <text x="52" y="204" text-anchor="end" class="chart-muted" font-size="11" font-family="-apple-system, BlinkMacSystemFont, 'Segoe UI', Helvetica, Arial, sans-serif">100</text>
    <line x1="60" y1="125" x2="770" y2="125" class="chart-grid" stroke-opacity="0.3" />
    <text x="52" y="129" text-anchor="end" class="chart-muted" font-size="11" font-family="-apple-system, BlinkMacSystemFont, 'Segoe UI', Helvetica, Arial, sans-serif">150</text>
    <line x1="60" y1="50" x2="770" y2="50" class="chart-grid" stroke-opacity="0.3" />
    <text x="52" y="54" text-anchor="end" class="chart-muted" font-size="11" font-family="-apple-system, BlinkMacSystemFont, 'Segoe UI', Helvetica, Arial, sans-serif">200</text>
  </g>
  <g class="milestones">
    
  </g>
  <g class="x-axis">
    <text x="60" y="370" text-anchor="middle" class="chart-muted" font-size="11" font-family="-apple-system, BlinkMacSystemFont, 'Segoe UI', Helvetica, Arial, sans-serif">Feb 2</text>
    <text x="134.73684210526315" y="370" text-anchor="middle" class="chart-muted" font-size="11" font-family="-apple-system, BlinkMacSystemFont, 'Segoe UI', Helvetica, Arial, sans-serif">Feb 16</text>
    <text x="209.4736842105263" y="370" text-anchor="middle" class="chart-muted" font-size="11" font-family="-apple-system, BlinkMacSystemFont, 'Segoe UI', Helvetica, Arial, sans-serif">Mar 2</text>
    <text x="284.2105263157895" y="370" text-anchor="middle" class="chart-muted" font-size="11" font-family="-apple-system, BlinkMacSystemFont, 'Segoe UI', Helvetica, Arial, sans-serif">Mar 16</text>
    <text x="358.9473684210526" y="370" text-anchor="middle" class="chart-muted" font-size="11" font-family="-apple-system, BlinkMacSystemFont, 'Segoe UI', Helvetica, Arial, sans-serif">Mar 30</text>
    <text x="433.6842105263158" y="370" text-anchor="middle" class="chart-muted" font-size="11" font-family="-apple-system, BlinkMacSystemFont, 'Segoe UI', Helvetica, Arial, sans-serif">Apr 13</text>
    <text x="508.4210526315789" y="370" text-anchor="middle" class="chart-muted" font-size="11" font-family="-apple-system, BlinkMacSystemFont, 'Segoe UI', Helvetica, Arial, sans-serif">Apr 27</text>
    <text x="583.1578947368421" y="370" text-anchor="middle" class="chart-muted" font-size="11" font-family="-apple-system, BlinkMacSystemFont, 'Segoe UI', Helvetica, Arial, sans-serif">May 11</text>
    <text x="657.8947368421052" y="370" text-anchor="middle" class="chart-muted" font-size="11" font-family="-apple-system, BlinkMacSystemFont, 'Segoe UI', Helvetica, Arial, sans-serif">May 25</text>
    <text x="732.6315789473684" y="370" text-anchor="middle" class="chart-muted" font-size="11" font-family="-apple-system, BlinkMacSystemFont, 'Segoe UI', Helvetica, Arial, sans-serif">Jun 8</text>
    <text x="770" y="370" text-anchor="middle" class="chart-muted" font-size="11" font-family="-apple-system, BlinkMacSystemFont, 'Segoe UI', Helvetica, Arial, sans-serif">Jun 15</text>
  </g>
  <line x1="60" y1="50" x2="60" y2="350" class="chart-axis" stroke-width="1" />
  <line x1="60" y1="350" x2="770" y2="350" class="chart-axis" stroke-width="1" />
  
  
  
  <path d="M60,338 C64.98245614035088,337.2 87.40350877192982,334.2 97.36842105263158,332 C107.33333333333333,329.8 124.7719298245614,323.7 134.73684210526315,321.5 C144.7017543859649,319.3 162.140350877193,317.9 172.10526315789474,315.5 C182.0701754385965,313.1 199.50877192982455,306.5 209.4736842105263,303.5 C219.43859649122805,300.5 236.87719298245614,295.6 246.8421052631579,293 C256.8070175438597,290.4 274.2456140350877,286.8 284.2105263157895,284 C294.17543859649123,281.2 311.6140350877193,275.4 321.57894736842104,272 C331.5438596491228,268.6 348.98245614035085,261.5 358.9473684210526,258.5 C368.91228070175436,255.5 386.35087719298247,252.1 396.3157894736842,249.5 C406.280701754386,246.9 423.719298245614,242.2 433.6842105263158,239 C443.64912280701753,235.8 461.08771929824564,228.9 471.0526315789474,225.5 C481.01754385964915,222.1 498.45614035087715,216.5 508.4210526315789,213.5 C518.3859649122807,210.5 535.8245614035087,206.6 545.7894736842105,203 C555.7543859649123,199.4 573.1929824561404,191.1 583.1578947368421,186.5 C593.1228070175438,181.9 610.561403508772,173.5 620.5263157894736,168.5 C630.4912280701753,163.5 647.9298245614034,154 657.8947368421052,149 C667.859649122807,144 685.2982456140351,135.8 695.2631578947369,131 C705.2280701754387,126.2 722.6666666666667,118.4 732.6315789473684,113 C742.5964912280701,107.6 765.0175438596491,93.5 770,90.5" fill="none" stroke="#dfb317" stroke-width="2.5" class="data-line-0" />
  <path d="M60,342.5 C64.98245614035088,342.1 87.40350877192982,340.5 97.36842105263158,339.5 C107.33333333333333,338.5 124.7719298245614,336.4 134.73684210526315,335 C144.7017543859649,333.6 162.140350877193,330.6 172.10526315789474,329 C182.0701754385965,327.4 199.50877192982455,324.4 209.4736842105263,323 C219.43859649122805,321.6 236.87719298245614,320.3 246.8421052631579,318.5 C256.8070175438597,316.7 274.2456140350877,311.9 284.2105263157895,309.5 C294.17543859649123,307.1 311.6140350877193,302.9 321.57894736842104,300.5 C331.5438596491228,298.1 348.98245614035085,293.3 358.9473684210526,291.5 C368.91228070175436,289.7 386.35087719298247,288.8 396.3157894736842,287 C406.280701754386,285.2 423.719298245614,280.2 433.6842105263158,278 C443.64912280701753,275.8 461.08771929824564,272.7 471.0526315789474,270.5 C481.01754385964915,268.3 498.45614035087715,263.7 508.4210526315789,261.5 C518.3859649122807,259.3 535.8245614035087,256.2 545.7894736842105,254 C555.7543859649123,251.8 573.1929824561404,247.6 583.1578947368421,245 C593.1228070175438,242.4 610.561403508772,237.5 620.5263157894736,234.5 C630.4912280701753,231.5 647.9298245614034,225.5 657.8947368421052,222.5 C667.859649122807,219.5 685.2982456140351,214.8 695.2631578947369,212 C705.2280701754387,209.2 722.6666666666667,204.5 732.6315789473684,201.5 C742.5964912280701,198.5 765.0175438596491,191.1 770,189.5" fill="none" stroke="#28a745" stroke-width="2.5" class="data-line-1" />
  <path d="M60,347 C64.98245614035088,346.8 87.40350877192982,346.1 97.36842105263158,345.5 C107.33333333333333,344.9 124.7719298245614,343.1 134.73684210526315,342.5 C144.7017543859649,341.9 162.140350877193,341.8 172.10526315789474,341 C182.0701754385965,340.2 199.50877192982455,337.5 209.4736842105263,336.5 C219.43859649122805,335.5 236.87719298245614,334.3 246.8421052631579,333.5 C256.8070175438597,332.7 274.2456140350877,331.5 284.2105263157895,330.5 C294.17543859649123,329.5 311.6140350877193,327.4 321.57894736842104,326 C331.5438596491228,324.6 348.98245614035085,321.6 358.9473684210526,320 C368.91228070175436,318.4 386.35087719298247,315.4 396.3157894736842,314 C406.280701754386,312.6 423.719298245614,310.9 433.6842105263158,309.5 C443.64912280701753,308.1 461.08771929824564,304.9 471.0526315789474,303.5 C481.01754385964915,302.1 498.45614035087715,300.4 508.4210526315789,299 C518.3859649122807,297.6 535.8245614035087,294.4 545.7894736842105,293 C555.7543859649123,291.6 573.1929824561404,289.9 583.1578947368421,288.5 C593.1228070175438,287.1 610.561403508772,284.1 620.5263157894736,282.5 C630.4912280701753,280.9 647.9298245614034,277.9 657.8947368421052,276.5 C667.859649122807,275.1 685.2982456140351,273.4 695.2631578947369,272 C705.2280701754387,270.6 722.6666666666667,267.8 732.6315789473684,266 C742.5964912280701,264.2 765.0175438596491,259.5 770,258.5" fill="none" stroke="#e74c3c" stroke-width="2.5" class="data-line-2" />
  <g class="points">
    
    <circle cx="60" cy="338" r="4" fill="#dfb317" class="data-point" style="animation-delay: 1.50s" />
    <circle cx="97.36842105263158" cy="332" r="4" fill="#dfb317" class="data-point" style="animation-delay: 1.55s" />
    <circle cx="134.73684210526315" cy="321.5" r="4" fill="#dfb317" class="data-point" style="animation-delay: 1.60s" />
    <circle cx="172.10526315789474" cy="315.5" r="4" fill="#dfb317" class="data-point" style="animation-delay: 1.65s" />
    <circle cx="209.4736842105263" cy="303.5" r="4" fill="#dfb317" class="data-point" style="animation-delay: 1.70s" />
    <circle cx="246.8421052631579" cy="293" r="4" fill="#dfb317" class="data-point" style="animation-delay: 1.75s" />
    <circle cx="284.2105263157895" cy="284" r="4" fill="#dfb317" class="data-point" style="animation-delay: 1.80s" />
    <circle cx="321.57894736842104" cy="272" r="4" fill="#dfb317" class="data-point" style="animation-delay: 1.85s" />
    <circle cx="358.9473684210526" cy="258.5" r="4" fill="#dfb317" class="data-point" style="animation-delay: 1.90s" />
    <circle cx="396.3157894736842" cy="249.5" r="4" fill="#dfb317" class="data-point" style="animation-delay: 1.95s" />
    <circle cx="433.6842105263158" cy="239" r="4" fill="#dfb317" class="data-point" style="animation-delay: 2.00s" />
    <circle cx="471.0526315789474" cy="225.5" r="4" fill="#dfb317" class="data-point" style="animation-delay: 2.05s" />
    <circle cx="508.4210526315789" cy="213.5" r="4" fill="#dfb317" class="data-point" style="animation-delay: 2.10s" />
    <circle cx="545.7894736842105" cy="203" r="4" fill="#dfb317" class="data-point" style="animation-delay: 2.15s" />
    <circle cx="583.1578947368421" cy="186.5" r="4" fill="#dfb317" class="data-point" style="animation-delay: 2.20s" />
    <circle cx="620.5263157894736" cy="168.5" r="4" fill="#dfb317" class="data-point" style="animation-delay: 2.25s" />
    <circle cx="657.8947368421052" cy="149" r="4" fill="#dfb317" class="data-point" style="animation-delay: 2.30s" />
    <circle cx="695.2631578947369" cy="131" r="4" fill="#dfb317" class="data-point" style="animation-delay: 2.35s" />
    <circle cx="732.6315789473684" cy="113" r="4" fill="#dfb317" class="data-point" style="animation-delay: 2.40s" />
    <circle cx="770" cy="90.5" r="4" fill="#dfb317" class="data-point" style="animation-delay: 2.45s" />
    
    <circle cx="60" cy="342.5" r="4" fill="#28a745" class="data-point" style="animation-delay: 1.50s" />
    <circle cx="97.36842105263158" cy="339.5" r="4" fill="#28a745" class="data-point" style="animation-delay: 1.55s" />
    <circle cx="134.73684210526315" cy="335" r="4" fill="#28a745" class="data-point" style="animation-delay: 1.60s" />
    <circle cx="172.10526315789474" cy="329" r="4" fill="#28a745" class="data-point" style="animation-delay: 1.65s" />
    <circle cx="209.4736842105263" cy="323" r="4" fill="#28a745" class="data-point" style="animation-delay: 1.70s" />
    <circle cx="246.8421052631579" cy="318.5" r="4" fill="#28a745" class="data-point" style="animation-delay: 1.75s" />
    <circle cx="284.2105263157895" cy="309.5" r="4" fill="#28a745" class="data-point" style="animation-delay: 1.80s" />
    <circle cx="321.57894736842104" cy="300.5" r="4" fill="#28a745" class="data-point" style="animation-delay: 1.85s" />
    <circle cx="358.9473684210526" cy="291.5" r="4" fill="#28a745" class="data-point" style="animation-delay: 1.90s" />
    <circle cx="396.3157894736842" cy="287" r="4" fill="#28a745" class="data-point" style="animation-delay: 1.95s" />
    <circle cx="433.6842105263158" cy="278" r="4" fill="#28a745" class="data-point" style="animation-delay: 2.00s" />
    <circle cx="471.0526315789474" cy="270.5" r="4" fill="#28a745" class="data-point" style="animation-delay: 2.05s" />
    <circle cx="508.4210526315789" cy="261.5" r="4" fill="#28a745" class="data-point" style="animation-delay: 2.10s" />
    <circle cx="545.7894736842105" cy="254" r="4" fill="#28a745" class="data-point" style="animation-delay: 2.15s" />
    <circle cx="583.1578947368421" cy="245" r="4" fill="#28a745" class="data-point" style="animation-delay: 2.20s" />
    <circle cx="620.5263157894736" cy="234.5" r="4" fill="#28a745" class="data-point" style="animation-delay: 2.25s" />
    <circle cx="657.8947368421052" cy="222.5" r="4" fill="#28a745" class="data-point" style="animation-delay: 2.30s" />
    <circle cx="695.2631578947369" cy="212" r="4" fill="#28a745" class="data-point" style="animation-delay: 2.35s" />
    <circle cx="732.6315789473684" cy="201.5" r="4" fill="#28a745" class="data-point" style="animation-delay: 2.40s" />
    <circle cx="770" cy="189.5" r="4" fill="#28a745" class="data-point" style="animation-delay: 2.45s" />
    
    <circle cx="60" cy="347" r="4" fill="#e74c3c" class="data-point" style="animation-delay: 1.50s" />
    <circle cx="97.36842105263158" cy="345.5" r="4" fill="#e74c3c" class="data-point" style="animation-delay: 1.55s" />
    <circle cx="134.73684210526315" cy="342.5" r="4" fill="#e74c3c" class="data-point" style="animation-delay: 1.60s" />
    <circle cx="172.10526315789474" cy="341" r="4" fill="#e74c3c" class="data-point" style="animation-delay: 1.65s" />
    <circle cx="209.4736842105263" cy="336.5" r="4" fill="#e74c3c" class="data-point" style="animation-delay: 1.70s" />
    <circle cx="246.8421052631579" cy="333.5" r="4" fill="#e74c3c" class="data-point" style="animation-delay: 1.75s" />
    <circle cx="284.2105263157895" cy="330.5" r="4" fill="#e74c3c" class="data-point" style="animation-delay: 1.80s" />
    <circle cx="321.57894736842104" cy="326" r="4" fill="#e74c3c" class="data-point" style="animation-delay: 1.85s" />
    <circle cx="358.9473684210526" cy="320" r="4" fill="#e74c3c" class="data-point" style="animation-delay: 1.90s" />
    <circle cx="396.3157894736842" cy="314" r="4" fill="#e74c3c" class="data-point" style="animation-delay: 1.95s" />
    <circle cx="433.6842105263158" cy="309.5" r="4" fill="#e74c3c" class="data-point" style="animation-delay: 2.00s" />
    <circle cx="471.0526315789474" cy="303.5" r="4" fill="#e74c3c" class="data-point" style="animation-delay: 2.05s" />
    <circle cx="508.4210526315789" cy="299" r="4" fill="#e74c3c" class="data-point" style="animation-delay: 2.10s" />
    <circle cx="545.7894736842105" cy="293" r="4" fill="#e74c3c" class="data-point" style="animation-delay: 2.15s" />
    <circle cx="583.1578947368421" cy="288.5" r="4" fill="#e74c3c" class="data-point" style="animation-delay: 2.20s" />
    <circle cx="620.5263157894736" cy="282.5" r="4" fill="#e74c3c" class="data-point" style="animation-delay: 2.25s" />
    <circle cx="657.8947368421052" cy="276.5" r="4" fill="#e74c3c" class="data-point" style="animation-delay: 2.30s" />
    <circle cx="695.2631578947369" cy="272" r="4" fill="#e74c3c" class="data-point" style="animation-delay: 2.35s" />
    <circle cx="732.6315789473684" cy="266" r="4" fill="#e74c3c" class="data-point" style="animation-delay: 2.40s" />
    <circle cx="770" cy="258.5" r="4" fill="#e74c3c" class="data-point" style="animation-delay: 2.45s" />
  </g>
</svg>