<svg xmlns="http://www.w3.org/2000/svg" viewBox="0 0 800 400" width="800" height="400">
  <style>
    @keyframes drawLine {
      to { stroke-dashoffset: 0; }
    }
    @keyframes fadeInPoint {
      from { opacity: 0; }
      to { opacity: 1; }
    }
    .data-line-0 {
      stroke-dasharray: 1297;
      stroke-dashoffset: 1297;
      animation: drawLine 2s ease-out forwards;
    }
    .data-point {
      opacity: 0;
      animation: fadeInPoint 0.5s ease-out forwards;
    }
    .chart-bg { fill: #fff; }
    .chart-text { fill: #24292e; }
    .chart-muted { fill: #6a737d; }
    .chart-grid { stroke: #eee; }
    .chart-axis { stroke: #6a737d; }
    @media (prefers-color-scheme: dark) {
      .chart-bg { fill: #0d1117; }
      .chart-text { fill: #e6edf3; }
      .chart-muted { fill: #8b949e; }
      .chart-grid { stroke: #21262d; }
      .chart-axis { stroke: #8b949e; }
    }
  </style>
  <rect width="800" height="400" class="chart-bg" />
  <text x="400" y="14" text-anchor="middle" class="chart-text" font-size="16" font-weight="bold" font-family="-apple-system, BlinkMacSystemFont, 'Segoe UI', Helvetica, Arial, sans-serif">Catmull-Rom</text>
  
  <g class="grid">
    <line x1="60" y1="350" x2="770" y2="350" class="chart-grid" stroke-opacity="0.3" />
    <text x="52" y="354" text-anchor="end" class="chart-muted" font-size="11" font-family="-apple-system, BlinkMacSystemFont, 'Segoe UI', Helvetica, Arial, sans-serif">0</text>
    <line x1="60" y1="290" x2="770" y2="290" class="chart-grid" stroke-opacity="0.3" />
    <text x="52" y="294" text-anchor="end" class="chart-muted" font-size="11" font-family="-apple-system, BlinkMacSystemFont, 'Segoe UI', Helvetica, Arial, sans-serif">1</text>
    <line x1="60" y1="230" x2="770" y2="230" class="chart-grid" stroke-opacity="0.3" />
    <text x="52" y="234" text-anchor="end" class="chart-muted" font-size="11" font-family="-apple-system, BlinkMacSystemFont, 'Segoe UI', Helvetica, Arial, sans-serif">2</text>
    <line x1="60" y1="170" x2="770" y2="170" class="chart-grid" stroke-opacity="0.3" />
    <text x="52" y="174" text-anchor="end" class="chart-muted" font-size="11" font-family="-apple-system, BlinkMacSystemFont, 'Segoe UI', Helvetica, Arial, sans-serif">3</text>
    <line x1="60" y1="110" x2="770" y2="110" class="chart-grid" stroke-opacity="0.3" />
    <text x="52" y="114" text-anchor="end" class="chart-muted" font-size="11" font-family="-apple-system, BlinkMacSystemFont, 'Segoe UI', Helvetica, Arial, sans-serif">4</text>
    <line x1="60" y1="50" x2="770" y2="50" class="chart-grid" stroke-opacity="0.3" />
    <text x="52" y="54" text-anchor="end" class="chart-muted" font-size="11" font-family="-apple-system, BlinkMacSystemFont, 'Segoe UI', Helvetica, Arial, sans-serif">5</text>
  </g>
  <g class="milestones">
    
  </g>
  <g class="x-axis">
    <text x="60" y="370" text-anchor="middle" class="chart-muted" font-size="11" font-family="-apple-system, BlinkMacSystemFont, 'Segoe UI', Helvetica, Arial, sans-serif">Jun 10</text>
    <text x="143.52941176470588" y="370" text-anchor="middle" class="chart-muted" font-size="11" font-family="-apple-system, BlinkMacSystemFont, 'Segoe UI', Helvetica, Arial, sans-serif">Jun 12</text>
    <text x="227.05882352941177" y="370" text-anchor="middle" class="chart-muted" font-size="11" font-family="-apple-system, BlinkMacSystemFont, 'Segoe UI', Helvetica, Arial, sans-serif">Jun 14</text>
    <text x="310.5882352941177" y="370" text-anchor="middle" class="chart-muted" font-size="11" font-family="-apple-system, BlinkMacSystemFont, 'Segoe UI', Helvetica, Arial, sans-serif">Jun 16</text>
    <text x="394.11764705882354" y="370" text-anchor="middle" class="chart-muted" font-size="11" font-family="-apple-system, BlinkMacSystemFont, 'Segoe UI', Helvetica, Arial, sans-serif">Jun 18</text>
    <text x="477.64705882352945" y="370" text-anchor="middle" class="chart-muted" font-size="11" font-family="-apple-system, BlinkMacSystemFont, 'Segoe UI', Helvetica, Arial, sans-serif">Jun 20</text>
    <text x="561.1764705882354" y="370" text-anchor="middle" class="chart-muted" font-size="11" font-family="-apple-system, BlinkMacSystemFont, 'Segoe UI', Helvetica, Arial, sans-serif">Jun 22</text>
    <text x="644.7058823529411" y="370" text-anchor="middle" class="chart-muted" font-size="11" font-family="-apple-system, BlinkMacSystemFont, 'Segoe UI', Helvetica, Arial, sans-serif">Jun 24</text>
    <text x="728.2352941176471" y="370" text-anchor="middle" class="chart-muted" font-size="11" font-family="-apple-system, BlinkMacSystemFont, 'Segoe UI', Helvetica, Arial, sans-serif">Jun 26</text>
    <text x="770" y="370" text-anchor="middle" class="chart-muted" font-size="11" font-family="-apple-system, BlinkMacSystemFont, 'Segoe UI', Helvetica, Arial, sans-serif">Jun 27</text>
  </g>
  <line x1="60" y1="50" x2="60" y2="350" class="chart-axis" stroke-width="1" />
  <line x1="60" y1="350" x2="770" y2="350" class="chart-axis" stroke-width="1" />
  <path d="M60,350 L60,290 C68.3529411764706,290 85.05882352941177,290 101.76470588235294,290 C118.47058823529412,290 126.82352941176471,290 143.52941176470588,290 C160.23529411764707,290 168.58823529411765,290 185.29411764705884,290 C202.00000000000003,290 210.35294117647058,290 227.05882352941177,290 C243.76470588235296,290 252.11764705882356,302 268.82352941176475,290 C285.5294117647059,278 293.8823529411765,254 310.5882352941177,230 C327.29411764705884,206 335.6470588235294,182 352.35294117647055,170 C369.0588235294117,158 377.4117647058824,170 394.11764705882354,170 C410.8235294117647,170 419.1764705882353,170 435.88235294117646,170 C452.5882352941176,170 460.94117647058823,170 477.64705882352945,170 C494.35294117647067,170 502.7058823529413,170 519.4117647058824,170 C536.1176470588236,170 544.4705882352943,170 561.1764705882354,170 C577.8823529411765,170 586.2352941176471,170 602.9411764705882,170 C619.6470588235293,170 627.9999999999999,170 644.7058823529411,170 C661.4117647058823,170 669.7647058823529,182 686.4705882352941,170 C703.1764705882354,158 711.5294117647059,122 728.2352941176471,110 C744.9411764705883,98 761.6470588235294,110 770,110 L770,350 L60,350 Z" fill="#dfb317" fill-opacity="0.1" />
  <path d="M60,350 L60,290 C68.3529411764706,290 85.05882352941177,290 101.76470588235294,290 C118.47058823529412,290 126.82352941176471,290 143.52941176470588,290 C160.23529411764707,290 168.58823529411765,290 185.29411764705884,290 C202.00000000000003,290 210.35294117647058,290 227.05882352941177,290 C243.76470588235296,290 252.11764705882356,302 268.82352941176475,290 C285.5294117647059,278 293.8823529411765,254 310.5882352941177,230 C327.29411764705884,206 335.6470588235294,182 352.35294117647055,170 C369.0588235294117,158 377.4117647058824,170 394.11764705882354,170 C410.8235294117647,170 419.1764705882353,170 435.88235294117646,170 C452.5882352941176,170 460.94117647058823,170 477.64705882352945,170 C494.35294117647067,170 502.7058823529413,170 519.4117647058824,170 C536.1176470588236,170 544.4705882352943,170 561.1764705882354,170 C577.8823529411765,170 586.2352941176471,170 602.9411764705882,170 C619.6470588235293,170 627.9999999999999,170 644.7058823529411,170 C661.4117647058823,170 669.7647058823529,182 686.4705882352941,170 C703.1764705882354,158 711.5294117647059,122 728.2352941176471,110 C744.9411764705883,98 761.6470588235294,110 770,110" fill="none" stroke="#dfb317" stroke-width="2.5" class="data-line-0" />
  <g class="points">
    
    <circle cx="60" cy="290" r="4" fill="#dfb317" class="data-point" style="animation-delay: 1.50s" />
    <circle cx="101.76470588235294" cy="290" r="4" fill="#dfb317" class="data-point" style="animation-delay: 1.55s" />
    <circle cx="143.52941176470588" cy="290" r="4" fill="#dfb317" class="data-point" style="animation-delay: 1.60s" />
    <circle cx="185.29411764705884" cy="290" r="4" fill="#dfb317" class="data-point" style="animation-delay: 1.65s" />
    <circle cx="227.05882352941177" cy="290" r="4" fill="#dfb317" class="data-point" style="animation-delay: 1.70s" />
    <circle cx="268.82352941176475" cy="290" r="4" fill="#dfb317" class="data-point" style="animation-delay: 1.75s" />
    <circle cx="310.5882352941177" cy="230" r="4" fill="#dfb317" class="data-point" style="animation-delay: 1.80s" />
    <circle cx="352.35294117647055" cy="170" r="4" fill="#dfb317" class="data-point" style="animation-delay: 1.85s" />
    <circle cx="394.11764705882354" cy="170" r="4" fill="#dfb317" class="data-point" style="animation-delay: 1.90s" />
    <circle cx="435.88235294117646" cy="170" r="4" fill="#dfb317" class="data-point" style="animation-delay: 1.95s" />
    <circle cx="477.64705882352945" cy="170" r="4" fill="#dfb317" class="data-point" style="animation-delay: 2.00s" />
    <circle cx="519.4117647058824" cy="170" r="4" fill="#dfb317" class="data-point" style="animation-delay: 2.05s" />
    <circle cx="561.1764705882354" cy="170" r="4" fill="#dfb317" class="data-point" style="animation-delay: 2.10s" />
    <circle cx="602.9411764705882" cy="170" r="4" fill="#dfb317" class="data-point" style="animation-delay: 2.15s" />
    <circle cx="644.7058823529411" cy="170" r="4" fill="#dfb317" class="data-point" style="animation-delay: 2.20s" />
    <circle cx="686.4705882352941" cy="170" r="4" fill="#dfb317" class="data-point" style="animation-delay: 2.25s" />
    <circle cx="728.2352941176471" cy="110" r="4" fill="#dfb317" class="data-point" style="animation-delay: 2.30s" />
    <circle cx="770" cy="110" r="4" fill="#dfb317" class="data-point" style="animation-delay: 2.35s" />
  </g>
</svg>