<svg xmlns="http://www.w3.org/2000/svg" viewBox="0 0 800 400" width="800" height="400">
  <style>
    @keyframes drawLine {
      to { stroke-dashoffset: 0; }
    }
    @keyframes fadeInPoint {
      from { opacity: 0; }
      to { opacity: 1; }
    }
    .data-line-0 {
      stroke-dasharray: 1297;
      stroke-dashoffset: 1297;
      animation: drawLine 2s ease-out forwards;
    }
    .data-point {
      opacity: 0;
      animation: fadeInPoint 0.5s ease-out forwards;
    }
    .chart-bg { fill: #fff; }
    .chart-text { fill: #24292e; }
    .chart-muted { fill: #6a737d; }
    .chart-grid { stroke: #eee; }
    .chart-axis { stroke: #6a737d; }
    @media (prefers-color-scheme: dark) {
      .chart-bg { fill: #0d1117; }
      .chart-text { fill: #e6edf3; }
      .chart-muted { fill: #8b949e; }
      .chart-grid { stroke: #21262d; }
      .chart-axis { stroke: #8b949e; }
    }
  </style>
  <rect width="800" height="400" class="chart-bg" />
  <text x="400" y="14" text-anchor="middle" class="chart-text" font-size="16" font-weight="bold" font-family="-apple-system, BlinkMacSystemFont, 'Segoe UI', Helvetica, Arial, sans-serif">Rounded Step</text>
  
  <g class="grid">
    <line x1="60" y1="350" x2="770" y2="350" class="chart-grid" stroke-opacity="0.3" />
    <text x="52" y="354" text-anchor="end" class="chart-muted" font-size="11" font-family="-apple-system, BlinkMacSystemFont, 'Segoe UI', Helvetica, Arial, sans-serif">0</text>
    <line x1="60" y1="290" x2="770" y2="290" class="chart-grid" stroke-opacity="0.3" />
    <text x="52" y="294" text-anchor="end" class="chart-muted" font-size="11" font-family="-apple-system, BlinkMacSystemFont, 'Segoe UI', Helvetica, Arial, sans-serif">1</text>
    <line x1="60" y1="230" x2="770" y2="230" class="chart-grid" stroke-opacity="0.3" />
    <text x="52" y="234" text-anchor="end" class="chart-muted" font-size="11" font-family="-apple-system, BlinkMacSystemFont, 'Segoe UI', Helvetica, Arial, sans-serif">2</text>
    <line x1="60" y1="170" x2="770" y2="170" class="chart-grid" stroke-opacity="0.3" />
    <text x="52" y="174" text-anchor="end" class="chart-muted" font-size="11" font-family="-apple-system, BlinkMacSystemFont, 'Segoe UI', Helvetica, Arial, sans-serif">3</text>
    <line x1="60" y1="110" x2="770" y2="110" class="chart-grid" stroke-opacity="0.3" />
    <text x="52" y="114" text-anchor="end" class="chart-muted" font-size="11" font-family="-apple-system, BlinkMacSystemFont, 'Segoe UI', Helvetica, Arial, sans-serif">4</text>
    <line x1="60" y1="50" x2="770" y2="50" class="chart-grid" stroke-opacity="0.3" />
    <text x="52" y="54" text-anchor="end" class="chart-muted" font-size="11" font-family="-apple-system, BlinkMacSystemFont, 'Segoe UI', Helvetica, Arial, sans-serif">5</text>
  </g>
  <g class="milestones">
    
  </g>
  <g class="x-axis">
    <text x="60" y="370" text-anchor="middle" class="chart-muted" font-size="11" font-family="-apple-system, BlinkMacSystemFont, 'Segoe UI', Helvetica, Arial, sans-serif">Jun 10</text>
    <text x="143.52941176470588" y="370" text-anchor="middle" class="chart-muted" font-size="11" font-family="-apple-system, BlinkMacSystemFont, 'Segoe UI', Helvetica, Arial, sans-serif">Jun 12</text>
    <text x="227.05882352941177" y="370" text-anchor="middle" class="chart-muted" font-size="11" font-family="-apple-system, BlinkMacSystemFont, 'Segoe UI', Helvetica, Arial, sans-serif">Jun 14</text>
    <text x="310.5882352941177" y="370" text-anchor="middle" class="chart-muted" font-size="11" font-family="-apple-system, BlinkMacSystemFont, 'Segoe UI', Helvetica, Arial, sans-serif">Jun 16</text>
    <text x="394.11764705882354" y="370" text-anchor="middle" class="chart-muted" font-size="11" font-family="-apple-system, BlinkMacSystemFont, 'Segoe UI', Helvetica, Arial, sans-serif">Jun 18</text>
    <text x="477.64705882352945" y="370" text-anchor="middle" class="chart-muted" font-size="11" font-family="-apple-system, BlinkMacSystemFont, 'Segoe UI', Helvetica, Arial, sans-serif">Jun 20</text>
    <text x="561.1764705882354" y="370" text-anchor="middle" class="chart-muted" font-size="11" font-family="-apple-system, BlinkMacSystemFont, 'Segoe UI', Helvetica, Arial, sans-serif">Jun 22</text>
    <text x="644.7058823529411" y="370" text-anchor="middle" class="chart-muted" font-size="11" font-family="-apple-system, BlinkMacSystemFont, 'Segoe UI', Helvetica, Arial, sans-serif">Jun 24</text>
    <text x="728.2352941176471" y="370" text-anchor="middle" class="chart-muted" font-size="11" font-family="-apple-system, BlinkMacSystemFont, 'Segoe UI', Helvetica, Arial, sans-serif">Jun 26</text>
    <text x="770" y="370" text-anchor="middle" class="chart-muted" font-size="11" font-family="-apple-system, BlinkMacSystemFont, 'Segoe UI', Helvetica, Arial, sans-serif">Jun 27</text>
  </g>
  <line x1="60" y1="50" x2="60" y2="350" class="chart-axis" stroke-width="1" />
  <line x1="60" y1="350" x2="770" y2="350" class="chart-axis" stroke-width="1" />
  <path d="M60,350 L60,290 L85.76470588235294,290 Q101.76470588235294,290 117.76470588235294,290 L127.52941176470588,290 Q143.52941176470588,290 159.52941176470588,290 L169.29411764705884,290 Q185.29411764705884,290 201.29411764705884,290 L211.05882352941177,290 Q227.05882352941177,290 243.05882352941177,290 L252.82352941176475,290 Q268.82352941176475,290 277.96433295489214,276.8681413887466 L301.4474317509903,243.1318586112534 Q310.5882352941177,230 319.729038837245,216.86814138874658 L343.2121376333432,183.13185861125342 Q352.35294117647055,170 368.35294117647055,170 L378.11764705882354,170 Q394.11764705882354,170 410.11764705882354,170 L419.88235294117646,170 Q435.88235294117646,170 451.88235294117646,170 L461.64705882352945,170 Q477.64705882352945,170 493.64705882352945,170 L503.41176470588243,170 Q519.4117647058824,170 535.4117647058824,170 L545.1764705882354,170 Q561.1764705882354,170 577.1764705882354,170 L586.9411764705882,170 Q602.9411764705882,170 618.9411764705882,170 L628.7058823529411,170 Q644.7058823529411,170 660.7058823529411,170 L670.4705882352941,170 Q686.4705882352941,170 695.6113917784215,156.8681413887466 L719.0944905745197,123.1318586112534 Q728.2352941176471,110 744.2352941176471,110 L770,110 L770,350 L60,350 Z" fill="#dfb317" fill-opacity="0.1" />
  <path d="M60,350 L60,290 L85.76470588235294,290 Q101.76470588235294,290 117.76470588235294,290 L127.52941176470588,290 Q143.52941176470588,290 159.52941176470588,290 L169.29411764705884,290 Q185.29411764705884,290 201.29411764705884,290 L211.05882352941177,290 Q227.05882352941177,290 243.05882352941177,290 L252.82352941176475,290 Q268.82352941176475,290 277.96433295489214,276.8681413887466 L301.4474317509903,243.1318586112534 Q310.5882352941177,230 319.729038837245,216.86814138874658 L343.2121376333432,183.13185861125342 Q352.35294117647055,170 368.35294117647055,170 L378.11764705882354,170 Q394.11764705882354,170 410.11764705882354,170 L419.88235294117646,170 Q435.88235294117646,170 451.88235294117646,170 L461.64705882352945,170 Q477.64705882352945,170 493.64705882352945,170 L503.41176470588243,170 Q519.4117647058824,170 535.4117647058824,170 L545.1764705882354,170 Q561.1764705882354,170 577.1764705882354,170 L586.9411764705882,170 Q602.9411764705882,170 618.9411764705882,170 L628.7058823529411,170 Q644.7058823529411,170 660.7058823529411,170 L670.4705882352941,170 Q686.4705882352941,170 695.6113917784215,156.8681413887466 L719.0944905745197,123.1318586112534 Q728.2352941176471,110 744.2352941176471,110 L770,110" fill="none" stroke="#dfb317" stroke-width="2.5" class="data-line-0" />
  <g class="points">
    
    <circle cx="60" cy="290" r="4" fill="#dfb317" class="data-point" style="animation-delay: 1.50s" />
    <circle cx="101.76470588235294" cy="290" r="4" fill="#dfb317" class="data-point" style="animation-delay: 1.55s" />
    <circle cx="143.52941176470588" cy="290" r="4" fill="#dfb317" class="data-point" style="animation-delay: 1.60s" />
    <circle cx="185.29411764705884" cy="290" r="4" fill="#dfb317" class="data-point" style="animation-delay: 1.65s" />
    <circle cx="227.05882352941177" cy="290" r="4" fill="#dfb317" class="data-point" style="animation-delay: 1.70s" />
    <circle cx="268.82352941176475" cy="290" r="4" fill="#dfb317" class="data-point" style="animation-delay: 1.75s" />
    <circle cx="310.5882352941177" cy="230" r="4" fill="#dfb317" class="data-point" style="animation-delay: 1.80s" />
    <circle cx="352.35294117647055" cy="170" r="4" fill="#dfb317" class="data-point" style="animation-delay: 1.85s" />
    <circle cx="394.11764705882354" cy="170" r="4" fill="#dfb317" class="data-point" style="animation-delay: 1.90s" />
    <circle cx="435.88235294117646" cy="170" r="4" fill="#dfb317" class="data-point" style="animation-delay: 1.95s" />
    <circle cx="477.64705882352945" cy="170" r="4" fill="#dfb317" class="data-point" style="animation-delay: 2.00s" />
    <circle cx="519.4117647058824" cy="170" r="4" fill="#dfb317" class="data-point" style="animation-delay: 2.05s" />
    <circle cx="561.1764705882354" cy="170" r="4" fill="#dfb317" class="data-point" style="animation-delay: 2.10s" />
    <circle cx="602.9411764705882" cy="170" r="4" fill="#dfb317" class="data-point" style="animation-delay: 2.15s" />
    <circle cx="644.7058823529411" cy="170" r="4" fill="#dfb317" class="data-point" style="animation-delay: 2.20s" />
    <circle cx="686.4705882352941" cy="170" r="4" fill="#dfb317" class="data-point" style="animation-delay: 2.25s" />
    <circle cx="728.2352941176471" cy="110" r="4" fill="#dfb317" class="data-point" style="animation-delay: 2.30s" />
    <circle cx="770" cy="110" r="4" fill="#dfb317" class="data-point" style="animation-delay: 2.35s" />
  </g>
</svg>