<svg xmlns="http://www.w3.org/2000/svg" viewBox="0 0 800 400" width="800" height="400">
  <style>
    @keyframes drawLine {
      to { stroke-dashoffset: 0; }
    }
    @keyframes fadeInPoint {
      from { opacity: 0; }
      to { opacity: 1; }
    }
    .data-line-0 {
      stroke-dasharray: 1297;
      stroke-dashoffset: 1297;
      animation: drawLine 2s ease-out forwards;
    }
    .data-point {
      opacity: 0;
      animation: fadeInPoint 0.5s ease-out forwards;
    }
    .chart-bg { fill: #fff; }
    .chart-text { fill: #24292e; }
    .chart-muted { fill: #6a737d; }
    .chart-grid { stroke: #eee; }
    .chart-axis { stroke: #6a737d; }
    @media (prefers-color-scheme: dark) {
      .chart-bg { fill: #0d1117; }
      .chart-text { fill: #e6edf3; }
      .chart-muted { fill: #8b949e; }
      .chart-grid { stroke: #21262d; }
      .chart-axis { stroke: #8b949e; }
    }
  </style>
  <rect width="800" height="400" class="chart-bg" />
  <text x="400" y="14" text-anchor="middle" class="chart-text" font-size="16" font-weight="bold" font-family="-apple-system, BlinkMacSystemFont, 'Segoe UI', Helvetica, Arial, sans-serif">Monotone (default)</text>
  
  <g class="grid">
    <line x1="60" y1="350" x2="770" y2="350" class="chart-grid" stroke-opacity="0.3" />
    <text x="52" y="354" text-anchor="end" class="chart-muted" font-size="11" font-family="-apple-system, BlinkMacSystemFont, 'Segoe UI', Helvetica, Arial, sans-serif">0</text>
    <line x1="60" y1="290" x2="770" y2="290" class="chart-grid" stroke-opacity="0.3" />
    <text x="52" y="294" text-anchor="end" class="chart-muted" font-size="11" font-family="-apple-system, BlinkMacSystemFont, 'Segoe UI', Helvetica, Arial, sans-serif">1</text>
    <line x1="60" y1="230" x2="770" y2="230" class="chart-grid" stroke-opacity="0.3" />
    <text x="52" y="234" text-anchor="end" class="chart-muted" font-size="11" font-family="-apple-system, BlinkMacSystemFont, 'Segoe UI', Helvetica, Arial, sans-serif">2</text>
    <line x1="60" y1="170" x2="770" y2="170" class="chart-grid" stroke-opacity="0.3" />
    <text x="52" y="174" text-anchor="end" class="chart-muted" font-size="11" font-family="-apple-system, BlinkMacSystemFont, 'Segoe UI', Helvetica, Arial, sans-serif">3</text>
    <line x1="60" y1="110" x2="770" y2="110" class="chart-grid" stroke-opacity="0.3" />
    <text x="52" y="114" text-anchor="end" class="chart-muted" font-size="11" font-family="-apple-system, BlinkMacSystemFont, 'Segoe UI', Helvetica, Arial, sans-serif">4</text>
    <line x1="60" y1="50" x2="770" y2="50" class="chart-grid" stroke-opacity="0.3" />
    <text x="52" y="54" text-anchor="end" class="chart-muted" font-size="11" font-family="-apple-system, BlinkMacSystemFont, 'Segoe UI', Helvetica, Arial, sans-serif">5</text>
  </g>
  <g class="milestones">
    
  </g>
  <g class="x-axis">
    <text x="60" y="370" text-anchor="middle" class="chart-muted" font-size="11" font-family="-apple-system, BlinkMacSystemFont, 'Segoe UI', Helvetica, Arial, sans-serif">Jun 10</text>
    <text x="143.52941176470588" y="370" text-anchor="middle" class="chart-muted" font-size="11" font-family="-apple-system, BlinkMacSystemFont, 'Segoe UI', Helvetica, Arial, sans-serif">Jun 12</text>
    <text x="227.05882352941177" y="370" text-anchor="middle" class="chart-muted" font-size="11" font-family="-apple-system, BlinkMacSystemFont, 'Segoe UI', Helvetica, Arial, sans-serif">Jun 14</text>
    <text x="310.5882352941177" y="370" text-anchor="middle" class="chart-muted" font-size="11" font-family="-apple-system, BlinkMacSystemFont, 'Segoe UI', Helvetica, Arial, sans-serif">Jun 16</text>
    <text x="394.11764705882354" y="370" text-anchor="middle" class="chart-muted" font-size="11" font-family="-apple-system, BlinkMacSystemFont, 'Segoe UI', Helvetica, Arial, sans-serif">Jun 18</text>
    <text x="477.64705882352945" y="370" text-anchor="middle" class="chart-muted" font-size="11" font-family="-apple-system, BlinkMacSystemFont, 'Segoe UI', Helvetica, Arial, sans-serif">Jun 20</text>
    <text x="561.1764705882354" y="370" text-anchor="middle" class="chart-muted" font-size="11" font-family="-apple-system, BlinkMacSystemFont, 'Segoe UI', Helvetica, Arial, sans-serif">Jun 22</text>
    <text x="644.7058823529411" y="370" text-anchor="middle" class="chart-muted" font-size="11" font-family="-apple-system, BlinkMacSystemFont, 'Segoe UI', Helvetica, Arial, sans-serif">Jun 24</text>
    <text x="728.2352941176471" y="370" text-anchor="middle" class="chart-muted" font-size="11" font-family="-apple-system, BlinkMacSystemFont, 'Segoe UI', Helvetica, Arial, sans-serif">Jun 26</text>
    <text x="770" y="370" text-anchor="middle" class="chart-muted" font-size="11" font-family="-apple-system, BlinkMacSystemFont, 'Segoe UI', Helvetica, Arial, sans-serif">Jun 27</text>
  </g>
  <line x1="60" y1="50" x2="60" y2="350" class="chart-axis" stroke-width="1" />
  <line x1="60" y1="350" x2="770" y2="350" class="chart-axis" stroke-width="1" />
  <path d="M60,350 L60,290 C73.92156862745098,290 87.84313725490196,290 101.76470588235294,290 C115.68627450980392,290 129.60784313725492,290 143.52941176470588,290 C157.45098039215688,290 171.37254901960785,290 185.29411764705884,290 C199.2156862745098,290 213.1372549019608,290 227.05882352941177,290 C240.98039215686276,290 254.90196078431376,290 268.82352941176475,290 C282.74509803921575,290 296.6666666666667,250 310.5882352941177,230 C324.5098039215686,210 338.4313725490196,170 352.35294117647055,170 C366.27450980392155,170 380.19607843137254,170 394.11764705882354,170 C408.03921568627453,170 421.96078431372547,170 435.88235294117646,170 C449.80392156862746,170 463.72549019607845,170 477.64705882352945,170 C491.56862745098044,170 505.49019607843144,170 519.4117647058824,170 C533.3333333333334,170 547.2549019607844,170 561.1764705882354,170 C575.0980392156863,170 589.0196078431372,170 602.9411764705882,170 C616.8627450980391,170 630.7843137254902,170 644.7058823529411,170 C658.6274509803922,170 672.5490196078431,170 686.4705882352941,170 C700.3921568627451,170 714.3137254901961,110 728.2352941176471,110 C742.156862745098,110 756.0784313725491,110 770,110 L770,350 L60,350 Z" fill="#dfb317" fill-opacity="0.1" />
  <path d="M60,350 L60,290 C73.92156862745098,290 87.84313725490196,290 101.76470588235294,290 C115.68627450980392,290 129.60784313725492,290 143.52941176470588,290 C157.45098039215688,290 171.37254901960785,290 185.29411764705884,290 C199.2156862745098,290 213.1372549019608,290 227.05882352941177,290 C240.98039215686276,290 254.90196078431376,290 268.82352941176475,290 C282.74509803921575,290 296.6666666666667,250 310.5882352941177,230 C324.5098039215686,210 338.4313725490196,170 352.35294117647055,170 C366.27450980392155,170 380.19607843137254,170 394.11764705882354,170 C408.03921568627453,170 421.96078431372547,170 435.88235294117646,170 C449.80392156862746,170 463.72549019607845,170 477.64705882352945,170 C491.56862745098044,170 505.49019607843144,170 519.4117647058824,170 C533.3333333333334,170 547.2549019607844,170 561.1764705882354,170 C575.0980392156863,170 589.0196078431372,170 602.9411764705882,170 C616.8627450980391,170 630.7843137254902,170 644.7058823529411,170 C658.6274509803922,170 672.5490196078431,170 686.4705882352941,170 C700.3921568627451,170 714.3137254901961,110 728.2352941176471,110 C742.156862745098,110 756.0784313725491,110 770,110" fill="none" stroke="#dfb317" stroke-width="2.5" class="data-line-0" />
  <g class="points">
    
    <circle cx="60" cy="290" r="4" fill="#dfb317" class="data-point" style="animation-delay: 1.50s" />
    <circle cx="101.76470588235294" cy="290" r="4" fill="#dfb317" class="data-point" style="animation-delay: 1.55s" />
    <circle cx="143.52941176470588" cy="290" r="4" fill="#dfb317" class="data-point" style="animation-delay: 1.60s" />
    <circle cx="185.29411764705884" cy="290" r="4" fill="#dfb317" class="data-point" style="animation-delay: 1.65s" />
    <circle cx="227.05882352941177" cy="290" r="4" fill="#dfb317" class="data-point" style="animation-delay: 1.70s" />
    <circle cx="268.82352941176475" cy="290" r="4" fill="#dfb317" class="data-point" style="animation-delay: 1.75s" />
    <circle cx="310.5882352941177" cy="230" r="4" fill="#dfb317" class="data-point" style="animation-delay: 1.80s" />
    <circle cx="352.35294117647055" cy="170" r="4" fill="#dfb317" class="data-point" style="animation-delay: 1.85s" />
    <circle cx="394.11764705882354" cy="170" r="4" fill="#dfb317" class="data-point" style="animation-delay: 1.90s" />
    <circle cx="435.88235294117646" cy="170" r="4" fill="#dfb317" class="data-point" style="animation-delay: 1.95s" />
    <circle cx="477.64705882352945" cy="170" r="4" fill="#dfb317" class="data-point" style="animation-delay: 2.00s" />
    <circle cx="519.4117647058824" cy="170" r="4" fill="#dfb317" class="data-point" style="animation-delay: 2.05s" />
    <circle cx="561.1764705882354" cy="170" r="4" fill="#dfb317" class="data-point" style="animation-delay: 2.10s" />
    <circle cx="602.9411764705882" cy="170" r="4" fill="#dfb317" class="data-point" style="animation-delay: 2.15s" />
    <circle cx="644.7058823529411" cy="170" r="4" fill="#dfb317" class="data-point" style="animation-delay: 2.20s" />
    <circle cx="686.4705882352941" cy="170" r="4" fill="#dfb317" class="data-point" style="animation-delay: 2.25s" />
    <circle cx="728.2352941176471" cy="110" r="4" fill="#dfb317" class="data-point" style="animation-delay: 2.30s" />
    <circle cx="770" cy="110" r="4" fill="#dfb317" class="data-point" style="animation-delay: 2.35s" />
  </g>
</svg>