<svg xmlns="http://www.w3.org/2000/svg" viewBox="0 0 800 400" width="800" height="400">
  <style>
    @keyframes drawLine {
      to { stroke-dashoffset: 0; }
    }
    @keyframes fadeInPoint {
      from { opacity: 0; }
      to { opacity: 1; }
    }
    .data-line-0 {
      stroke-dasharray: 930;
      stroke-dashoffset: 930;
      animation: drawLine 2s ease-out forwards;
    }
    .data-point {
      opacity: 0;
      animation: fadeInPoint 0.5s ease-out forwards;
    }
    .chart-bg { fill: #fff; }
    .chart-text { fill: #24292e; }
    .chart-muted { fill: #6a737d; }
    .chart-grid { stroke: #eee; }
    .chart-axis { stroke: #6a737d; }
    @media (prefers-color-scheme: dark) {
      .chart-bg { fill: #0d1117; }
      .chart-text { fill: #e6edf3; }
      .chart-muted { fill: #8b949e; }
      .chart-grid { stroke: #21262d; }
      .chart-axis { stroke: #8b949e; }
    }
  </style>
  <rect width="800" height="400" class="chart-bg" />
  <text x="400" y="14" text-anchor="middle" class="chart-text" font-size="16" font-weight="bold" font-family="-apple-system, BlinkMacSystemFont, 'Segoe UI', Helvetica, Arial, sans-serif">Growth Forecast</text>
  <g class="legend">
    <rect x="220" y="31" width="12" height="3" fill="#dfb317" />
    <line x1="220" y1="32.5" x2="232" y2="32.5" stroke="#dfb317" stroke-width="2" />
    <text x="236" y="36" class="chart-text" font-size="10" font-family="-apple-system, BlinkMacSystemFont, 'Segoe UI', Helvetica, Arial, sans-serif">Star History</text>
    <rect x="340" y="31" width="12" height="3" fill="#28a745" rx="1" />
    <line x1="340" y1="32.5" x2="352" y2="32.5" stroke="#28a745" stroke-width="2" stroke-dasharray="4,2" />
    <text x="356" y="36" class="chart-text" font-size="10" font-family="-apple-system, BlinkMacSystemFont, 'Segoe UI', Helvetica, Arial, sans-serif">Linear Regression</text>
    <rect x="460" y="31" width="12" height="3" fill="#d73a49" rx="1" />
    <line x1="460" y1="32.5" x2="472" y2="32.5" stroke="#d73a49" stroke-width="2" stroke-dasharray="4,2" />
    <text x="476" y="36" class="chart-text" font-size="10" font-family="-apple-system, BlinkMacSystemFont, 'Segoe UI', Helvetica, Arial, sans-serif">Weighted Moving Average</text>
  </g>
  <g class="grid">
    <line x1="60" y1="353.8742279618192" x2="770" y2="353.8742279618192" class="chart-grid" stroke-opacity="0.3" />
    <text x="52" y="357.8742279618192" text-anchor="end" class="chart-muted" font-size="11" font-family="-apple-system, BlinkMacSystemFont, 'Segoe UI', Helvetica, Arial, sans-serif">0</text>
    <line x1="60" y1="269.65188096574957" x2="770" y2="269.65188096574957" class="chart-grid" stroke-opacity="0.3" />
    <text x="52" y="273.65188096574957" text-anchor="end" class="chart-muted" font-size="11" font-family="-apple-system, BlinkMacSystemFont, 'Segoe UI', Helvetica, Arial, sans-serif">500</text>
    <line x1="60" y1="185.42953396967997" x2="770" y2="185.42953396967997" class="chart-grid" stroke-opacity="0.3" />
    <text x="52" y="189.42953396967997" text-anchor="end" class="chart-muted" font-size="11" font-family="-apple-system, BlinkMacSystemFont, 'Segoe UI', Helvetica, Arial, sans-serif">1K</text>
    <line x1="60" y1="101.20718697361033" x2="770" y2="101.20718697361033" class="chart-grid" stroke-opacity="0.3" />
    <text x="52" y="105.20718697361033" text-anchor="end" class="chart-muted" font-size="11" font-family="-apple-system, BlinkMacSystemFont, 'Segoe UI', Helvetica, Arial, sans-serif">1.5K</text>
    <line x1="60" y1="16.98483997754073" x2="770" y2="16.98483997754073" class="chart-grid" stroke-opacity="0.3" />
    <text x="52" y="20.98483997754073" text-anchor="end" class="chart-muted" font-size="11" font-family="-apple-system, BlinkMacSystemFont, 'Segoe UI', Helvetica, Arial, sans-serif">2K</text>
  </g>
  <g class="milestones">
    
  </g>
  <g class="x-axis">
    <text x="60" y="370" text-anchor="middle" class="chart-muted" font-size="11" font-family="-apple-system, BlinkMacSystemFont, 'Segoe UI', Helvetica, Arial, sans-serif">Jan 6</text>
    <text x="134.73684210526315" y="370" text-anchor="middle" class="chart-muted" font-size="11" font-family="-apple-system, BlinkMacSystemFont, 'Segoe UI', Helvetica, Arial, sans-serif">Jan 20</text>
    <text x="209.4736842105263" y="370" text-anchor="middle" class="chart-muted" font-size="11" font-family="-apple-system, BlinkMacSystemFont, 'Segoe UI', Helvetica, Arial, sans-serif">Feb 3</text>
    <text x="284.2105263157895" y="370" text-anchor="middle" class="chart-muted" font-size="11" font-family="-apple-system, BlinkMacSystemFont, 'Segoe UI', Helvetica, Arial, sans-serif">Feb 17</text>
    <text x="358.9473684210526" y="370" text-anchor="middle" class="chart-muted" font-size="11" font-family="-apple-system, BlinkMacSystemFont, 'Segoe UI', Helvetica, Arial, sans-serif">Mar 3</text>
    <text x="433.6842105263158" y="370" text-anchor="middle" class="chart-muted" font-size="11" font-family="-apple-system, BlinkMacSystemFont, 'Segoe UI', Helvetica, Arial, sans-serif">Mar 17</text>
    <text x="508.4210526315789" y="370" text-anchor="middle" class="chart-muted" font-size="11" font-family="-apple-system, BlinkMacSystemFont, 'Segoe UI', Helvetica, Arial, sans-serif">Mar 31</text>
    <text x="583.1578947368421" y="370" text-anchor="middle" class="chart-muted" font-size="11" font-family="-apple-system, BlinkMacSystemFont, 'Segoe UI', Helvetica, Arial, sans-serif">Apr 14</text>
    <text x="657.8947368421052" y="370" text-anchor="middle" class="chart-muted" font-size="11" font-family="-apple-system, BlinkMacSystemFont, 'Segoe UI', Helvetica, Arial, sans-serif">Week 1</text>
    <text x="732.6315789473684" y="370" text-anchor="middle" class="chart-muted" font-size="11" font-family="-apple-system, BlinkMacSystemFont, 'Segoe UI', Helvetica, Arial, sans-serif">Week 3</text>
    <text x="770" y="370" text-anchor="middle" class="chart-muted" font-size="11" font-family="-apple-system, BlinkMacSystemFont, 'Segoe UI', Helvetica, Arial, sans-serif">Week 4</text>
  </g>
  <line x1="60" y1="50" x2="60" y2="350" class="chart-axis" stroke-width="1" />
  <line x1="60" y1="350" x2="770" y2="350" class="chart-axis" stroke-width="1" />
  <path d="M60,350 L60,324.90174059517125 C64.98245614035088,324.31779898933183 87.40350877192982,322.02695115103876 97.36842105263158,320.52217855137565 C107.33333333333333,319.01740595171253 124.7719298245614,315.72711959573274 134.73684210526315,313.61594609769793 C144.7017543859649,311.5047725996631 162.140350877193,307.18135878719823 172.10526315789474,304.68837731611455 C182.0701754385965,302.1953958450309 199.50877192982455,297.7035373385739 209.4736842105263,294.9185850645705 C219.43859649122805,292.1336327905671 236.87719298245614,286.8556990454801 246.8421052631579,283.8012352610893 C256.8070175438597,280.7467714766985 274.2456140350877,275.31162268388545 284.2105263157895,272.0101066816395 C294.17543859649123,268.7085906793936 311.6140350877193,262.5659741718136 321.57894736842104,259.0398652442448 C331.5438596491228,255.51375631667605 348.98245614035085,249.24761370016844 358.9473684210526,245.56428972487367 C368.91228070175436,241.8809657495789 386.35087719298247,235.277933745087 396.3157894736842,231.41493542953395 C406.280701754386,227.5519371139809 423.719298245614,220.63447501403706 433.6842105263158,216.59180235822572 C443.64912280701753,212.54912970241438 461.08771929824564,205.29477821448626 471.0526315789474,201.09489051094891 C481.01754385964915,196.89500280741157 498.45614035087715,189.42728804042673 508.4210526315789,185.09264458169568 C518.3859649122807,180.75800112296463 535.8245614035087,173.03200449185852 545.7894736842105,168.58506457046605 C555.7543859649123,164.13812464907357 573.1929824561404,156.36720943290285 583.1578947368421,151.7405951712521 C593.1228070175438,147.11398090960134 615.5438596491227,136.26614261650758 620.5263157894736,133.88545760808535 L620.5263157894736,350 L60,350 Z" fill="#dfb317" fill-opacity="0.1" />
  
  
  <path d="M60,350 L60,324.90174059517125 C64.98245614035088,324.31779898933183 87.40350877192982,322.02695115103876 97.36842105263158,320.52217855137565 C107.33333333333333,319.01740595171253 124.7719298245614,315.72711959573274 134.73684210526315,313.61594609769793 C144.7017543859649,311.5047725996631 162.140350877193,307.18135878719823 172.10526315789474,304.68837731611455 C182.0701754385965,302.1953958450309 199.50877192982455,297.7035373385739 209.4736842105263,294.9185850645705 C219.43859649122805,292.1336327905671 236.87719298245614,286.8556990454801 246.8421052631579,283.8012352610893 C256.8070175438597,280.7467714766985 274.2456140350877,275.31162268388545 284.2105263157895,272.0101066816395 C294.17543859649123,268.7085906793936 311.6140350877193,262.5659741718136 321.57894736842104,259.0398652442448 C331.5438596491228,255.51375631667605 348.98245614035085,249.24761370016844 358.9473684210526,245.56428972487367 C368.91228070175436,241.8809657495789 386.35087719298247,235.277933745087 396.3157894736842,231.41493542953395 C406.280701754386,227.5519371139809 423.719298245614,220.63447501403706 433.6842105263158,216.59180235822572 C443.64912280701753,212.54912970241438 461.08771929824564,205.29477821448626 471.0526315789474,201.09489051094891 C481.01754385964915,196.89500280741157 498.45614035087715,189.42728804042673 508.4210526315789,185.09264458169568 C518.3859649122807,180.75800112296463 535.8245614035087,173.03200449185852 545.7894736842105,168.58506457046605 C555.7543859649123,164.13812464907357 573.1929824561404,156.36720943290285 583.1578947368421,151.7405951712521 C593.1228070175438,147.11398090960134 615.5438596491227,136.26614261650758 620.5263157894736,133.88545760808535" fill="none" stroke="#dfb317" stroke-width="2.5" class="data-line-0" />
  <path d="M620.5263157894736,133.88545760808535 C625.5087719298245,133.84053902302077 647.9298245614034,133.88545760808535 657.8947368421052,133.5485682201011 C667.859649122807,131.75182481751827 685.2982456140351,123.89107243121842 695.2631578947369,120.4098820887142 C705.2280701754387,116.92869174620998 722.6666666666667,110.8983717012914 732.6315789473684,107.43964065131948 C742.5964912280701,103.98090960134756 765.0175438596491,96.19876473891075 770,94.46939921392479" fill="none" stroke="#28a745" stroke-width="2.5" stroke-dasharray="8,4" />
  <path d="M620.5263157894736,133.88545760808535 C625.5087719298245,131.93149915777653 647.9298245614034,123.16114542391914 657.8947368421052,119.23076923076923 C667.859649122807,115.30039303761932 685.2982456140351,108.3380123526109 695.2631578947369,104.40763615946099 C705.2280701754387,100.47725996631108 722.6666666666667,93.66086468276251 732.6315789473684,89.75294778214487 C742.5964912280701,85.84503088152724 765.0175438596491,77.05221785513757 770,75.09825940482875" fill="none" stroke="#d73a49" stroke-width="2.5" stroke-dasharray="8,4" />
  <g class="points">
    
    <circle cx="60" cy="324.90174059517125" r="4" fill="#dfb317" class="data-point" style="animation-delay: 1.50s" />
    <circle cx="97.36842105263158" cy="320.52217855137565" r="4" fill="#dfb317" class="data-point" style="animation-delay: 1.55s" />
    <circle cx="134.73684210526315" cy="313.61594609769793" r="4" fill="#dfb317" class="data-point" style="animation-delay: 1.60s" />
    <circle cx="172.10526315789474" cy="304.68837731611455" r="4" fill="#dfb317" class="data-point" style="animation-delay: 1.65s" />
    <circle cx="209.4736842105263" cy="294.9185850645705" r="4" fill="#dfb317" class="data-point" style="animation-delay: 1.70s" />
    <circle cx="246.8421052631579" cy="283.8012352610893" r="4" fill="#dfb317" class="data-point" style="animation-delay: 1.75s" />
    <circle cx="284.2105263157895" cy="272.0101066816395" r="4" fill="#dfb317" class="data-point" style="animation-delay: 1.80s" />
    <circle cx="321.57894736842104" cy="259.0398652442448" r="4" fill="#dfb317" class="data-point" style="animation-delay: 1.85s" />
    <circle cx="358.9473684210526" cy="245.56428972487367" r="4" fill="#dfb317" class="data-point" style="animation-delay: 1.90s" />
    <circle cx="396.3157894736842" cy="231.41493542953395" r="4" fill="#dfb317" class="data-point" style="animation-delay: 1.95s" />
    <circle cx="433.6842105263158" cy="216.59180235822572" r="4" fill="#dfb317" class="data-point" style="animation-delay: 2.00s" />
    <circle cx="471.0526315789474" cy="201.09489051094891" r="4" fill="#dfb317" class="data-point" style="animation-delay: 2.05s" />
    <circle cx="508.4210526315789" cy="185.09264458169568" r="4" fill="#dfb317" class="data-point" style="animation-delay: 2.10s" />
    <circle cx="545.7894736842105" cy="168.58506457046605" r="4" fill="#dfb317" class="data-point" style="animation-delay: 2.15s" />
    <circle cx="583.1578947368421" cy="151.7405951712521" r="4" fill="#dfb317" class="data-point" style="animation-delay: 2.20s" />
    <circle cx="620.5263157894736" cy="133.88545760808535" r="4" fill="#dfb317" class="data-point" style="animation-delay: 2.25s" />
  </g>
</svg>