<svg xmlns="http://www.w3.org/2000/svg" viewBox="0 0 800 400" width="800" height="400">
  <style>
    @keyframes drawLine {
      to { stroke-dashoffset: 0; }
    }
    @keyframes fadeInPoint {
      from { opacity: 0; }
      to { opacity: 1; }
    }
    .data-line-0 {
      stroke-dasharray: 683;
      stroke-dashoffset: 683;
      animation: drawLine 2s ease-out forwards;
    }
    .data-point {
      opacity: 0;
      animation: fadeInPoint 0.5s ease-out forwards;
    }
    .chart-bg { fill: #fff; }
    .chart-text { fill: #24292e; }
    .chart-muted { fill: #6a737d; }
    .chart-grid { stroke: #eee; }
    .chart-axis { stroke: #6a737d; }
    @media (prefers-color-scheme: dark) {
      .chart-bg { fill: #0d1117; }
      .chart-text { fill: #e6edf3; }
      .chart-muted { fill: #8b949e; }
      .chart-grid { stroke: #21262d; }
      .chart-axis { stroke: #8b949e; }
    }
  </style>
  <rect width="800" height="400" class="chart-bg" />
  <text x="400" y="14" text-anchor="middle" class="chart-text" font-size="16" font-weight="bold" font-family="-apple-system, BlinkMacSystemFont, 'Segoe UI', Helvetica, Arial, sans-serif">Growth Forecast</text>
  <g class="legend">
    <rect x="220" y="31" width="12" height="3" fill="#dfb317" />
    <line x1="220" y1="32.5" x2="232" y2="32.5" stroke="#dfb317" stroke-width="2" />
    <text x="236" y="36" class="chart-text" font-size="10" font-family="-apple-system, BlinkMacSystemFont, 'Segoe UI', Helvetica, Arial, sans-serif">Star History</text>
    <rect x="340" y="31" width="12" height="3" fill="#28a745" rx="1" />
    <line x1="340" y1="32.5" x2="352" y2="32.5" stroke="#28a745" stroke-width="2" stroke-dasharray="4,2" />
    <text x="356" y="36" class="chart-text" font-size="10" font-family="-apple-system, BlinkMacSystemFont, 'Segoe UI', Helvetica, Arial, sans-serif">Linear Regression</text>
    <rect x="460" y="31" width="12" height="3" fill="#d73a49" rx="1" />
    <line x1="460" y1="32.5" x2="472" y2="32.5" stroke="#d73a49" stroke-width="2" stroke-dasharray="4,2" />
    <text x="476" y="36" class="chart-text" font-size="10" font-family="-apple-system, BlinkMacSystemFont, 'Segoe UI', Helvetica, Arial, sans-serif">Weighted Moving Average</text>
  </g>
  <g class="grid">
    <line x1="60" y1="350" x2="770" y2="350" class="chart-grid" stroke-opacity="0.3" />
    <text x="52" y="354" text-anchor="end" class="chart-muted" font-size="11" font-family="-apple-system, BlinkMacSystemFont, 'Segoe UI', Helvetica, Arial, sans-serif">0</text>
    <line x1="60" y1="289.3939393939394" x2="770" y2="289.3939393939394" class="chart-grid" stroke-opacity="0.3" />
    <text x="52" y="293.3939393939394" text-anchor="end" class="chart-muted" font-size="11" font-family="-apple-system, BlinkMacSystemFont, 'Segoe UI', Helvetica, Arial, sans-serif">200</text>
    <line x1="60" y1="228.7878787878788" x2="770" y2="228.7878787878788" class="chart-grid" stroke-opacity="0.3" />
    <text x="52" y="232.7878787878788" text-anchor="end" class="chart-muted" font-size="11" font-family="-apple-system, BlinkMacSystemFont, 'Segoe UI', Helvetica, Arial, sans-serif">400</text>
    <line x1="60" y1="168.1818181818182" x2="770" y2="168.1818181818182" class="chart-grid" stroke-opacity="0.3" />
    <text x="52" y="172.1818181818182" text-anchor="end" class="chart-muted" font-size="11" font-family="-apple-system, BlinkMacSystemFont, 'Segoe UI', Helvetica, Arial, sans-serif">600</text>
    <line x1="60" y1="107.57575757575759" x2="770" y2="107.57575757575759" class="chart-grid" stroke-opacity="0.3" />
    <text x="52" y="111.57575757575759" text-anchor="end" class="chart-muted" font-size="11" font-family="-apple-system, BlinkMacSystemFont, 'Segoe UI', Helvetica, Arial, sans-serif">800</text>
    <line x1="60" y1="46.96969696969694" x2="770" y2="46.96969696969694" class="chart-grid" stroke-opacity="0.3" />
    <text x="52" y="50.96969696969694" text-anchor="end" class="chart-muted" font-size="11" font-family="-apple-system, BlinkMacSystemFont, 'Segoe UI', Helvetica, Arial, sans-serif">1,000</text>
  </g>
  <g class="milestones">
    
  </g>
  <g class="x-axis">
    <text x="60" y="370" text-anchor="middle" class="chart-muted" font-size="11" font-family="-apple-system, BlinkMacSystemFont, 'Segoe UI', Helvetica, Arial, sans-serif">Jan 1</text>
    <text x="202" y="370" text-anchor="middle" class="chart-muted" font-size="11" font-family="-apple-system, BlinkMacSystemFont, 'Segoe UI', Helvetica, Arial, sans-serif">May 1</text>
    <text x="344" y="370" text-anchor="middle" class="chart-muted" font-size="11" font-family="-apple-system, BlinkMacSystemFont, 'Segoe UI', Helvetica, Arial, sans-serif">Nov 1</text>
    <text x="486" y="370" text-anchor="middle" class="chart-muted" font-size="11" font-family="-apple-system, BlinkMacSystemFont, 'Segoe UI', Helvetica, Arial, sans-serif">Jun 1</text>
    <text x="628" y="370" text-anchor="middle" class="chart-muted" font-size="11" font-family="-apple-system, BlinkMacSystemFont, 'Segoe UI', Helvetica, Arial, sans-serif">Week 2</text>
    <text x="770" y="370" text-anchor="middle" class="chart-muted" font-size="11" font-family="-apple-system, BlinkMacSystemFont, 'Segoe UI', Helvetica, Arial, sans-serif">Week 4</text>
  </g>
  <line x1="60" y1="50" x2="60" y2="350" class="chart-axis" stroke-width="1" />
  <line x1="60" y1="350" x2="770" y2="350" class="chart-axis" stroke-width="1" />
  <path d="M60,343.93939393939394 C69.46666666666667,341.9191919191919 112.06666666666666,333.95959595959596 131,328.7878787878788 C149.93333333333334,323.61616161616166 183.06666666666666,312.22222222222223 202,305.1515151515151 C220.93333333333334,298.080808080808 254.06666666666666,284.04040404040404 273,275.75757575757575 C291.93333333333334,267.47474747474746 325.06666666666666,251.31313131313132 344,243.03030303030303 C362.93333333333334,234.74747474747474 396.06666666666666,220.98989898989902 415,213.63636363636365 C433.93333333333334,206.2828282828283 476.53333333333336,191.31313131313132 486,187.87878787878788 L486,350 L60,350 Z" fill="#dfb317" fill-opacity="0.1" />
  
  
  <path d="M60,343.93939393939394 C69.46666666666667,341.9191919191919 112.06666666666666,333.95959595959596 131,328.7878787878788 C149.93333333333334,323.61616161616166 183.06666666666666,312.22222222222223 202,305.1515151515151 C220.93333333333334,298.080808080808 254.06666666666666,284.04040404040404 273,275.75757575757575 C291.93333333333334,267.47474747474746 325.06666666666666,251.31313131313132 344,243.03030303030303 C362.93333333333334,234.74747474747474 396.06666666666666,220.98989898989902 415,213.63636363636365 C433.93333333333334,206.2828282828283 476.53333333333336,191.31313131313132 486,187.87878787878788" fill="none" stroke="#dfb317" stroke-width="2.5" class="data-line-0" />
  <path d="M486,187.87878787878788 C495.46666666666664,184.48484848484847 538.0666666666667,169.4141414141414 557,162.4242424242424 C575.9333333333333,155.43434343434342 609.0666666666667,142.68686868686868 628,135.45454545454544 C646.9333333333333,128.2222222222222 680.0666666666667,115.45454545454545 699,108.18181818181819 C717.9333333333333,100.90909090909092 760.5333333333333,84.54545454545458 770,80.90909090909093" fill="none" stroke="#28a745" stroke-width="2.5" stroke-dasharray="8,4" />
  <path d="M486,187.87878787878788 C495.46666666666664,184.16161616161617 538.0666666666667,167.3939393939394 557,160 C575.9333333333333,152.6060606060606 609.0666666666667,139.81818181818184 628,132.42424242424244 C646.9333333333333,125.03030303030305 680.0666666666667,111.93939393939392 699,104.54545454545453 C717.9333333333333,97.15151515151514 760.5333333333333,80.64646464646466 770,76.969696969697" fill="none" stroke="#d73a49" stroke-width="2.5" stroke-dasharray="8,4" />
  <g class="points">
    
    <circle cx="60" cy="343.93939393939394" r="4" fill="#dfb317" class="data-point" style="animation-delay: 1.50s" />
    <circle cx="131" cy="328.7878787878788" r="4" fill="#dfb317" class="data-point" style="animation-delay: 1.55s" />
    <circle cx="202" cy="305.1515151515151" r="4" fill="#dfb317" class="data-point" style="animation-delay: 1.60s" />
    <circle cx="273" cy="275.75757575757575" r="4" fill="#dfb317" class="data-point" style="animation-delay: 1.65s" />
    <circle cx="344" cy="243.03030303030303" r="4" fill="#dfb317" class="data-point" style="animation-delay: 1.70s" />
    <circle cx="415" cy="213.63636363636365" r="4" fill="#dfb317" class="data-point" style="animation-delay: 1.75s" />
    <circle cx="486" cy="187.87878787878788" r="4" fill="#dfb317" class="data-point" style="animation-delay: 1.80s" />
  </g>
</svg>