<svg xmlns="http://www.w3.org/2000/svg" viewBox="0 0 800 400" width="800" height="400">
  <style>
    @keyframes drawLine {
      to { stroke-dashoffset: 0; }
    }
    @keyframes fadeInPoint {
      from { opacity: 0; }
      to { opacity: 1; }
    }
    .data-line-0 {
      stroke-dasharray: 945;
      stroke-dashoffset: 945;
      animation: drawLine 2s ease-out forwards;
    }
    .data-point {
      opacity: 0;
      animation: fadeInPoint 0.5s ease-out forwards;
    }
    .chart-bg { fill: #fff; }
    .chart-text { fill: #24292e; }
    .chart-muted { fill: #6a737d; }
    .chart-grid { stroke: #eee; }
    .chart-axis { stroke: #6a737d; }
    @media (prefers-color-scheme: dark) {
      .chart-bg { fill: #0d1117; }
      .chart-text { fill: #e6edf3; }
      .chart-muted { fill: #8b949e; }
      .chart-grid { stroke: #21262d; }
      .chart-axis { stroke: #8b949e; }
    }
  </style>
  <rect width="800" height="400" class="chart-bg" />
  <text x="400" y="14" text-anchor="middle" class="chart-text" font-size="16" font-weight="bold" font-family="-apple-system, BlinkMacSystemFont, 'Segoe UI', Helvetica, Arial, sans-serif">Growth Forecast</text>
  <g class="legend">
    <rect x="220" y="31" width="12" height="3" fill="#dfb317" />
    <line x1="220" y1="32.5" x2="232" y2="32.5" stroke="#dfb317" stroke-width="2" />
    <text x="236" y="36" class="chart-text" font-size="10" font-family="-apple-system, BlinkMacSystemFont, 'Segoe UI', Helvetica, Arial, sans-serif">Star History</text>
    <rect x="340" y="31" width="12" height="3" fill="#28a745" rx="1" />
    <line x1="340" y1="32.5" x2="352" y2="32.5" stroke="#28a745" stroke-width="2" stroke-dasharray="4,2" />
    <text x="356" y="36" class="chart-text" font-size="10" font-family="-apple-system, BlinkMacSystemFont, 'Segoe UI', Helvetica, Arial, sans-serif">Linear Regression</text>
    <rect x="460" y="31" width="12" height="3" fill="#d73a49" rx="1" />
    <line x1="460" y1="32.5" x2="472" y2="32.5" stroke="#d73a49" stroke-width="2" stroke-dasharray="4,2" />
    <text x="476" y="36" class="chart-text" font-size="10" font-family="-apple-system, BlinkMacSystemFont, 'Segoe UI', Helvetica, Arial, sans-serif">Weighted Moving Average</text>
  </g>
  <g class="grid">
    <line x1="60" y1="350" x2="770" y2="350" class="chart-grid" stroke-opacity="0.3" />
    <text x="52" y="354" text-anchor="end" class="chart-muted" font-size="11" font-family="-apple-system, BlinkMacSystemFont, 'Segoe UI', Helvetica, Arial, sans-serif">0</text>
    <line x1="60" y1="290" x2="770" y2="290" class="chart-grid" stroke-opacity="0.3" />
    <text x="52" y="294" text-anchor="end" class="chart-muted" font-size="11" font-family="-apple-system, BlinkMacSystemFont, 'Segoe UI', Helvetica, Arial, sans-serif">100</text>
    <line x1="60" y1="230" x2="770" y2="230" class="chart-grid" stroke-opacity="0.3" />
    <text x="52" y="234" text-anchor="end" class="chart-muted" font-size="11" font-family="-apple-system, BlinkMacSystemFont, 'Segoe UI', Helvetica, Arial, sans-serif">200</text>
    <line x1="60" y1="170" x2="770" y2="170" class="chart-grid" stroke-opacity="0.3" />
    <text x="52" y="174" text-anchor="end" class="chart-muted" font-size="11" font-family="-apple-system, BlinkMacSystemFont, 'Segoe UI', Helvetica, Arial, sans-serif">300</text>
    <line x1="60" y1="110" x2="770" y2="110" class="chart-grid" stroke-opacity="0.3" />
    <text x="52" y="114" text-anchor="end" class="chart-muted" font-size="11" font-family="-apple-system, BlinkMacSystemFont, 'Segoe UI', Helvetica, Arial, sans-serif">400</text>
    <line x1="60" y1="50" x2="770" y2="50" class="chart-grid" stroke-opacity="0.3" />
    <text x="52" y="54" text-anchor="end" class="chart-muted" font-size="11" font-family="-apple-system, BlinkMacSystemFont, 'Segoe UI', Helvetica, Arial, sans-serif">500</text>
  </g>
  <g class="milestones">
    
  </g>
  <g class="x-axis">
    <text x="60" y="370" text-anchor="middle" class="chart-muted" font-size="11" font-family="-apple-system, BlinkMacSystemFont, 'Segoe UI', Helvetica, Arial, sans-serif">Feb 2</text>
    <text x="152.6086956521739" y="370" text-anchor="middle" class="chart-muted" font-size="11" font-family="-apple-system, BlinkMacSystemFont, 'Segoe UI', Helvetica, Arial, sans-serif">Feb 23</text>
    <text x="245.2173913043478" y="370" text-anchor="middle" class="chart-muted" font-size="11" font-family="-apple-system, BlinkMacSystemFont, 'Segoe UI', Helvetica, Arial, sans-serif">Mar 16</text>
    <text x="337.82608695652175" y="370" text-anchor="middle" class="chart-muted" font-size="11" font-family="-apple-system, BlinkMacSystemFont, 'Segoe UI', Helvetica, Arial, sans-serif">Apr 6</text>
    <text x="430.4347826086956" y="370" text-anchor="middle" class="chart-muted" font-size="11" font-family="-apple-system, BlinkMacSystemFont, 'Segoe UI', Helvetica, Arial, sans-serif">Apr 27</text>
    <text x="523.0434782608695" y="370" text-anchor="middle" class="chart-muted" font-size="11" font-family="-apple-system, BlinkMacSystemFont, 'Segoe UI', Helvetica, Arial, sans-serif">May 18</text>
    <text x="615.6521739130435" y="370" text-anchor="middle" class="chart-muted" font-size="11" font-family="-apple-system, BlinkMacSystemFont, 'Segoe UI', Helvetica, Arial, sans-serif">Jun 8</text>
    <text x="708.2608695652174" y="370" text-anchor="middle" class="chart-muted" font-size="11" font-family="-apple-system, BlinkMacSystemFont, 'Segoe UI', Helvetica, Arial, sans-serif">Week 2</text>
    <text x="770" y="370" text-anchor="middle" class="chart-muted" font-size="11" font-family="-apple-system, BlinkMacSystemFont, 'Segoe UI', Helvetica, Arial, sans-serif">Week 4</text>
  </g>
  <line x1="60" y1="50" x2="60" y2="350" class="chart-axis" stroke-width="1" />
  <line x1="60" y1="350" x2="770" y2="350" class="chart-axis" stroke-width="1" />
  <path d="M60,350 L60,341 C64.11594202898551,340.44 82.6376811594203,338.32 90.86956521739131,336.8 C99.10144927536233,335.28000000000003 113.5072463768116,331.28000000000003 121.73913043478261,329.6 C129.97101449275362,327.92 144.37681159420288,326.12 152.6086956521739,324.2 C160.84057971014494,322.28 175.2463768115942,317.36 183.47826086956522,315.2 C191.71014492753625,313.03999999999996 206.11594202898553,310.08 214.34782608695653,308 C222.57971014492753,305.92 236.9855072463768,302.08000000000004 245.2173913043478,299.6 C253.44927536231882,297.12 267.8550724637681,292.28 276.0869565217391,289.4 C284.3188405797101,286.52 298.72463768115944,280.56 306.95652173913044,278 C315.18840579710144,275.44 329.59420289855075,272.52 337.82608695652175,270.2 C346.05797101449275,267.88 360.46376811594206,263.32 368.69565217391306,260.6 C376.92753623188406,257.88000000000005 391.33333333333337,252.60000000000002 399.5652173913044,249.8 C407.7971014492754,247 422.2028985507246,242.24000000000004 430.4347826086956,239.60000000000002 C438.66666666666663,236.96 453.07246376811594,232.88 461.30434782608694,230 C469.53623188405794,227.12 483.9420289855073,221.44 492.1739130434783,218 C500.4057971014493,214.56 514.8115942028985,208.04000000000002 523.0434782608695,204.20000000000002 C531.2753623188405,200.36 545.6811594202899,192.95999999999998 553.9130434782609,189.2 C562.1449275362319,185.44 576.5507246376811,179.6 584.7826086956521,176 C593.0144927536231,172.4 607.4202898550725,166.28 615.6521739130435,162.2 C623.8840579710145,158.11999999999998 642.4057971014493,147.64 646.5217391304348,145.39999999999998 L646.5217391304348,350 L60,350 Z" fill="#dfb317" fill-opacity="0.1" />
  
  
  <path d="M60,350 L60,341 C64.11594202898551,340.44 82.6376811594203,338.32 90.86956521739131,336.8 C99.10144927536233,335.28000000000003 113.5072463768116,331.28000000000003 121.73913043478261,329.6 C129.97101449275362,327.92 144.37681159420288,326.12 152.6086956521739,324.2 C160.84057971014494,322.28 175.2463768115942,317.36 183.47826086956522,315.2 C191.71014492753625,313.03999999999996 206.11594202898553,310.08 214.34782608695653,308 C222.57971014492753,305.92 236.9855072463768,302.08000000000004 245.2173913043478,299.6 C253.44927536231882,297.12 267.8550724637681,292.28 276.0869565217391,289.4 C284.3188405797101,286.52 298.72463768115944,280.56 306.95652173913044,278 C315.18840579710144,275.44 329.59420289855075,272.52 337.82608695652175,270.2 C346.05797101449275,267.88 360.46376811594206,263.32 368.69565217391306,260.6 C376.92753623188406,257.88000000000005 391.33333333333337,252.60000000000002 399.5652173913044,249.8 C407.7971014492754,247 422.2028985507246,242.24000000000004 430.4347826086956,239.60000000000002 C438.66666666666663,236.96 453.07246376811594,232.88 461.30434782608694,230 C469.53623188405794,227.12 483.9420289855073,221.44 492.1739130434783,218 C500.4057971014493,214.56 514.8115942028985,208.04000000000002 523.0434782608695,204.20000000000002 C531.2753623188405,200.36 545.6811594202899,192.95999999999998 553.9130434782609,189.2 C562.1449275362319,185.44 576.5507246376811,179.6 584.7826086956521,176 C593.0144927536231,172.4 607.4202898550725,166.28 615.6521739130435,162.2 C623.8840579710145,158.11999999999998 642.4057971014493,147.64 646.5217391304348,145.39999999999998" fill="none" stroke="#dfb317" stroke-width="2.5" class="data-line-0" />
  <path d="M646.5217391304348,145.39999999999998 C650.6376811594203,146.11999999999998 669.1594202898551,150.79999999999998 677.3913043478261,150.79999999999998 C685.6231884057971,150.16 700.0289855072464,143.32000000000002 708.2608695652174,140.60000000000002 C716.4927536231884,137.88000000000002 730.8985507246377,133.12 739.1304347826087,130.4 C747.3623188405797,127.68 765.8840579710145,121.55999999999999 770,120.19999999999999" fill="none" stroke="#28a745" stroke-width="2.5" stroke-dasharray="8,4" />
  <path d="M646.5217391304348,145.39999999999998 C650.6376811594203,143.79999999999998 669.1594202898551,136.6 677.3913043478261,133.4 C685.6231884057971,130.20000000000002 700.0289855072464,124.52000000000001 708.2608695652174,121.4 C716.4927536231884,118.28 730.8985507246377,113.12 739.1304347826087,110 C747.3623188405797,106.88 765.8840579710145,99.6 770,98" fill="none" stroke="#d73a49" stroke-width="2.5" stroke-dasharray="8,4" />
  <g class="points">
    
    <circle cx="60" cy="341" r="4" fill="#dfb317" class="data-point" style="animation-delay: 1.50s" />
    <circle cx="90.86956521739131" cy="336.8" r="4" fill="#dfb317" class="data-point" style="animation-delay: 1.55s" />
    <circle cx="121.73913043478261" cy="329.6" r="4" fill="#dfb317" class="data-point" style="animation-delay: 1.60s" />
    <circle cx="152.6086956521739" cy="324.2" r="4" fill="#dfb317" class="data-point" style="animation-delay: 1.65s" />
    <circle cx="183.47826086956522" cy="315.2" r="4" fill="#dfb317" class="data-point" style="animation-delay: 1.70s" />
    <circle cx="214.34782608695653" cy="308" r="4" fill="#dfb317" class="data-point" style="animation-delay: 1.75s" />
    <circle cx="245.2173913043478" cy="299.6" r="4" fill="#dfb317" class="data-point" style="animation-delay: 1.80s" />
    <circle cx="276.0869565217391" cy="289.4" r="4" fill="#dfb317" class="data-point" style="animation-delay: 1.85s" />
    <circle cx="306.95652173913044" cy="278" r="4" fill="#dfb317" class="data-point" style="animation-delay: 1.90s" />
    <circle cx="337.82608695652175" cy="270.2" r="4" fill="#dfb317" class="data-point" style="animation-delay: 1.95s" />
    <circle cx="368.69565217391306" cy="260.6" r="4" fill="#dfb317" class="data-point" style="animation-delay: 2.00s" />
    <circle cx="399.5652173913044" cy="249.8" r="4" fill="#dfb317" class="data-point" style="animation-delay: 2.05s" />
    <circle cx="430.4347826086956" cy="239.60000000000002" r="4" fill="#dfb317" class="data-point" style="animation-delay: 2.10s" />
    <circle cx="461.30434782608694" cy="230" r="4" fill="#dfb317" class="data-point" style="animation-delay: 2.15s" />
    <circle cx="492.1739130434783" cy="218" r="4" fill="#dfb317" class="data-point" style="animation-delay: 2.20s" />
    <circle cx="523.0434782608695" cy="204.20000000000002" r="4" fill="#dfb317" class="data-point" style="animation-delay: 2.25s" />
    <circle cx="553.9130434782609" cy="189.2" r="4" fill="#dfb317" class="data-point" style="animation-delay: 2.30s" />
    <circle cx="584.7826086956521" cy="176" r="4" fill="#dfb317" class="data-point" style="animation-delay: 2.35s" />
    <circle cx="615.6521739130435" cy="162.2" r="4" fill="#dfb317" class="data-point" style="animation-delay: 2.40s" />
    <circle cx="646.5217391304348" cy="145.39999999999998" r="4" fill="#dfb317" class="data-point" style="animation-delay: 2.45s" />
  </g>
</svg>