<svg xmlns="http://www.w3.org/2000/svg" viewBox="0 0 800 400" width="800" height="400">
  <style>
    @keyframes drawLine {
      to { stroke-dashoffset: 0; }
    }
    @keyframes fadeInPoint {
      from { opacity: 0; }
      to { opacity: 1; }
    }
    .data-line-0 {
      stroke-dasharray: 1211;
      stroke-dashoffset: 1211;
      animation: drawLine 2s ease-out forwards;
    }
    .data-point {
      opacity: 0;
      animation: fadeInPoint 0.5s ease-out forwards;
    }
    .chart-bg { fill: #fff; }
    .chart-text { fill: #24292e; }
    .chart-muted { fill: #6a737d; }
    .chart-grid { stroke: #eee; }
    .chart-axis { stroke: #6a737d; }
    @media (prefers-color-scheme: dark) {
      .chart-bg { fill: #0d1117; }
      .chart-text { fill: #e6edf3; }
      .chart-muted { fill: #8b949e; }
      .chart-grid { stroke: #21262d; }
      .chart-axis { stroke: #8b949e; }
    }
  </style>
  <rect width="800" height="400" class="chart-bg" />
  <text x="400" y="14" text-anchor="middle" class="chart-text" font-size="16" font-weight="bold" font-family="-apple-system, BlinkMacSystemFont, 'Segoe UI', Helvetica, Arial, sans-serif">Begin at zero</text>
  
  <g class="grid">
    <line x1="60" y1="350" x2="770" y2="350" class="chart-grid" stroke-opacity="0.3" />
    <text x="52" y="354" text-anchor="end" class="chart-muted" font-size="11" font-family="-apple-system, BlinkMacSystemFont, 'Segoe UI', Helvetica, Arial, sans-serif">0</text>
    <line x1="60" y1="257.6923076923077" x2="770" y2="257.6923076923077" class="chart-grid" stroke-opacity="0.3" />
    <text x="52" y="261.6923076923077" text-anchor="end" class="chart-muted" font-size="11" font-family="-apple-system, BlinkMacSystemFont, 'Segoe UI', Helvetica, Arial, sans-serif">100</text>
    <line x1="60" y1="165.3846153846154" x2="770" y2="165.3846153846154" class="chart-grid" stroke-opacity="0.3" />
    <text x="52" y="169.3846153846154" text-anchor="end" class="chart-muted" font-size="11" font-family="-apple-system, BlinkMacSystemFont, 'Segoe UI', Helvetica, Arial, sans-serif">200</text>
    <line x1="60" y1="73.07692307692304" x2="770" y2="73.07692307692304" class="chart-grid" stroke-opacity="0.3" />
    <text x="52" y="77.07692307692304" text-anchor="end" class="chart-muted" font-size="11" font-family="-apple-system, BlinkMacSystemFont, 'Segoe UI', Helvetica, Arial, sans-serif">300</text>
  </g>
  <g class="milestones">
    <line x1="60" y1="257.6923076923077" x2="770" y2="257.6923076923077" class="chart-axis" stroke-width="1" stroke-dasharray="6,6" />
    <text x="64" y="253.69230769230768" class="chart-muted" font-size="10" font-family="-apple-system, BlinkMacSystemFont, 'Segoe UI', Helvetica, Arial, sans-serif">100 ★</text>
  </g>
  <g class="x-axis">
    <text x="60" y="370" text-anchor="middle" class="chart-muted" font-size="11" font-family="-apple-system, BlinkMacSystemFont, 'Segoe UI', Helvetica, Arial, sans-serif">Mar 1</text>
    <text x="134.73684210526315" y="370" text-anchor="middle" class="chart-muted" font-size="11" font-family="-apple-system, BlinkMacSystemFont, 'Segoe UI', Helvetica, Arial, sans-serif">Mar 9</text>
    <text x="209.4736842105263" y="370" text-anchor="middle" class="chart-muted" font-size="11" font-family="-apple-system, BlinkMacSystemFont, 'Segoe UI', Helvetica, Arial, sans-serif">Mar 17</text>
    <text x="284.2105263157895" y="370" text-anchor="middle" class="chart-muted" font-size="11" font-family="-apple-system, BlinkMacSystemFont, 'Segoe UI', Helvetica, Arial, sans-serif">Mar 25</text>
    <text x="358.9473684210526" y="370" text-anchor="middle" class="chart-muted" font-size="11" font-family="-apple-system, BlinkMacSystemFont, 'Segoe UI', Helvetica, Arial, sans-serif">Apr 2</text>
    <text x="433.6842105263158" y="370" text-anchor="middle" class="chart-muted" font-size="11" font-family="-apple-system, BlinkMacSystemFont, 'Segoe UI', Helvetica, Arial, sans-serif">Apr 10</text>
    <text x="508.4210526315789" y="370" text-anchor="middle" class="chart-muted" font-size="11" font-family="-apple-system, BlinkMacSystemFont, 'Segoe UI', Helvetica, Arial, sans-serif">Apr 18</text>
    <text x="583.1578947368421" y="370" text-anchor="middle" class="chart-muted" font-size="11" font-family="-apple-system, BlinkMacSystemFont, 'Segoe UI', Helvetica, Arial, sans-serif">Apr 26</text>
    <text x="657.8947368421052" y="370" text-anchor="middle" class="chart-muted" font-size="11" font-family="-apple-system, BlinkMacSystemFont, 'Segoe UI', Helvetica, Arial, sans-serif">May 4</text>
    <text x="732.6315789473684" y="370" text-anchor="middle" class="chart-muted" font-size="11" font-family="-apple-system, BlinkMacSystemFont, 'Segoe UI', Helvetica, Arial, sans-serif">May 12</text>
    <text x="770" y="370" text-anchor="middle" class="chart-muted" font-size="11" font-family="-apple-system, BlinkMacSystemFont, 'Segoe UI', Helvetica, Arial, sans-serif">May 16</text>
  </g>
  <line x1="60" y1="50" x2="60" y2="350" class="chart-axis" stroke-width="1" />
  <line x1="60" y1="350" x2="770" y2="350" class="chart-axis" stroke-width="1" />
  <path d="M60,350 L60,302 C72.45614035087719,300.15384615384613 84.91228070175438,297.8461538461538 97.36842105263158,296.46153846153845 C109.82456140350877,295.0769230769231 122.28070175438596,295.53846153846155 134.73684210526315,293.6923076923077 C147.19298245614036,291.8461538461538 159.64912280701753,287.38461538461536 172.10526315789474,285.38461538461536 C184.56140350877192,283.38461538461536 197.01754385964912,283.07692307692304 209.4736842105263,281.6923076923077 C221.9298245614035,280.3076923076923 234.38596491228068,279.53846153846155 246.8421052631579,277.0769230769231 C259.29824561403507,274.61538461538464 271.7543859649123,269.53846153846155 284.2105263157895,266.9230769230769 C296.6666666666667,264.30769230769226 309.12280701754383,263.07692307692304 321.57894736842104,261.38461538461536 C334.03508771929825,259.6923076923077 346.4912280701754,260.15384615384613 358.9473684210526,256.7692307692308 C371.4035087719298,253.3846153846154 383.859649122807,247.0769230769231 396.3157894736842,241.0769230769231 C408.7719298245614,235.0769230769231 421.2280701754386,225.84615384615384 433.6842105263158,220.76923076923077 C446.140350877193,215.69230769230768 458.5964912280702,213.6923076923077 471.0526315789474,210.6153846153846 C483.50877192982455,207.53846153846155 495.96491228070175,206.15384615384613 508.4210526315789,202.3076923076923 C520.8771929824561,198.46153846153845 533.3333333333333,192.15384615384616 545.7894736842105,187.53846153846155 C558.2456140350877,182.92307692307693 570.7017543859649,179.07692307692307 583.1578947368421,174.6153846153846 C595.6140350877192,170.15384615384616 608.0701754385965,164.15384615384616 620.5263157894736,160.76923076923077 C632.9824561403508,157.3846153846154 645.438596491228,159.6923076923077 657.8947368421052,154.30769230769232 C670.3508771929825,148.92307692307693 682.8070175438596,137.0769230769231 695.2631578947369,128.46153846153845 C707.719298245614,119.84615384615385 720.1754385964913,111.84615384615385 732.6315789473684,102.61538461538461 C745.0877192982456,93.38461538461537 757.5438596491229,82.92307692307689 770,73.07692307692304 L770,350 L60,350 Z" fill="#dfb317" fill-opacity="0.1" />
  <path d="M60,350 L60,302 C72.45614035087719,300.15384615384613 84.91228070175438,297.8461538461538 97.36842105263158,296.46153846153845 C109.82456140350877,295.0769230769231 122.28070175438596,295.53846153846155 134.73684210526315,293.6923076923077 C147.19298245614036,291.8461538461538 159.64912280701753,287.38461538461536 172.10526315789474,285.38461538461536 C184.56140350877192,283.38461538461536 197.01754385964912,283.07692307692304 209.4736842105263,281.6923076923077 C221.9298245614035,280.3076923076923 234.38596491228068,279.53846153846155 246.8421052631579,277.0769230769231 C259.29824561403507,274.61538461538464 271.7543859649123,269.53846153846155 284.2105263157895,266.9230769230769 C296.6666666666667,264.30769230769226 309.12280701754383,263.07692307692304 321.57894736842104,261.38461538461536 C334.03508771929825,259.6923076923077 346.4912280701754,260.15384615384613 358.9473684210526,256.7692307692308 C371.4035087719298,253.3846153846154 383.859649122807,247.0769230769231 396.3157894736842,241.0769230769231 C408.7719298245614,235.0769230769231 421.2280701754386,225.84615384615384 433.6842105263158,220.76923076923077 C446.140350877193,215.69230769230768 458.5964912280702,213.6923076923077 471.0526315789474,210.6153846153846 C483.50877192982455,207.53846153846155 495.96491228070175,206.15384615384613 508.4210526315789,202.3076923076923 C520.8771929824561,198.46153846153845 533.3333333333333,192.15384615384616 545.7894736842105,187.53846153846155 C558.2456140350877,182.92307692307693 570.7017543859649,179.07692307692307 583.1578947368421,174.6153846153846 C595.6140350877192,170.15384615384616 608.0701754385965,164.15384615384616 620.5263157894736,160.76923076923077 C632.9824561403508,157.3846153846154 645.438596491228,159.6923076923077 657.8947368421052,154.30769230769232 C670.3508771929825,148.92307692307693 682.8070175438596,137.0769230769231 695.2631578947369,128.46153846153845 C707.719298245614,119.84615384615385 720.1754385964913,111.84615384615385 732.6315789473684,102.61538461538461 C745.0877192982456,93.38461538461537 757.5438596491229,82.92307692307689 770,73.07692307692304" fill="none" stroke="#dfb317" stroke-width="2.5" class="data-line-0" />
  <g class="points">
    
    <circle cx="60" cy="302" r="4" fill="#dfb317" class="data-point" style="animation-delay: 1.50s" />
    <circle cx="97.36842105263158" cy="296.46153846153845" r="4" fill="#dfb317" class="data-point" style="animation-delay: 1.55s" />
    <circle cx="134.73684210526315" cy="293.6923076923077" r="4" fill="#dfb317" class="data-point" style="animation-delay: 1.60s" />
    <circle cx="172.10526315789474" cy="285.38461538461536" r="4" fill="#dfb317" class="data-point" style="animation-delay: 1.65s" />
    <circle cx="209.4736842105263" cy="281.6923076923077" r="4" fill="#dfb317" class="data-point" style="animation-delay: 1.70s" />
    <circle cx="246.8421052631579" cy="277.0769230769231" r="4" fill="#dfb317" class="data-point" style="animation-delay: 1.75s" />
    <circle cx="284.2105263157895" cy="266.9230769230769" r="4" fill="#dfb317" class="data-point" style="animation-delay: 1.80s" />
    <circle cx="321.57894736842104" cy="261.38461538461536" r="4" fill="#dfb317" class="data-point" style="animation-delay: 1.85s" />
    <circle cx="358.9473684210526" cy="256.7692307692308" r="4" fill="#dfb317" class="data-point" style="animation-delay: 1.90s" />
    <circle cx="396.3157894736842" cy="241.0769230769231" r="4" fill="#dfb317" class="data-point" style="animation-delay: 1.95s" />
    <circle cx="433.6842105263158" cy="220.76923076923077" r="4" fill="#dfb317" class="data-point" style="animation-delay: 2.00s" />
    <circle cx="471.0526315789474" cy="210.6153846153846" r="4" fill="#dfb317" class="data-point" style="animation-delay: 2.05s" />
    <circle cx="508.4210526315789" cy="202.3076923076923" r="4" fill="#dfb317" class="data-point" style="animation-delay: 2.10s" />
    <circle cx="545.7894736842105" cy="187.53846153846155" r="4" fill="#dfb317" class="data-point" style="animation-delay: 2.15s" />
    <circle cx="583.1578947368421" cy="174.6153846153846" r="4" fill="#dfb317" class="data-point" style="animation-delay: 2.20s" />
    <circle cx="620.5263157894736" cy="160.76923076923077" r="4" fill="#dfb317" class="data-point" style="animation-delay: 2.25s" />
    <circle cx="657.8947368421052" cy="154.30769230769232" r="4" fill="#dfb317" class="data-point" style="animation-delay: 2.30s" />
    <circle cx="695.2631578947369" cy="128.46153846153845" r="4" fill="#dfb317" class="data-point" style="animation-delay: 2.35s" />
    <circle cx="732.6315789473684" cy="102.61538461538461" r="4" fill="#dfb317" class="data-point" style="animation-delay: 2.40s" />
    <circle cx="770" cy="73.07692307692304" r="4" fill="#dfb317" class="data-point" style="animation-delay: 2.45s" />
  </g>
</svg>