<svg xmlns="http://www.w3.org/2000/svg" viewBox="0 0 800 400" width="800" height="400">
  <style>
    @keyframes drawLine {
      to { stroke-dashoffset: 0; }
    }
    @keyframes fadeInPoint {
      from { opacity: 0; }
      to { opacity: 1; }
    }
    .data-line-0 {
      stroke-dasharray: 1155;
      stroke-dashoffset: 1155;
      animation: drawLine 2s ease-out forwards;
    }
    .data-point {
      opacity: 0;
      animation: fadeInPoint 0.5s ease-out forwards;
    }
    .chart-bg { fill: #fff; }
    .chart-text { fill: #24292e; }
    .chart-muted { fill: #6a737d; }
    .chart-grid { stroke: #eee; }
    .chart-axis { stroke: #6a737d; }
    @media (prefers-color-scheme: dark) {
      .chart-bg { fill: #0d1117; }
      .chart-text { fill: #e6edf3; }
      .chart-muted { fill: #8b949e; }
      .chart-grid { stroke: #21262d; }
      .chart-axis { stroke: #8b949e; }
    }
  </style>
  <rect width="800" height="400" class="chart-bg" />
  <text x="400" y="14" text-anchor="middle" class="chart-text" font-size="16" font-weight="bold" font-family="-apple-system, BlinkMacSystemFont, 'Segoe UI', Helvetica, Arial, sans-serif">Last 90 days (chart-range: 90d)</text>
  
  <g class="grid">
    <line x1="60" y1="331.25" x2="770" y2="331.25" class="chart-grid" stroke-opacity="0.3" />
    <text x="52" y="335.25" text-anchor="end" class="chart-muted" font-size="11" font-family="-apple-system, BlinkMacSystemFont, 'Segoe UI', Helvetica, Arial, sans-serif">300</text>
    <line x1="60" y1="284.375" x2="770" y2="284.375" class="chart-grid" stroke-opacity="0.3" />
    <text x="52" y="288.375" text-anchor="end" class="chart-muted" font-size="11" font-family="-apple-system, BlinkMacSystemFont, 'Segoe UI', Helvetica, Arial, sans-serif">320</text>
    <line x1="60" y1="237.5" x2="770" y2="237.5" class="chart-grid" stroke-opacity="0.3" />
    <text x="52" y="241.5" text-anchor="end" class="chart-muted" font-size="11" font-family="-apple-system, BlinkMacSystemFont, 'Segoe UI', Helvetica, Arial, sans-serif">340</text>
    <line x1="60" y1="190.625" x2="770" y2="190.625" class="chart-grid" stroke-opacity="0.3" />
    <text x="52" y="194.625" text-anchor="end" class="chart-muted" font-size="11" font-family="-apple-system, BlinkMacSystemFont, 'Segoe UI', Helvetica, Arial, sans-serif">360</text>
    <line x1="60" y1="143.75" x2="770" y2="143.75" class="chart-grid" stroke-opacity="0.3" />
    <text x="52" y="147.75" text-anchor="end" class="chart-muted" font-size="11" font-family="-apple-system, BlinkMacSystemFont, 'Segoe UI', Helvetica, Arial, sans-serif">380</text>
    <line x1="60" y1="96.875" x2="770" y2="96.875" class="chart-grid" stroke-opacity="0.3" />
    <text x="52" y="100.875" text-anchor="end" class="chart-muted" font-size="11" font-family="-apple-system, BlinkMacSystemFont, 'Segoe UI', Helvetica, Arial, sans-serif">400</text>
    <line x1="60" y1="50" x2="770" y2="50" class="chart-grid" stroke-opacity="0.3" />
    <text x="52" y="54" text-anchor="end" class="chart-muted" font-size="11" font-family="-apple-system, BlinkMacSystemFont, 'Segoe UI', Helvetica, Arial, sans-serif">420</text>
  </g>
  <g class="milestones">
    
  </g>
  <g class="x-axis">
    <text x="60" y="370" text-anchor="middle" class="chart-muted" font-size="11" font-family="-apple-system, BlinkMacSystemFont, 'Segoe UI', Helvetica, Arial, sans-serif">Mar 24</text>
    <text x="138.88888888888889" y="370" text-anchor="middle" class="chart-muted" font-size="11" font-family="-apple-system, BlinkMacSystemFont, 'Segoe UI', Helvetica, Arial, sans-serif">Apr 3</text>
    <text x="217.77777777777777" y="370" text-anchor="middle" class="chart-muted" font-size="11" font-family="-apple-system, BlinkMacSystemFont, 'Segoe UI', Helvetica, Arial, sans-serif">Apr 13</text>
    <text x="296.66666666666663" y="370" text-anchor="middle" class="chart-muted" font-size="11" font-family="-apple-system, BlinkMacSystemFont, 'Segoe UI', Helvetica, Arial, sans-serif">Apr 22</text>
    <text x="375.55555555555554" y="370" text-anchor="middle" class="chart-muted" font-size="11" font-family="-apple-system, BlinkMacSystemFont, 'Segoe UI', Helvetica, Arial, sans-serif">May 2</text>
    <text x="454.44444444444446" y="370" text-anchor="middle" class="chart-muted" font-size="11" font-family="-apple-system, BlinkMacSystemFont, 'Segoe UI', Helvetica, Arial, sans-serif">May 12</text>
    <text x="533.3333333333333" y="370" text-anchor="middle" class="chart-muted" font-size="11" font-family="-apple-system, BlinkMacSystemFont, 'Segoe UI', Helvetica, Arial, sans-serif">May 22</text>
    <text x="612.2222222222223" y="370" text-anchor="middle" class="chart-muted" font-size="11" font-family="-apple-system, BlinkMacSystemFont, 'Segoe UI', Helvetica, Arial, sans-serif">May 31</text>
    <text x="691.1111111111111" y="370" text-anchor="middle" class="chart-muted" font-size="11" font-family="-apple-system, BlinkMacSystemFont, 'Segoe UI', Helvetica, Arial, sans-serif">Jun 10</text>
    <text x="770" y="370" text-anchor="middle" class="chart-muted" font-size="11" font-family="-apple-system, BlinkMacSystemFont, 'Segoe UI', Helvetica, Arial, sans-serif">Jun 20</text>
  </g>
  <line x1="60" y1="50" x2="60" y2="350" class="chart-axis" stroke-width="1" />
  <line x1="60" y1="350" x2="770" y2="350" class="chart-axis" stroke-width="1" />
  <path d="M60,350 L60,326.5625 C73.14814814814815,321.875 86.29629629629629,316.796875 99.44444444444444,312.5 C112.5925925925926,308.203125 125.74074074074073,304.6875 138.88888888888889,300.78125 C152.03703703703704,296.875 165.18518518518516,292.96875 178.33333333333331,289.0625 C191.48148148148147,285.15625 204.62962962962962,281.640625 217.77777777777777,277.34375 C230.92592592592592,273.046875 244.07407407407408,267.578125 257.22222222222223,263.28125 C270.3703703703704,258.984375 283.5185185185185,255.46875 296.66666666666663,251.5625 C309.8148148148148,247.65625 322.962962962963,244.140625 336.11111111111114,239.84375 C349.2592592592593,235.546875 362.4074074074074,230.078125 375.55555555555554,225.78125 C388.7037037037037,221.484375 401.85185185185185,218.359375 415,214.0625 C428.14814814814815,209.765625 441.2962962962963,204.296875 454.44444444444446,200 C467.5925925925926,195.703125 480.74074074074076,192.1875 493.8888888888889,188.28125 C507.037037037037,184.375 520.1851851851851,180.859375 533.3333333333333,176.5625 C546.4814814814814,172.265625 559.6296296296296,167.1875 572.7777777777777,162.5 C585.9259259259259,157.8125 599.0740740740741,152.734375 612.2222222222223,148.4375 C625.3703703703704,144.140625 638.5185185185186,141.015625 651.6666666666667,136.71875 C664.8148148148149,132.421875 677.9629629629629,126.953125 691.1111111111111,122.65625 C704.2592592592592,118.35937499999999 717.4074074074074,115.234375 730.5555555555555,110.9375 C743.7037037037037,106.640625 756.8518518518518,101.5625 770,96.875 L770,350 L60,350 Z" fill="#dfb317" fill-opacity="0.1" />
  <path d="M60,350 L60,326.5625 C73.14814814814815,321.875 86.29629629629629,316.796875 99.44444444444444,312.5 C112.5925925925926,308.203125 125.74074074074073,304.6875 138.88888888888889,300.78125 C152.03703703703704,296.875 165.18518518518516,292.96875 178.33333333333331,289.0625 C191.48148148148147,285.15625 204.62962962962962,281.640625 217.77777777777777,277.34375 C230.92592592592592,273.046875 244.07407407407408,267.578125 257.22222222222223,263.28125 C270.3703703703704,258.984375 283.5185185185185,255.46875 296.66666666666663,251.5625 C309.8148148148148,247.65625 322.962962962963,244.140625 336.11111111111114,239.84375 C349.2592592592593,235.546875 362.4074074074074,230.078125 375.55555555555554,225.78125 C388.7037037037037,221.484375 401.85185185185185,218.359375 415,214.0625 C428.14814814814815,209.765625 441.2962962962963,204.296875 454.44444444444446,200 C467.5925925925926,195.703125 480.74074074074076,192.1875 493.8888888888889,188.28125 C507.037037037037,184.375 520.1851851851851,180.859375 533.3333333333333,176.5625 C546.4814814814814,172.265625 559.6296296296296,167.1875 572.7777777777777,162.5 C585.9259259259259,157.8125 599.0740740740741,152.734375 612.2222222222223,148.4375 C625.3703703703704,144.140625 638.5185185185186,141.015625 651.6666666666667,136.71875 C664.8148148148149,132.421875 677.9629629629629,126.953125 691.1111111111111,122.65625 C704.2592592592592,118.35937499999999 717.4074074074074,115.234375 730.5555555555555,110.9375 C743.7037037037037,106.640625 756.8518518518518,101.5625 770,96.875" fill="none" stroke="#dfb317" stroke-width="2.5" class="data-line-0" />
  <g class="points">
    
    <circle cx="60" cy="326.5625" r="4" fill="#dfb317" class="data-point" style="animation-delay: 1.50s" />
    <circle cx="99.44444444444444" cy="312.5" r="4" fill="#dfb317" class="data-point" style="animation-delay: 1.55s" />
    <circle cx="138.88888888888889" cy="300.78125" r="4" fill="#dfb317" class="data-point" style="animation-delay: 1.60s" />
    <circle cx="178.33333333333331" cy="289.0625" r="4" fill="#dfb317" class="data-point" style="animation-delay: 1.65s" />
    <circle cx="217.77777777777777" cy="277.34375" r="4" fill="#dfb317" class="data-point" style="animation-delay: 1.70s" />
    <circle cx="257.22222222222223" cy="263.28125" r="4" fill="#dfb317" class="data-point" style="animation-delay: 1.75s" />
    <circle cx="296.66666666666663" cy="251.5625" r="4" fill="#dfb317" class="data-point" style="animation-delay: 1.80s" />
    <circle cx="336.11111111111114" cy="239.84375" r="4" fill="#dfb317" class="data-point" style="animation-delay: 1.85s" />
    <circle cx="375.55555555555554" cy="225.78125" r="4" fill="#dfb317" class="data-point" style="animation-delay: 1.90s" />
    <circle cx="415" cy="214.0625" r="4" fill="#dfb317" class="data-point" style="animation-delay: 1.95s" />
    <circle cx="454.44444444444446" cy="200" r="4" fill="#dfb317" class="data-point" style="animation-delay: 2.00s" />
    <circle cx="493.8888888888889" cy="188.28125" r="4" fill="#dfb317" class="data-point" style="animation-delay: 2.05s" />
    <circle cx="533.3333333333333" cy="176.5625" r="4" fill="#dfb317" class="data-point" style="animation-delay: 2.10s" />
    <circle cx="572.7777777777777" cy="162.5" r="4" fill="#dfb317" class="data-point" style="animation-delay: 2.15s" />
    <circle cx="612.2222222222223" cy="148.4375" r="4" fill="#dfb317" class="data-point" style="animation-delay: 2.20s" />
    <circle cx="651.6666666666667" cy="136.71875" r="4" fill="#dfb317" class="data-point" style="animation-delay: 2.25s" />
    <circle cx="691.1111111111111" cy="122.65625" r="4" fill="#dfb317" class="data-point" style="animation-delay: 2.30s" />
    <circle cx="730.5555555555555" cy="110.9375" r="4" fill="#dfb317" class="data-point" style="animation-delay: 2.35s" />
    <circle cx="770" cy="96.875" r="4" fill="#dfb317" class="data-point" style="animation-delay: 2.40s" />
  </g>
</svg>