<svg xmlns="http://www.w3.org/2000/svg" viewBox="0 0 800 400" width="800" height="400">
  <style>
    @keyframes drawLine {
      to { stroke-dashoffset: 0; }
    }
    @keyframes fadeInPoint {
      from { opacity: 0; }
      to { opacity: 1; }
    }
    .data-line-0 {
      stroke-dasharray: 1142;
      stroke-dashoffset: 1142;
      animation: drawLine 2s ease-out forwards;
    }
    .data-point {
      opacity: 0;
      animation: fadeInPoint 0.5s ease-out forwards;
    }
    .chart-bg { fill: #fff; }
    .chart-text { fill: #24292e; }
    .chart-muted { fill: #6a737d; }
    .chart-grid { stroke: #eee; }
    .chart-axis { stroke: #6a737d; }
    @media (prefers-color-scheme: dark) {
      .chart-bg { fill: #0d1117; }
      .chart-text { fill: #e6edf3; }
      .chart-muted { fill: #8b949e; }
      .chart-grid { stroke: #21262d; }
      .chart-axis { stroke: #8b949e; }
    }
  </style>
  <rect width="800" height="400" class="chart-bg" />
  <text x="400" y="14" text-anchor="middle" class="chart-text" font-size="16" font-weight="bold" font-family="-apple-system, BlinkMacSystemFont, 'Segoe UI', Helvetica, Arial, sans-serif"></text>
  
  <g class="grid">
    <line x1="60" y1="350" x2="770" y2="350" class="chart-grid" stroke-opacity="0.3" />
    <text x="52" y="354" text-anchor="end" class="chart-muted" font-size="11" font-family="-apple-system, BlinkMacSystemFont, 'Segoe UI', Helvetica, Arial, sans-serif">0</text>
    <line x1="60" y1="281.8181818181818" x2="770" y2="281.8181818181818" class="chart-grid" stroke-opacity="0.3" />
    <text x="52" y="285.8181818181818" text-anchor="end" class="chart-muted" font-size="11" font-family="-apple-system, BlinkMacSystemFont, 'Segoe UI', Helvetica, Arial, sans-serif">100</text>
    <line x1="60" y1="213.63636363636365" x2="770" y2="213.63636363636365" class="chart-grid" stroke-opacity="0.3" />
    <text x="52" y="217.63636363636365" text-anchor="end" class="chart-muted" font-size="11" font-family="-apple-system, BlinkMacSystemFont, 'Segoe UI', Helvetica, Arial, sans-serif">200</text>
    <line x1="60" y1="145.45454545454547" x2="770" y2="145.45454545454547" class="chart-grid" stroke-opacity="0.3" />
    <text x="52" y="149.45454545454547" text-anchor="end" class="chart-muted" font-size="11" font-family="-apple-system, BlinkMacSystemFont, 'Segoe UI', Helvetica, Arial, sans-serif">300</text>
    <line x1="60" y1="77.27272727272731" x2="770" y2="77.27272727272731" class="chart-grid" stroke-opacity="0.3" />
    <text x="52" y="81.27272727272731" text-anchor="end" class="chart-muted" font-size="11" font-family="-apple-system, BlinkMacSystemFont, 'Segoe UI', Helvetica, Arial, sans-serif">400</text>
  </g>
  <g class="milestones">
    <line x1="60" y1="343.1818181818182" x2="770" y2="343.1818181818182" class="chart-axis" stroke-width="1" stroke-dasharray="6,6" />
    <text x="64" y="339.1818181818182" class="chart-muted" font-size="10" font-family="-apple-system, BlinkMacSystemFont, 'Segoe UI', Helvetica, Arial, sans-serif">10 ★</text>
    <line x1="60" y1="315.90909090909093" x2="770" y2="315.90909090909093" class="chart-axis" stroke-width="1" stroke-dasharray="6,6" />
    <text x="64" y="311.90909090909093" class="chart-muted" font-size="10" font-family="-apple-system, BlinkMacSystemFont, 'Segoe UI', Helvetica, Arial, sans-serif">50 ★</text>
    <line x1="60" y1="281.8181818181818" x2="770" y2="281.8181818181818" class="chart-axis" stroke-width="1" stroke-dasharray="6,6" />
    <text x="64" y="277.8181818181818" class="chart-muted" font-size="10" font-family="-apple-system, BlinkMacSystemFont, 'Segoe UI', Helvetica, Arial, sans-serif">100 ★</text>
  </g>
  <g class="x-axis">
    <text x="60" y="370" text-anchor="middle" class="chart-muted" font-size="11" font-family="-apple-system, BlinkMacSystemFont, 'Segoe UI', Helvetica, Arial, sans-serif">2025</text>
    <text x="448.49056603773585" y="370" text-anchor="middle" class="chart-muted" font-size="11" font-family="-apple-system, BlinkMacSystemFont, 'Segoe UI', Helvetica, Arial, sans-serif">2026</text>
  </g>
  <line x1="60" y1="50" x2="60" y2="350" class="chart-axis" stroke-width="1" />
  <line x1="60" y1="350" x2="770" y2="350" class="chart-axis" stroke-width="1" />
  <path d="M60,350 L60,349.3181818181818 C64.46540880503144,347.72727272727275 68.93081761006289,346.25 73.39622641509433,344.54545454545456 C77.86163522012578,342.8409090909091 82.32704402515724,340.7954545454545 86.79245283018868,339.09090909090907 C91.25786163522012,337.3863636363636 95.72327044025158,336.02272727272725 100.18867924528303,334.3181818181818 C104.65408805031447,332.6136363636364 109.11949685534591,330.5681818181818 113.58490566037736,328.8636363636364 C118.0503144654088,327.15909090909093 122.51572327044026,325.7954545454545 126.9811320754717,324.09090909090907 C131.44654088050316,322.3863636363636 135.9119496855346,320.34090909090907 140.37735849056605,318.6363636363636 C144.8427672955975,316.9318181818182 149.3081761006289,315.5681818181818 153.77358490566036,313.8636363636364 C158.2389937106918,312.15909090909093 162.70440251572327,310.1136363636363 167.16981132075472,308.4090909090909 C171.63522012578616,306.70454545454544 176.1006289308176,305.34090909090907 180.56603773584905,303.6363636363636 C185.0314465408805,301.9318181818182 189.49685534591197,300 193.9622641509434,298.1818181818182 C198.42767295597486,296.3636363636364 202.8930817610063,294.4318181818182 207.35849056603774,292.72727272727275 C211.8238993710692,291.0227272727273 216.28930817610063,289.6590909090909 220.75471698113208,287.95454545454544 C225.22012578616352,286.25 229.68553459119497,284.20454545454544 234.1509433962264,282.5 C238.61635220125785,280.79545454545456 243.0817610062893,279.4318181818182 247.54716981132074,277.72727272727275 C252.0125786163522,276.0227272727273 256.47798742138366,273.9772727272727 260.9433962264151,272.27272727272725 C265.40880503144655,270.5681818181818 269.87421383647796,269.20454545454544 274.33962264150944,267.5 C278.8050314465409,265.79545454545456 283.2704402515723,263.75 287.7358490566038,262.04545454545456 C292.2012578616352,260.3409090909091 296.6666666666667,258.9772727272727 301.1320754716981,257.27272727272725 C305.5974842767295,255.56818181818178 310.062893081761,253.52272727272725 314.5283018867924,251.8181818181818 C318.9937106918239,250.11363636363635 323.45911949685535,248.75000000000003 327.9245283018868,247.04545454545456 C332.38993710691824,245.34090909090912 336.8553459119497,243.40909090909088 341.3207547169811,241.59090909090907 C345.7861635220126,239.77272727272725 350.251572327044,237.84090909090907 354.7169811320755,236.13636363636363 C359.18238993710696,234.4318181818182 363.6477987421384,233.06818181818184 368.11320754716985,231.36363636363637 C372.57861635220127,229.65909090909093 377.04402515723274,227.61363636363637 381.50943396226415,225.9090909090909 C385.9748427672956,224.20454545454544 390.44025157232704,222.8409090909091 394.9056603773585,221.13636363636363 C399.37106918238993,219.4318181818182 403.8364779874214,217.38636363636363 408.3018867924528,215.6818181818182 C412.7672955974843,213.97727272727272 417.2327044025157,212.61363636363637 421.6981132075472,210.9090909090909 C426.1635220125786,209.20454545454547 430.62893081761007,207.1590909090909 435.0943396226415,205.45454545454547 C439.55974842767296,203.75 444.0251572327044,202.38636363636365 448.49056603773585,200.6818181818182 C452.95597484276726,198.97727272727275 457.42138364779873,196.93181818181822 461.88679245283015,195.22727272727275 C466.3522012578616,193.52272727272728 470.81761006289304,192.1590909090909 475.2830188679245,190.45454545454544 C479.748427672956,188.74999999999997 484.2138364779874,186.8181818181818 488.6792452830189,185 C493.1446540880503,183.1818181818182 497.61006289308176,181.24999999999997 502.0754716981132,179.54545454545453 C506.54088050314465,177.84090909090907 511.0062893081761,176.47727272727275 515.4716981132076,174.77272727272728 C519.937106918239,173.06818181818184 524.4025157232704,171.02272727272725 528.8679245283018,169.3181818181818 C533.3333333333333,167.61363636363635 537.7987421383648,166.25000000000003 542.2641509433962,164.54545454545456 C546.7295597484276,162.84090909090912 551.194968553459,160.79545454545453 555.6603773584905,159.0909090909091 C560.1257861635219,157.38636363636363 564.5911949685534,156.0227272727273 569.0566037735848,154.31818181818184 C573.5220125786162,152.61363636363637 577.9874213836478,150.5681818181818 582.4528301886792,148.86363636363637 C586.9182389937107,147.1590909090909 591.3836477987421,145.79545454545456 595.8490566037736,144.0909090909091 C600.3144654088051,142.38636363636365 604.7798742138366,140.3409090909091 609.245283018868,138.63636363636363 C613.7106918238994,136.9318181818182 618.1761006289308,135.5681818181818 622.6415094339623,133.86363636363637 C627.1069182389937,132.1590909090909 631.5723270440252,130.22727272727272 636.0377358490566,128.4090909090909 C640.503144654088,126.59090909090908 644.9685534591196,124.65909090909089 649.433962264151,122.95454545454544 C653.8993710691824,121.24999999999999 658.3647798742139,119.88636363636364 662.8301886792453,118.18181818181819 C667.2955974842768,116.47727272727273 671.7610062893083,114.43181818181817 676.2264150943397,112.72727272727272 C680.6918238993711,111.02272727272728 685.1572327044025,109.6590909090909 689.622641509434,107.95454545454547 C694.0880503144654,106.25000000000001 698.5534591194969,104.20454545454545 703.0188679245283,102.5 C707.4842767295597,100.79545454545455 711.9496855345913,99.43181818181817 716.4150943396227,97.72727272727272 C720.8805031446541,96.02272727272727 725.3459119496856,93.9772727272727 729.811320754717,92.27272727272725 C734.2767295597484,90.56818181818181 738.7421383647799,89.20454545454544 743.2075471698113,87.5 C747.6729559748427,85.79545454545455 752.1383647798742,83.75000000000001 756.6037735849056,82.04545454545456 C761.069182389937,80.34090909090911 765.5345911949686,78.86363636363639 770,77.27272727272731 L770,350 L60,350 Z" fill="#dfb317" fill-opacity="0.1" />
  <path d="M60,350 L60,349.3181818181818 C64.46540880503144,347.72727272727275 68.93081761006289,346.25 73.39622641509433,344.54545454545456 C77.86163522012578,342.8409090909091 82.32704402515724,340.7954545454545 86.79245283018868,339.09090909090907 C91.25786163522012,337.3863636363636 95.72327044025158,336.02272727272725 100.18867924528303,334.3181818181818 C104.65408805031447,332.6136363636364 109.11949685534591,330.5681818181818 113.58490566037736,328.8636363636364 C118.0503144654088,327.15909090909093 122.51572327044026,325.7954545454545 126.9811320754717,324.09090909090907 C131.44654088050316,322.3863636363636 135.9119496855346,320.34090909090907 140.37735849056605,318.6363636363636 C144.8427672955975,316.9318181818182 149.3081761006289,315.5681818181818 153.77358490566036,313.8636363636364 C158.2389937106918,312.15909090909093 162.70440251572327,310.1136363636363 167.16981132075472,308.4090909090909 C171.63522012578616,306.70454545454544 176.1006289308176,305.34090909090907 180.56603773584905,303.6363636363636 C185.0314465408805,301.9318181818182 189.49685534591197,300 193.9622641509434,298.1818181818182 C198.42767295597486,296.3636363636364 202.8930817610063,294.4318181818182 207.35849056603774,292.72727272727275 C211.8238993710692,291.0227272727273 216.28930817610063,289.6590909090909 220.75471698113208,287.95454545454544 C225.22012578616352,286.25 229.68553459119497,284.20454545454544 234.1509433962264,282.5 C238.61635220125785,280.79545454545456 243.0817610062893,279.4318181818182 247.54716981132074,277.72727272727275 C252.0125786163522,276.0227272727273 256.47798742138366,273.9772727272727 260.9433962264151,272.27272727272725 C265.40880503144655,270.5681818181818 269.87421383647796,269.20454545454544 274.33962264150944,267.5 C278.8050314465409,265.79545454545456 283.2704402515723,263.75 287.7358490566038,262.04545454545456 C292.2012578616352,260.3409090909091 296.6666666666667,258.9772727272727 301.1320754716981,257.27272727272725 C305.5974842767295,255.56818181818178 310.062893081761,253.52272727272725 314.5283018867924,251.8181818181818 C318.9937106918239,250.11363636363635 323.45911949685535,248.75000000000003 327.9245283018868,247.04545454545456 C332.38993710691824,245.34090909090912 336.8553459119497,243.40909090909088 341.3207547169811,241.59090909090907 C345.7861635220126,239.77272727272725 350.251572327044,237.84090909090907 354.7169811320755,236.13636363636363 C359.18238993710696,234.4318181818182 363.6477987421384,233.06818181818184 368.11320754716985,231.36363636363637 C372.57861635220127,229.65909090909093 377.04402515723274,227.61363636363637 381.50943396226415,225.9090909090909 C385.9748427672956,224.20454545454544 390.44025157232704,222.8409090909091 394.9056603773585,221.13636363636363 C399.37106918238993,219.4318181818182 403.8364779874214,217.38636363636363 408.3018867924528,215.6818181818182 C412.7672955974843,213.97727272727272 417.2327044025157,212.61363636363637 421.6981132075472,210.9090909090909 C426.1635220125786,209.20454545454547 430.62893081761007,207.1590909090909 435.0943396226415,205.45454545454547 C439.55974842767296,203.75 444.0251572327044,202.38636363636365 448.49056603773585,200.6818181818182 C452.95597484276726,198.97727272727275 457.42138364779873,196.93181818181822 461.88679245283015,195.22727272727275 C466.3522012578616,193.52272727272728 470.81761006289304,192.1590909090909 475.2830188679245,190.45454545454544 C479.748427672956,188.74999999999997 484.2138364779874,186.8181818181818 488.6792452830189,185 C493.1446540880503,183.1818181818182 497.61006289308176,181.24999999999997 502.0754716981132,179.54545454545453 C506.54088050314465,177.84090909090907 511.0062893081761,176.47727272727275 515.4716981132076,174.77272727272728 C519.937106918239,173.06818181818184 524.4025157232704,171.02272727272725 528.8679245283018,169.3181818181818 C533.3333333333333,167.61363636363635 537.7987421383648,166.25000000000003 542.2641509433962,164.54545454545456 C546.7295597484276,162.84090909090912 551.194968553459,160.79545454545453 555.6603773584905,159.0909090909091 C560.1257861635219,157.38636363636363 564.5911949685534,156.0227272727273 569.0566037735848,154.31818181818184 C573.5220125786162,152.61363636363637 577.9874213836478,150.5681818181818 582.4528301886792,148.86363636363637 C586.9182389937107,147.1590909090909 591.3836477987421,145.79545454545456 595.8490566037736,144.0909090909091 C600.3144654088051,142.38636363636365 604.7798742138366,140.3409090909091 609.245283018868,138.63636363636363 C613.7106918238994,136.9318181818182 618.1761006289308,135.5681818181818 622.6415094339623,133.86363636363637 C627.1069182389937,132.1590909090909 631.5723270440252,130.22727272727272 636.0377358490566,128.4090909090909 C640.503144654088,126.59090909090908 644.9685534591196,124.65909090909089 649.433962264151,122.95454545454544 C653.8993710691824,121.24999999999999 658.3647798742139,119.88636363636364 662.8301886792453,118.18181818181819 C667.2955974842768,116.47727272727273 671.7610062893083,114.43181818181817 676.2264150943397,112.72727272727272 C680.6918238993711,111.02272727272728 685.1572327044025,109.6590909090909 689.622641509434,107.95454545454547 C694.0880503144654,106.25000000000001 698.5534591194969,104.20454545454545 703.0188679245283,102.5 C707.4842767295597,100.79545454545455 711.9496855345913,99.43181818181817 716.4150943396227,97.72727272727272 C720.8805031446541,96.02272727272727 725.3459119496856,93.9772727272727 729.811320754717,92.27272727272725 C734.2767295597484,90.56818181818181 738.7421383647799,89.20454545454544 743.2075471698113,87.5 C747.6729559748427,85.79545454545455 752.1383647798742,83.75000000000001 756.6037735849056,82.04545454545456 C761.069182389937,80.34090909090911 765.5345911949686,78.86363636363639 770,77.27272727272731" fill="none" stroke="#dfb317" stroke-width="2.5" class="data-line-0" />
  <g class="points">
    
    <circle cx="60" cy="349.3181818181818" r="4" fill="#dfb317" class="data-point" style="animation-delay: 1.50s" />
    <circle cx="73.39622641509433" cy="344.54545454545456" r="4" fill="#dfb317" class="data-point" style="animation-delay: 1.55s" />
    <circle cx="86.79245283018868" cy="339.09090909090907" r="4" fill="#dfb317" class="data-point" style="animation-delay: 1.60s" />
    <circle cx="100.18867924528303" cy="334.3181818181818" r="4" fill="#dfb317" class="data-point" style="animation-delay: 1.65s" />
    <circle cx="113.58490566037736" cy="328.8636363636364" r="4" fill="#dfb317" class="data-point" style="animation-delay: 1.70s" />
    <circle cx="126.9811320754717" cy="324.09090909090907" r="4" fill="#dfb317" class="data-point" style="animation-delay: 1.75s" />
    <circle cx="140.37735849056605" cy="318.6363636363636" r="4" fill="#dfb317" class="data-point" style="animation-delay: 1.80s" />
    <circle cx="153.77358490566036" cy="313.8636363636364" r="4" fill="#dfb317" class="data-point" style="animation-delay: 1.85s" />
    <circle cx="167.16981132075472" cy="308.4090909090909" r="4" fill="#dfb317" class="data-point" style="animation-delay: 1.90s" />
    <circle cx="180.56603773584905" cy="303.6363636363636" r="4" fill="#dfb317" class="data-point" style="animation-delay: 1.95s" />
    <circle cx="193.9622641509434" cy="298.1818181818182" r="4" fill="#dfb317" class="data-point" style="animation-delay: 2.00s" />
    <circle cx="207.35849056603774" cy="292.72727272727275" r="4" fill="#dfb317" class="data-point" style="animation-delay: 2.05s" />
    <circle cx="220.75471698113208" cy="287.95454545454544" r="4" fill="#dfb317" class="data-point" style="animation-delay: 2.10s" />
    <circle cx="234.1509433962264" cy="282.5" r="4" fill="#dfb317" class="data-point" style="animation-delay: 2.15s" />
    <circle cx="247.54716981132074" cy="277.72727272727275" r="4" fill="#dfb317" class="data-point" style="animation-delay: 2.20s" />
    <circle cx="260.9433962264151" cy="272.27272727272725" r="4" fill="#dfb317" class="data-point" style="animation-delay: 2.25s" />
    <circle cx="274.33962264150944" cy="267.5" r="4" fill="#dfb317" class="data-point" style="animation-delay: 2.30s" />
    <circle cx="287.7358490566038" cy="262.04545454545456" r="4" fill="#dfb317" class="data-point" style="animation-delay: 2.35s" />
    <circle cx="301.1320754716981" cy="257.27272727272725" r="4" fill="#dfb317" class="data-point" style="animation-delay: 2.40s" />
    <circle cx="314.5283018867924" cy="251.8181818181818" r="4" fill="#dfb317" class="data-point" style="animation-delay: 2.45s" />
    <circle cx="327.9245283018868" cy="247.04545454545456" r="4" fill="#dfb317" class="data-point" style="animation-delay: 2.50s" />
    <circle cx="341.3207547169811" cy="241.59090909090907" r="4" fill="#dfb317" class="data-point" style="animation-delay: 2.55s" />
    <circle cx="354.7169811320755" cy="236.13636363636363" r="4" fill="#dfb317" class="data-point" style="animation-delay: 2.60s" />
    <circle cx="368.11320754716985" cy="231.36363636363637" r="4" fill="#dfb317" class="data-point" style="animation-delay: 2.65s" />
    <circle cx="381.50943396226415" cy="225.9090909090909" r="4" fill="#dfb317" class="data-point" style="animation-delay: 2.70s" />
    <circle cx="394.9056603773585" cy="221.13636363636363" r="4" fill="#dfb317" class="data-point" style="animation-delay: 2.75s" />
    <circle cx="408.3018867924528" cy="215.6818181818182" r="4" fill="#dfb317" class="data-point" style="animation-delay: 2.80s" />
    <circle cx="421.6981132075472" cy="210.9090909090909" r="4" fill="#dfb317" class="data-point" style="animation-delay: 2.85s" />
    <circle cx="435.0943396226415" cy="205.45454545454547" r="4" fill="#dfb317" class="data-point" style="animation-delay: 2.90s" />
    <circle cx="448.49056603773585" cy="200.6818181818182" r="4" fill="#dfb317" class="data-point" style="animation-delay: 2.95s" />
    <circle cx="461.88679245283015" cy="195.22727272727275" r="4" fill="#dfb317" class="data-point" style="animation-delay: 3.00s" />
    <circle cx="475.2830188679245" cy="190.45454545454544" r="4" fill="#dfb317" class="data-point" style="animation-delay: 3.05s" />
    <circle cx="488.6792452830189" cy="185" r="4" fill="#dfb317" class="data-point" style="animation-delay: 3.10s" />
    <circle cx="502.0754716981132" cy="179.54545454545453" r="4" fill="#dfb317" class="data-point" style="animation-delay: 3.15s" />
    <circle cx="515.4716981132076" cy="174.77272727272728" r="4" fill="#dfb317" class="data-point" style="animation-delay: 3.20s" />
    <circle cx="528.8679245283018" cy="169.3181818181818" r="4" fill="#dfb317" class="data-point" style="animation-delay: 3.25s" />
    <circle cx="542.2641509433962" cy="164.54545454545456" r="4" fill="#dfb317" class="data-point" style="animation-delay: 3.30s" />
    <circle cx="555.6603773584905" cy="159.0909090909091" r="4" fill="#dfb317" class="data-point" style="animation-delay: 3.35s" />
    <circle cx="569.0566037735848" cy="154.31818181818184" r="4" fill="#dfb317" class="data-point" style="animation-delay: 3.40s" />
    <circle cx="582.4528301886792" cy="148.86363636363637" r="4" fill="#dfb317" class="data-point" style="animation-delay: 3.45s" />
    <circle cx="595.8490566037736" cy="144.0909090909091" r="4" fill="#dfb317" class="data-point" style="animation-delay: 3.50s" />
    <circle cx="609.245283018868" cy="138.63636363636363" r="4" fill="#dfb317" class="data-point" style="animation-delay: 3.55s" />
    <circle cx="622.6415094339623" cy="133.86363636363637" r="4" fill="#dfb317" class="data-point" style="animation-delay: 3.60s" />
    <circle cx="636.0377358490566" cy="128.4090909090909" r="4" fill="#dfb317" class="data-point" style="animation-delay: 3.65s" />
    <circle cx="649.433962264151" cy="122.95454545454544" r="4" fill="#dfb317" class="data-point" style="animation-delay: 3.70s" />
    <circle cx="662.8301886792453" cy="118.18181818181819" r="4" fill="#dfb317" class="data-point" style="animation-delay: 3.75s" />
    <circle cx="676.2264150943397" cy="112.72727272727272" r="4" fill="#dfb317" class="data-point" style="animation-delay: 3.80s" />
    <circle cx="689.622641509434" cy="107.95454545454547" r="4" fill="#dfb317" class="data-point" style="animation-delay: 3.85s" />
    <circle cx="703.0188679245283" cy="102.5" r="4" fill="#dfb317" class="data-point" style="animation-delay: 3.90s" />
    <circle cx="716.4150943396227" cy="97.72727272727272" r="4" fill="#dfb317" class="data-point" style="animation-delay: 3.95s" />
    <circle cx="729.811320754717" cy="92.27272727272725" r="4" fill="#dfb317" class="data-point" style="animation-delay: 4.00s" />
    <circle cx="743.2075471698113" cy="87.5" r="4" fill="#dfb317" class="data-point" style="animation-delay: 4.05s" />
    <circle cx="756.6037735849056" cy="82.04545454545456" r="4" fill="#dfb317" class="data-point" style="animation-delay: 4.10s" />
    <circle cx="770" cy="77.27272727272731" r="4" fill="#dfb317" class="data-point" style="animation-delay: 4.15s" />
  </g>
</svg>