<svg xmlns="http://www.w3.org/2000/svg" viewBox="0 0 800 400" width="800" height="400">
  <style>
    @keyframes drawLine {
      to { stroke-dashoffset: 0; }
    }
    @keyframes fadeInPoint {
      from { opacity: 0; }
      to { opacity: 1; }
    }
    .data-line-0 {
      stroke-dasharray: 1175;
      stroke-dashoffset: 1175;
      animation: drawLine 2s ease-out forwards;
    }
    .data-point {
      opacity: 0;
      animation: fadeInPoint 0.5s ease-out forwards;
    }
    .chart-bg { fill: #fff; }
    .chart-text { fill: #24292e; }
    .chart-muted { fill: #6a737d; }
    .chart-grid { stroke: #eee; }
    .chart-axis { stroke: #6a737d; }
    @media (prefers-color-scheme: dark) {
      .chart-bg { fill: #0d1117; }
      .chart-text { fill: #e6edf3; }
      .chart-muted { fill: #8b949e; }
      .chart-grid { stroke: #21262d; }
      .chart-axis { stroke: #8b949e; }
    }
  </style>
  <rect width="800" height="400" class="chart-bg" />
  <text x="400" y="14" text-anchor="middle" class="chart-text" font-size="16" font-weight="bold" font-family="-apple-system, BlinkMacSystemFont, 'Segoe UI', Helvetica, Arial, sans-serif"></text>
  
  <g class="grid">
    <line x1="60" y1="328.6377708978328" x2="770" y2="328.6377708978328" class="chart-grid" stroke-opacity="0.3" />
    <text x="52" y="332.6377708978328" text-anchor="end" class="chart-muted" font-size="11" font-family="-apple-system, BlinkMacSystemFont, 'Segoe UI', Helvetica, Arial, sans-serif">50</text>
    <line x1="60" y1="282.1981424148607" x2="770" y2="282.1981424148607" class="chart-grid" stroke-opacity="0.3" />
    <text x="52" y="286.1981424148607" text-anchor="end" class="chart-muted" font-size="11" font-family="-apple-system, BlinkMacSystemFont, 'Segoe UI', Helvetica, Arial, sans-serif">100</text>
    <line x1="60" y1="235.75851393188856" x2="770" y2="235.75851393188856" class="chart-grid" stroke-opacity="0.3" />
    <text x="52" y="239.75851393188856" text-anchor="end" class="chart-muted" font-size="11" font-family="-apple-system, BlinkMacSystemFont, 'Segoe UI', Helvetica, Arial, sans-serif">150</text>
    <line x1="60" y1="189.31888544891643" x2="770" y2="189.31888544891643" class="chart-grid" stroke-opacity="0.3" />
    <text x="52" y="193.31888544891643" text-anchor="end" class="chart-muted" font-size="11" font-family="-apple-system, BlinkMacSystemFont, 'Segoe UI', Helvetica, Arial, sans-serif">200</text>
    <line x1="60" y1="142.87925696594428" x2="770" y2="142.87925696594428" class="chart-grid" stroke-opacity="0.3" />
    <text x="52" y="146.87925696594428" text-anchor="end" class="chart-muted" font-size="11" font-family="-apple-system, BlinkMacSystemFont, 'Segoe UI', Helvetica, Arial, sans-serif">250</text>
    <line x1="60" y1="96.43962848297213" x2="770" y2="96.43962848297213" class="chart-grid" stroke-opacity="0.3" />
    <text x="52" y="100.43962848297213" text-anchor="end" class="chart-muted" font-size="11" font-family="-apple-system, BlinkMacSystemFont, 'Segoe UI', Helvetica, Arial, sans-serif">300</text>
    <line x1="60" y1="50" x2="770" y2="50" class="chart-grid" stroke-opacity="0.3" />
    <text x="52" y="54" text-anchor="end" class="chart-muted" font-size="11" font-family="-apple-system, BlinkMacSystemFont, 'Segoe UI', Helvetica, Arial, sans-serif">350</text>
  </g>
  <g class="milestones">
    
  </g>
  <g class="x-axis">
    <text x="60" y="370" text-anchor="middle" class="chart-muted" font-size="11" font-family="-apple-system, BlinkMacSystemFont, 'Segoe UI', Helvetica, Arial, sans-serif">Mar 1</text>
    <text x="134.73684210526315" y="370" text-anchor="middle" class="chart-muted" font-size="11" font-family="-apple-system, BlinkMacSystemFont, 'Segoe UI', Helvetica, Arial, sans-serif">Mar 9</text>
    <text x="209.4736842105263" y="370" text-anchor="middle" class="chart-muted" font-size="11" font-family="-apple-system, BlinkMacSystemFont, 'Segoe UI', Helvetica, Arial, sans-serif">Mar 17</text>
    <text x="284.2105263157895" y="370" text-anchor="middle" class="chart-muted" font-size="11" font-family="-apple-system, BlinkMacSystemFont, 'Segoe UI', Helvetica, Arial, sans-serif">Mar 25</text>
    <text x="358.9473684210526" y="370" text-anchor="middle" class="chart-muted" font-size="11" font-family="-apple-system, BlinkMacSystemFont, 'Segoe UI', Helvetica, Arial, sans-serif">Apr 2</text>
    <text x="433.6842105263158" y="370" text-anchor="middle" class="chart-muted" font-size="11" font-family="-apple-system, BlinkMacSystemFont, 'Segoe UI', Helvetica, Arial, sans-serif">Apr 10</text>
    <text x="508.4210526315789" y="370" text-anchor="middle" class="chart-muted" font-size="11" font-family="-apple-system, BlinkMacSystemFont, 'Segoe UI', Helvetica, Arial, sans-serif">Apr 18</text>
    <text x="583.1578947368421" y="370" text-anchor="middle" class="chart-muted" font-size="11" font-family="-apple-system, BlinkMacSystemFont, 'Segoe UI', Helvetica, Arial, sans-serif">Apr 26</text>
    <text x="657.8947368421052" y="370" text-anchor="middle" class="chart-muted" font-size="11" font-family="-apple-system, BlinkMacSystemFont, 'Segoe UI', Helvetica, Arial, sans-serif">May 4</text>
    <text x="732.6315789473684" y="370" text-anchor="middle" class="chart-muted" font-size="11" font-family="-apple-system, BlinkMacSystemFont, 'Segoe UI', Helvetica, Arial, sans-serif">May 12</text>
    <text x="770" y="370" text-anchor="middle" class="chart-muted" font-size="11" font-family="-apple-system, BlinkMacSystemFont, 'Segoe UI', Helvetica, Arial, sans-serif">May 16</text>
  </g>
  <line x1="60" y1="50" x2="60" y2="350" class="chart-axis" stroke-width="1" />
  <line x1="60" y1="350" x2="770" y2="350" class="chart-axis" stroke-width="1" />
  <path d="M60,350 L60,326.78018575851394 C72.45614035087719,324.92260061919507 84.91228070175438,322.6006191950464 97.36842105263158,321.20743034055727 C109.82456140350877,319.8142414860681 122.28070175438596,320.27863777089783 134.73684210526315,318.42105263157896 C147.19298245614036,316.5634674922601 159.64912280701753,312.0743034055728 172.10526315789474,310.061919504644 C184.56140350877192,308.0495356037152 197.01754385964912,307.73993808049534 209.4736842105263,306.3467492260062 C221.9298245614035,304.953560371517 234.38596491228068,304.1795665634675 246.8421052631579,301.702786377709 C259.29824561403507,299.2260061919505 271.7543859649123,294.11764705882354 284.2105263157895,291.4860681114551 C296.6666666666667,288.85448916408666 309.12280701754383,287.6160990712075 321.57894736842104,285.9133126934985 C334.03508771929825,284.2105263157895 346.4912280701754,284.6749226006192 358.9473684210526,281.26934984520125 C371.4035087719298,277.8637770897833 383.859649122807,271.5170278637771 396.3157894736842,265.4798761609907 C408.7719298245614,259.44272445820434 421.2280701754386,250.1547987616099 433.6842105263158,245.04643962848297 C446.140350877193,239.93808049535602 458.5964912280702,237.92569659442725 471.0526315789474,234.82972136222912 C483.50877192982455,231.733746130031 495.96491228070175,230.3405572755418 508.4210526315789,226.47058823529414 C520.8771929824561,222.60061919504645 533.3333333333333,216.25386996904027 545.7894736842105,211.60990712074303 C558.2456140350877,206.96594427244582 570.7017543859649,203.09597523219813 583.1578947368421,198.60681114551082 C595.6140350877192,194.1176470588235 608.0701754385965,188.08049535603715 620.5263157894736,184.6749226006192 C632.9824561403508,181.26934984520125 645.438596491228,183.59133126934987 657.8947368421052,178.17337461300312 C670.3508771929825,172.75541795665637 682.8070175438596,160.83591331269355 695.2631578947369,152.16718266253872 C707.719298245614,143.49845201238392 720.1754385964913,135.44891640866877 732.6315789473684,126.16099071207432 C745.0877192982456,116.8730650154799 757.5438596491229,106.3467492260062 770,96.43962848297213 L770,350 L60,350 Z" fill="#dfb317" fill-opacity="0.1" />
  <path d="M60,350 L60,326.78018575851394 C72.45614035087719,324.92260061919507 84.91228070175438,322.6006191950464 97.36842105263158,321.20743034055727 C109.82456140350877,319.8142414860681 122.28070175438596,320.27863777089783 134.73684210526315,318.42105263157896 C147.19298245614036,316.5634674922601 159.64912280701753,312.0743034055728 172.10526315789474,310.061919504644 C184.56140350877192,308.0495356037152 197.01754385964912,307.73993808049534 209.4736842105263,306.3467492260062 C221.9298245614035,304.953560371517 234.38596491228068,304.1795665634675 246.8421052631579,301.702786377709 C259.29824561403507,299.2260061919505 271.7543859649123,294.11764705882354 284.2105263157895,291.4860681114551 C296.6666666666667,288.85448916408666 309.12280701754383,287.6160990712075 321.57894736842104,285.9133126934985 C334.03508771929825,284.2105263157895 346.4912280701754,284.6749226006192 358.9473684210526,281.26934984520125 C371.4035087719298,277.8637770897833 383.859649122807,271.5170278637771 396.3157894736842,265.4798761609907 C408.7719298245614,259.44272445820434 421.2280701754386,250.1547987616099 433.6842105263158,245.04643962848297 C446.140350877193,239.93808049535602 458.5964912280702,237.92569659442725 471.0526315789474,234.82972136222912 C483.50877192982455,231.733746130031 495.96491228070175,230.3405572755418 508.4210526315789,226.47058823529414 C520.8771929824561,222.60061919504645 533.3333333333333,216.25386996904027 545.7894736842105,211.60990712074303 C558.2456140350877,206.96594427244582 570.7017543859649,203.09597523219813 583.1578947368421,198.60681114551082 C595.6140350877192,194.1176470588235 608.0701754385965,188.08049535603715 620.5263157894736,184.6749226006192 C632.9824561403508,181.26934984520125 645.438596491228,183.59133126934987 657.8947368421052,178.17337461300312 C670.3508771929825,172.75541795665637 682.8070175438596,160.83591331269355 695.2631578947369,152.16718266253872 C707.719298245614,143.49845201238392 720.1754385964913,135.44891640866877 732.6315789473684,126.16099071207432 C745.0877192982456,116.8730650154799 757.5438596491229,106.3467492260062 770,96.43962848297213" fill="none" stroke="#dfb317" stroke-width="2.5" class="data-line-0" />
  <g class="points">
    
    <circle cx="60" cy="326.78018575851394" r="4" fill="#dfb317" class="data-point" style="animation-delay: 1.50s" />
    <circle cx="97.36842105263158" cy="321.20743034055727" r="4" fill="#dfb317" class="data-point" style="animation-delay: 1.55s" />
    <circle cx="134.73684210526315" cy="318.42105263157896" r="4" fill="#dfb317" class="data-point" style="animation-delay: 1.60s" />
    <circle cx="172.10526315789474" cy="310.061919504644" r="4" fill="#dfb317" class="data-point" style="animation-delay: 1.65s" />
    <circle cx="209.4736842105263" cy="306.3467492260062" r="4" fill="#dfb317" class="data-point" style="animation-delay: 1.70s" />
    <circle cx="246.8421052631579" cy="301.702786377709" r="4" fill="#dfb317" class="data-point" style="animation-delay: 1.75s" />
    <circle cx="284.2105263157895" cy="291.4860681114551" r="4" fill="#dfb317" class="data-point" style="animation-delay: 1.80s" />
    <circle cx="321.57894736842104" cy="285.9133126934985" r="4" fill="#dfb317" class="data-point" style="animation-delay: 1.85s" />
    <circle cx="358.9473684210526" cy="281.26934984520125" r="4" fill="#dfb317" class="data-point" style="animation-delay: 1.90s" />
    <circle cx="396.3157894736842" cy="265.4798761609907" r="4" fill="#dfb317" class="data-point" style="animation-delay: 1.95s" />
    <circle cx="433.6842105263158" cy="245.04643962848297" r="4" fill="#dfb317" class="data-point" style="animation-delay: 2.00s" />
    <circle cx="471.0526315789474" cy="234.82972136222912" r="4" fill="#dfb317" class="data-point" style="animation-delay: 2.05s" />
    <circle cx="508.4210526315789" cy="226.47058823529414" r="4" fill="#dfb317" class="data-point" style="animation-delay: 2.10s" />
    <circle cx="545.7894736842105" cy="211.60990712074303" r="4" fill="#dfb317" class="data-point" style="animation-delay: 2.15s" />
    <circle cx="583.1578947368421" cy="198.60681114551082" r="4" fill="#dfb317" class="data-point" style="animation-delay: 2.20s" />
    <circle cx="620.5263157894736" cy="184.6749226006192" r="4" fill="#dfb317" class="data-point" style="animation-delay: 2.25s" />
    <circle cx="657.8947368421052" cy="178.17337461300312" r="4" fill="#dfb317" class="data-point" style="animation-delay: 2.30s" />
    <circle cx="695.2631578947369" cy="152.16718266253872" r="4" fill="#dfb317" class="data-point" style="animation-delay: 2.35s" />
    <circle cx="732.6315789473684" cy="126.16099071207432" r="4" fill="#dfb317" class="data-point" style="animation-delay: 2.40s" />
    <circle cx="770" cy="96.43962848297213" r="4" fill="#dfb317" class="data-point" style="animation-delay: 2.45s" />
  </g>
</svg>