<svg xmlns="http://www.w3.org/2000/svg" viewBox="0 0 800 400" width="800" height="400">
  <style>
    @keyframes drawLine {
      to { stroke-dashoffset: 0; }
    }
    @keyframes fadeInPoint {
      from { opacity: 0; }
      to { opacity: 1; }
    }
    .data-line-0 {
      stroke-dasharray: 1168;
      stroke-dashoffset: 1168;
      animation: drawLine 2s ease-out forwards;
    }
    .data-point {
      opacity: 0;
      animation: fadeInPoint 0.5s ease-out forwards;
    }
    .chart-bg { fill: #fff; }
    .chart-text { fill: #24292e; }
    .chart-muted { fill: #6a737d; }
    .chart-grid { stroke: #eee; }
    .chart-axis { stroke: #6a737d; }
    @media (prefers-color-scheme: dark) {
      .chart-bg { fill: #0d1117; }
      .chart-text { fill: #e6edf3; }
      .chart-muted { fill: #8b949e; }
      .chart-grid { stroke: #21262d; }
      .chart-axis { stroke: #8b949e; }
    }
  </style>
  <rect width="800" height="400" class="chart-bg" />
  <text x="400" y="14" text-anchor="middle" class="chart-text" font-size="16" font-weight="bold" font-family="-apple-system, BlinkMacSystemFont, 'Segoe UI', Helvetica, Arial, sans-serif">Last year (chart-range: 1y)</text>
  
  <g class="grid">
    <line x1="60" y1="319.18918918918916" x2="770" y2="319.18918918918916" class="chart-grid" stroke-opacity="0.3" />
    <text x="52" y="323.18918918918916" text-anchor="end" class="chart-muted" font-size="11" font-family="-apple-system, BlinkMacSystemFont, 'Segoe UI', Helvetica, Arial, sans-serif">250</text>
    <line x1="60" y1="238.1081081081081" x2="770" y2="238.1081081081081" class="chart-grid" stroke-opacity="0.3" />
    <text x="52" y="242.1081081081081" text-anchor="end" class="chart-muted" font-size="11" font-family="-apple-system, BlinkMacSystemFont, 'Segoe UI', Helvetica, Arial, sans-serif">300</text>
    <line x1="60" y1="157.02702702702703" x2="770" y2="157.02702702702703" class="chart-grid" stroke-opacity="0.3" />
    <text x="52" y="161.02702702702703" text-anchor="end" class="chart-muted" font-size="11" font-family="-apple-system, BlinkMacSystemFont, 'Segoe UI', Helvetica, Arial, sans-serif">350</text>
    <line x1="60" y1="75.94594594594594" x2="770" y2="75.94594594594594" class="chart-grid" stroke-opacity="0.3" />
    <text x="52" y="79.94594594594594" text-anchor="end" class="chart-muted" font-size="11" font-family="-apple-system, BlinkMacSystemFont, 'Segoe UI', Helvetica, Arial, sans-serif">400</text>
  </g>
  <g class="milestones">
    
  </g>
  <g class="x-axis">
    <text x="60" y="370" text-anchor="middle" class="chart-muted" font-size="11" font-family="-apple-system, BlinkMacSystemFont, 'Segoe UI', Helvetica, Arial, sans-serif">Jan 30</text>
    <text x="133.44827586206895" y="370" text-anchor="middle" class="chart-muted" font-size="11" font-family="-apple-system, BlinkMacSystemFont, 'Segoe UI', Helvetica, Arial, sans-serif">Feb 14</text>
    <text x="206.89655172413794" y="370" text-anchor="middle" class="chart-muted" font-size="11" font-family="-apple-system, BlinkMacSystemFont, 'Segoe UI', Helvetica, Arial, sans-serif">Feb 28</text>
    <text x="280.34482758620686" y="370" text-anchor="middle" class="chart-muted" font-size="11" font-family="-apple-system, BlinkMacSystemFont, 'Segoe UI', Helvetica, Arial, sans-serif">Mar 15</text>
    <text x="353.7931034482759" y="370" text-anchor="middle" class="chart-muted" font-size="11" font-family="-apple-system, BlinkMacSystemFont, 'Segoe UI', Helvetica, Arial, sans-serif">Mar 29</text>
    <text x="427.2413793103448" y="370" text-anchor="middle" class="chart-muted" font-size="11" font-family="-apple-system, BlinkMacSystemFont, 'Segoe UI', Helvetica, Arial, sans-serif">Apr 13</text>
    <text x="500.6896551724138" y="370" text-anchor="middle" class="chart-muted" font-size="11" font-family="-apple-system, BlinkMacSystemFont, 'Segoe UI', Helvetica, Arial, sans-serif">Apr 27</text>
    <text x="574.1379310344828" y="370" text-anchor="middle" class="chart-muted" font-size="11" font-family="-apple-system, BlinkMacSystemFont, 'Segoe UI', Helvetica, Arial, sans-serif">May 12</text>
    <text x="647.5862068965517" y="370" text-anchor="middle" class="chart-muted" font-size="11" font-family="-apple-system, BlinkMacSystemFont, 'Segoe UI', Helvetica, Arial, sans-serif">May 26</text>
    <text x="721.0344827586207" y="370" text-anchor="middle" class="chart-muted" font-size="11" font-family="-apple-system, BlinkMacSystemFont, 'Segoe UI', Helvetica, Arial, sans-serif">Jun 10</text>
    <text x="770" y="370" text-anchor="middle" class="chart-muted" font-size="11" font-family="-apple-system, BlinkMacSystemFont, 'Segoe UI', Helvetica, Arial, sans-serif">Jun 20</text>
  </g>
  <line x1="60" y1="50" x2="60" y2="350" class="chart-axis" stroke-width="1" />
  <line x1="60" y1="350" x2="770" y2="350" class="chart-axis" stroke-width="1" />
  <path d="M60,350 L60,324.05405405405406 C68.16091954022988,321.35135135135135 76.32183908045977,318.64864864864865 84.48275862068965,315.94594594594594 C92.64367816091954,313.2432432432432 100.80459770114942,310.5405405405405 108.9655172413793,307.8378378378378 C117.12643678160919,305.1351351351351 125.28735632183907,302.43243243243245 133.44827586206895,299.72972972972974 C141.60919540229884,297.02702702702703 149.77011494252872,294.3243243243243 157.9310344827586,291.6216216216216 C166.0919540229885,288.9189189189189 174.2528735632184,286.21621621621625 182.41379310344828,283.51351351351354 C190.57471264367817,280.81081081081084 198.73563218390805,278.1081081081081 206.89655172413794,275.4054054054054 C215.05747126436782,272.7027027027027 223.2183908045977,270 231.3793103448276,267.2972972972973 C239.54022988505747,264.5945945945946 247.70114942528735,261.8918918918919 255.86206896551724,259.18918918918916 C264.0229885057471,256.48648648648646 272.183908045977,253.7837837837838 280.34482758620686,251.0810810810811 C288.50574712643675,248.3783783783784 296.6666666666667,245.67567567567568 304.82758620689657,242.97297297297297 C312.98850574712645,240.27027027027026 321.14942528735634,237.8378378378378 329.3103448275862,234.86486486486484 C337.4712643678161,231.89189189189187 345.632183908046,228.1081081081081 353.7931034482759,225.13513513513513 C361.95402298850576,222.16216216216216 370.11494252873564,219.72972972972974 378.2758620689655,217.02702702702703 C386.4367816091954,214.32432432432432 394.5977011494253,211.6216216216216 402.7586206896552,208.9189189189189 C410.91954022988506,206.2162162162162 419.08045977011494,203.78378378378378 427.2413793103448,200.8108108108108 C435.4022988505747,197.83783783783784 443.5632183908046,194.05405405405403 451.7241379310345,191.08108108108107 C459.88505747126436,188.1081081081081 468.04597701149424,185.67567567567568 476.2068965517241,182.97297297297297 C484.367816091954,180.27027027027026 492.5287356321839,177.8378378378378 500.6896551724138,174.86486486486484 C508.85057471264366,171.89189189189187 517.0114942528736,168.1081081081081 525.1724137931035,165.13513513513513 C533.3333333333334,162.16216216216216 541.4942528735633,160 549.6551724137931,157.02702702702703 C557.816091954023,154.05405405405406 565.9770114942529,150.27027027027026 574.1379310344828,147.2972972972973 C582.2988505747127,144.32432432432432 590.4597701149426,141.89189189189187 598.6206896551724,139.18918918918916 C606.7816091954023,136.48648648648646 614.9425287356322,134.05405405405406 623.1034482758621,131.0810810810811 C631.264367816092,128.10810810810813 639.4252873563219,124.5945945945946 647.5862068965517,121.35135135135135 C655.7471264367816,118.10810810810811 663.9080459770115,114.5945945945946 672.0689655172414,111.62162162162161 C680.2298850574713,108.64864864864863 688.3908045977012,106.48648648648647 696.551724137931,103.51351351351349 C704.7126436781609,100.5405405405405 712.8735632183908,96.75675675675672 721.0344827586207,93.78378378378375 C729.1954022988506,90.81081081081078 737.3563218390805,88.64864864864865 745.5172413793103,85.67567567567568 C753.6781609195402,82.70270270270271 761.8390804597701,79.18918918918918 770,75.94594594594594 L770,350 L60,350 Z" fill="#dfb317" fill-opacity="0.1" />
  <path d="M60,350 L60,324.05405405405406 C68.16091954022988,321.35135135135135 76.32183908045977,318.64864864864865 84.48275862068965,315.94594594594594 C92.64367816091954,313.2432432432432 100.80459770114942,310.5405405405405 108.9655172413793,307.8378378378378 C117.12643678160919,305.1351351351351 125.28735632183907,302.43243243243245 133.44827586206895,299.72972972972974 C141.60919540229884,297.02702702702703 149.77011494252872,294.3243243243243 157.9310344827586,291.6216216216216 C166.0919540229885,288.9189189189189 174.2528735632184,286.21621621621625 182.41379310344828,283.51351351351354 C190.57471264367817,280.81081081081084 198.73563218390805,278.1081081081081 206.89655172413794,275.4054054054054 C215.05747126436782,272.7027027027027 223.2183908045977,270 231.3793103448276,267.2972972972973 C239.54022988505747,264.5945945945946 247.70114942528735,261.8918918918919 255.86206896551724,259.18918918918916 C264.0229885057471,256.48648648648646 272.183908045977,253.7837837837838 280.34482758620686,251.0810810810811 C288.50574712643675,248.3783783783784 296.6666666666667,245.67567567567568 304.82758620689657,242.97297297297297 C312.98850574712645,240.27027027027026 321.14942528735634,237.8378378378378 329.3103448275862,234.86486486486484 C337.4712643678161,231.89189189189187 345.632183908046,228.1081081081081 353.7931034482759,225.13513513513513 C361.95402298850576,222.16216216216216 370.11494252873564,219.72972972972974 378.2758620689655,217.02702702702703 C386.4367816091954,214.32432432432432 394.5977011494253,211.6216216216216 402.7586206896552,208.9189189189189 C410.91954022988506,206.2162162162162 419.08045977011494,203.78378378378378 427.2413793103448,200.8108108108108 C435.4022988505747,197.83783783783784 443.5632183908046,194.05405405405403 451.7241379310345,191.08108108108107 C459.88505747126436,188.1081081081081 468.04597701149424,185.67567567567568 476.2068965517241,182.97297297297297 C484.367816091954,180.27027027027026 492.5287356321839,177.8378378378378 500.6896551724138,174.86486486486484 C508.85057471264366,171.89189189189187 517.0114942528736,168.1081081081081 525.1724137931035,165.13513513513513 C533.3333333333334,162.16216216216216 541.4942528735633,160 549.6551724137931,157.02702702702703 C557.816091954023,154.05405405405406 565.9770114942529,150.27027027027026 574.1379310344828,147.2972972972973 C582.2988505747127,144.32432432432432 590.4597701149426,141.89189189189187 598.6206896551724,139.18918918918916 C606.7816091954023,136.48648648648646 614.9425287356322,134.05405405405406 623.1034482758621,131.0810810810811 C631.264367816092,128.10810810810813 639.4252873563219,124.5945945945946 647.5862068965517,121.35135135135135 C655.7471264367816,118.10810810810811 663.9080459770115,114.5945945945946 672.0689655172414,111.62162162162161 C680.2298850574713,108.64864864864863 688.3908045977012,106.48648648648647 696.551724137931,103.51351351351349 C704.7126436781609,100.5405405405405 712.8735632183908,96.75675675675672 721.0344827586207,93.78378378378375 C729.1954022988506,90.81081081081078 737.3563218390805,88.64864864864865 745.5172413793103,85.67567567567568 C753.6781609195402,82.70270270270271 761.8390804597701,79.18918918918918 770,75.94594594594594" fill="none" stroke="#dfb317" stroke-width="2.5" class="data-line-0" />
  <g class="points">
    
    <circle cx="60" cy="324.05405405405406" r="4" fill="#dfb317" class="data-point" style="animation-delay: 1.50s" />
    <circle cx="84.48275862068965" cy="315.94594594594594" r="4" fill="#dfb317" class="data-point" style="animation-delay: 1.55s" />
    <circle cx="108.9655172413793" cy="307.8378378378378" r="4" fill="#dfb317" class="data-point" style="animation-delay: 1.60s" />
    <circle cx="133.44827586206895" cy="299.72972972972974" r="4" fill="#dfb317" class="data-point" style="animation-delay: 1.65s" />
    <circle cx="157.9310344827586" cy="291.6216216216216" r="4" fill="#dfb317" class="data-point" style="animation-delay: 1.70s" />
    <circle cx="182.41379310344828" cy="283.51351351351354" r="4" fill="#dfb317" class="data-point" style="animation-delay: 1.75s" />
    <circle cx="206.89655172413794" cy="275.4054054054054" r="4" fill="#dfb317" class="data-point" style="animation-delay: 1.80s" />
    <circle cx="231.3793103448276" cy="267.2972972972973" r="4" fill="#dfb317" class="data-point" style="animation-delay: 1.85s" />
    <circle cx="255.86206896551724" cy="259.18918918918916" r="4" fill="#dfb317" class="data-point" style="animation-delay: 1.90s" />
    <circle cx="280.34482758620686" cy="251.0810810810811" r="4" fill="#dfb317" class="data-point" style="animation-delay: 1.95s" />
    <circle cx="304.82758620689657" cy="242.97297297297297" r="4" fill="#dfb317" class="data-point" style="animation-delay: 2.00s" />
    <circle cx="329.3103448275862" cy="234.86486486486484" r="4" fill="#dfb317" class="data-point" style="animation-delay: 2.05s" />
    <circle cx="353.7931034482759" cy="225.13513513513513" r="4" fill="#dfb317" class="data-point" style="animation-delay: 2.10s" />
    <circle cx="378.2758620689655" cy="217.02702702702703" r="4" fill="#dfb317" class="data-point" style="animation-delay: 2.15s" />
    <circle cx="402.7586206896552" cy="208.9189189189189" r="4" fill="#dfb317" class="data-point" style="animation-delay: 2.20s" />
    <circle cx="427.2413793103448" cy="200.8108108108108" r="4" fill="#dfb317" class="data-point" style="animation-delay: 2.25s" />
    <circle cx="451.7241379310345" cy="191.08108108108107" r="4" fill="#dfb317" class="data-point" style="animation-delay: 2.30s" />
    <circle cx="476.2068965517241" cy="182.97297297297297" r="4" fill="#dfb317" class="data-point" style="animation-delay: 2.35s" />
    <circle cx="500.6896551724138" cy="174.86486486486484" r="4" fill="#dfb317" class="data-point" style="animation-delay: 2.40s" />
    <circle cx="525.1724137931035" cy="165.13513513513513" r="4" fill="#dfb317" class="data-point" style="animation-delay: 2.45s" />
    <circle cx="549.6551724137931" cy="157.02702702702703" r="4" fill="#dfb317" class="data-point" style="animation-delay: 2.50s" />
    <circle cx="574.1379310344828" cy="147.2972972972973" r="4" fill="#dfb317" class="data-point" style="animation-delay: 2.55s" />
    <circle cx="598.6206896551724" cy="139.18918918918916" r="4" fill="#dfb317" class="data-point" style="animation-delay: 2.60s" />
    <circle cx="623.1034482758621" cy="131.0810810810811" r="4" fill="#dfb317" class="data-point" style="animation-delay: 2.65s" />
    <circle cx="647.5862068965517" cy="121.35135135135135" r="4" fill="#dfb317" class="data-point" style="animation-delay: 2.70s" />
    <circle cx="672.0689655172414" cy="111.62162162162161" r="4" fill="#dfb317" class="data-point" style="animation-delay: 2.75s" />
    <circle cx="696.551724137931" cy="103.51351351351349" r="4" fill="#dfb317" class="data-point" style="animation-delay: 2.80s" />
    <circle cx="721.0344827586207" cy="93.78378378378375" r="4" fill="#dfb317" class="data-point" style="animation-delay: 2.85s" />
    <circle cx="745.5172413793103" cy="85.67567567567568" r="4" fill="#dfb317" class="data-point" style="animation-delay: 2.90s" />
    <circle cx="770" cy="75.94594594594594" r="4" fill="#dfb317" class="data-point" style="animation-delay: 2.95s" />
  </g>
</svg>