<svg xmlns="http://www.w3.org/2000/svg" viewBox="0 0 800 400" width="800" height="400">
  <style>
    @keyframes drawLine {
      to { stroke-dashoffset: 0; }
    }
    @keyframes fadeInPoint {
      from { opacity: 0; }
      to { opacity: 1; }
    }
    .data-line-0 {
      stroke-dasharray: 1142;
      stroke-dashoffset: 1142;
      animation: drawLine 2s ease-out forwards;
    }
    .data-point {
      opacity: 0;
      animation: fadeInPoint 0.5s ease-out forwards;
    }
    .chart-bg { fill: #fff; }
    .chart-text { fill: #24292e; }
    .chart-muted { fill: #6a737d; }
    .chart-grid { stroke: #eee; }
    .chart-axis { stroke: #6a737d; }
    @media (prefers-color-scheme: dark) {
      .chart-bg { fill: #0d1117; }
      .chart-text { fill: #e6edf3; }
      .chart-muted { fill: #8b949e; }
      .chart-grid { stroke: #21262d; }
      .chart-axis { stroke: #8b949e; }
    }
  </style>
  <rect width="800" height="400" class="chart-bg" />
  <text x="400" y="14" text-anchor="middle" class="chart-text" font-size="16" font-weight="bold" font-family="-apple-system, BlinkMacSystemFont, 'Segoe UI', Helvetica, Arial, sans-serif"></text>
  
  <g class="grid">
    <line x1="60" y1="350" x2="770" y2="350" class="chart-grid" stroke-opacity="0.3" />
    <text x="52" y="354" text-anchor="end" class="chart-muted" font-size="11" font-family="-apple-system, BlinkMacSystemFont, 'Segoe UI', Helvetica, Arial, sans-serif">0</text>
    <line x1="60" y1="281.8181818181818" x2="770" y2="281.8181818181818" class="chart-grid" stroke-opacity="0.3" />
    <text x="52" y="285.8181818181818" text-anchor="end" class="chart-muted" font-size="11" font-family="-apple-system, BlinkMacSystemFont, 'Segoe UI', Helvetica, Arial, sans-serif">100</text>
    <line x1="60" y1="213.63636363636365" x2="770" y2="213.63636363636365" class="chart-grid" stroke-opacity="0.3" />
    <text x="52" y="217.63636363636365" text-anchor="end" class="chart-muted" font-size="11" font-family="-apple-system, BlinkMacSystemFont, 'Segoe UI', Helvetica, Arial, sans-serif">200</text>
    <line x1="60" y1="145.45454545454547" x2="770" y2="145.45454545454547" class="chart-grid" stroke-opacity="0.3" />
    <text x="52" y="149.45454545454547" text-anchor="end" class="chart-muted" font-size="11" font-family="-apple-system, BlinkMacSystemFont, 'Segoe UI', Helvetica, Arial, sans-serif">300</text>
    <line x1="60" y1="77.27272727272731" x2="770" y2="77.27272727272731" class="chart-grid" stroke-opacity="0.3" />
    <text x="52" y="81.27272727272731" text-anchor="end" class="chart-muted" font-size="11" font-family="-apple-system, BlinkMacSystemFont, 'Segoe UI', Helvetica, Arial, sans-serif">400</text>
  </g>
  <g class="milestones">
    <line x1="60" y1="343.1818181818182" x2="770" y2="343.1818181818182" class="chart-axis" stroke-width="1" stroke-dasharray="6,6" />
    <text x="64" y="339.1818181818182" class="chart-muted" font-size="10" font-family="-apple-system, BlinkMacSystemFont, 'Segoe UI', Helvetica, Arial, sans-serif">10 ★</text>
    <line x1="60" y1="315.90909090909093" x2="770" y2="315.90909090909093" class="chart-axis" stroke-width="1" stroke-dasharray="6,6" />
    <text x="64" y="311.90909090909093" class="chart-muted" font-size="10" font-family="-apple-system, BlinkMacSystemFont, 'Segoe UI', Helvetica, Arial, sans-serif">50 ★</text>
    <line x1="60" y1="281.8181818181818" x2="770" y2="281.8181818181818" class="chart-axis" stroke-width="1" stroke-dasharray="6,6" />
    <text x="64" y="277.8181818181818" class="chart-muted" font-size="10" font-family="-apple-system, BlinkMacSystemFont, 'Segoe UI', Helvetica, Arial, sans-serif">100 ★</text>
  </g>
  <g class="x-axis">
    <text x="60" y="370" text-anchor="middle" class="chart-muted" font-size="11" font-family="-apple-system, BlinkMacSystemFont, 'Segoe UI', Helvetica, Arial, sans-serif">2025</text>
    <text x="451.7241379310345" y="370" text-anchor="middle" class="chart-muted" font-size="11" font-family="-apple-system, BlinkMacSystemFont, 'Segoe UI', Helvetica, Arial, sans-serif">2026</text>
  </g>
  <line x1="60" y1="50" x2="60" y2="350" class="chart-axis" stroke-width="1" />
  <line x1="60" y1="350" x2="770" y2="350" class="chart-axis" stroke-width="1" />
  <path d="M60,350 L60,349.3181818181818 C68.16091954022988,346.3636363636364 76.32183908045977,343.52272727272725 84.48275862068965,340.45454545454544 C92.64367816091954,337.3863636363636 100.80459770114942,334.0909090909091 108.9655172413793,330.90909090909093 C117.12643678160919,327.72727272727275 125.28735632183907,324.54545454545456 133.44827586206895,321.3636363636364 C141.60919540229884,318.1818181818182 149.77011494252872,314.8863636363636 157.9310344827586,311.8181818181818 C166.0919540229885,308.75 174.2528735632184,306.02272727272725 182.41379310344828,302.95454545454544 C190.57471264367817,299.8863636363636 198.73563218390805,296.5909090909091 206.89655172413794,293.40909090909093 C215.05747126436782,290.22727272727275 223.2183908045977,287.04545454545456 231.3793103448276,283.8636363636364 C239.54022988505747,280.6818181818182 247.70114942528735,277.5 255.86206896551724,274.3181818181818 C264.0229885057471,271.1363636363636 272.183908045977,267.84090909090907 280.34482758620686,264.77272727272725 C288.50574712643675,261.70454545454544 296.6666666666667,258.97727272727275 304.82758620689657,255.9090909090909 C312.98850574712645,252.8409090909091 321.14942528735634,249.54545454545456 329.3103448275862,246.36363636363637 C337.4712643678161,243.1818181818182 345.632183908046,240 353.7931034482759,236.8181818181818 C361.95402298850576,233.63636363636363 370.11494252873564,230.45454545454544 378.2758620689655,227.27272727272725 C386.4367816091954,224.09090909090907 394.5977011494253,220.79545454545453 402.7586206896552,217.72727272727272 C410.91954022988506,214.6590909090909 419.08045977011494,211.9318181818182 427.2413793103448,208.86363636363637 C435.4022988505747,205.79545454545456 443.5632183908046,202.5 451.7241379310345,199.3181818181818 C459.88505747126436,196.13636363636363 468.04597701149424,192.95454545454547 476.2068965517241,189.77272727272728 C484.367816091954,186.5909090909091 492.5287356321839,183.4090909090909 500.6896551724138,180.22727272727272 C508.85057471264366,177.04545454545453 517.0114942528736,173.74999999999997 525.1724137931035,170.68181818181816 C533.3333333333334,167.61363636363635 541.4942528735633,164.88636363636363 549.6551724137931,161.8181818181818 C557.816091954023,158.75 565.9770114942529,155.45454545454547 574.1379310344828,152.27272727272728 C582.2988505747127,149.0909090909091 590.4597701149426,145.9090909090909 598.6206896551724,142.72727272727272 C606.7816091954023,139.54545454545453 614.9425287356322,136.36363636363635 623.1034482758621,133.18181818181816 C631.264367816092,129.99999999999997 639.4252873563219,126.70454545454547 647.5862068965517,123.63636363636365 C655.7471264367816,120.56818181818184 663.9080459770115,117.84090909090911 672.0689655172414,114.77272727272728 C680.2298850574713,111.70454545454545 688.3908045977012,108.4090909090909 696.551724137931,105.22727272727272 C704.7126436781609,102.04545454545453 712.8735632183908,98.86363636363635 721.0344827586207,95.68181818181816 C729.1954022988506,92.49999999999997 737.3563218390805,89.20454545454544 745.5172413793103,86.13636363636363 C753.6781609195402,83.06818181818181 761.8390804597701,80.22727272727275 770,77.27272727272731 L770,350 L60,350 Z" fill="#dfb317" fill-opacity="0.1" />
  <path d="M60,350 L60,349.3181818181818 C68.16091954022988,346.3636363636364 76.32183908045977,343.52272727272725 84.48275862068965,340.45454545454544 C92.64367816091954,337.3863636363636 100.80459770114942,334.0909090909091 108.9655172413793,330.90909090909093 C117.12643678160919,327.72727272727275 125.28735632183907,324.54545454545456 133.44827586206895,321.3636363636364 C141.60919540229884,318.1818181818182 149.77011494252872,314.8863636363636 157.9310344827586,311.8181818181818 C166.0919540229885,308.75 174.2528735632184,306.02272727272725 182.41379310344828,302.95454545454544 C190.57471264367817,299.8863636363636 198.73563218390805,296.5909090909091 206.89655172413794,293.40909090909093 C215.05747126436782,290.22727272727275 223.2183908045977,287.04545454545456 231.3793103448276,283.8636363636364 C239.54022988505747,280.6818181818182 247.70114942528735,277.5 255.86206896551724,274.3181818181818 C264.0229885057471,271.1363636363636 272.183908045977,267.84090909090907 280.34482758620686,264.77272727272725 C288.50574712643675,261.70454545454544 296.6666666666667,258.97727272727275 304.82758620689657,255.9090909090909 C312.98850574712645,252.8409090909091 321.14942528735634,249.54545454545456 329.3103448275862,246.36363636363637 C337.4712643678161,243.1818181818182 345.632183908046,240 353.7931034482759,236.8181818181818 C361.95402298850576,233.63636363636363 370.11494252873564,230.45454545454544 378.2758620689655,227.27272727272725 C386.4367816091954,224.09090909090907 394.5977011494253,220.79545454545453 402.7586206896552,217.72727272727272 C410.91954022988506,214.6590909090909 419.08045977011494,211.9318181818182 427.2413793103448,208.86363636363637 C435.4022988505747,205.79545454545456 443.5632183908046,202.5 451.7241379310345,199.3181818181818 C459.88505747126436,196.13636363636363 468.04597701149424,192.95454545454547 476.2068965517241,189.77272727272728 C484.367816091954,186.5909090909091 492.5287356321839,183.4090909090909 500.6896551724138,180.22727272727272 C508.85057471264366,177.04545454545453 517.0114942528736,173.74999999999997 525.1724137931035,170.68181818181816 C533.3333333333334,167.61363636363635 541.4942528735633,164.88636363636363 549.6551724137931,161.8181818181818 C557.816091954023,158.75 565.9770114942529,155.45454545454547 574.1379310344828,152.27272727272728 C582.2988505747127,149.0909090909091 590.4597701149426,145.9090909090909 598.6206896551724,142.72727272727272 C606.7816091954023,139.54545454545453 614.9425287356322,136.36363636363635 623.1034482758621,133.18181818181816 C631.264367816092,129.99999999999997 639.4252873563219,126.70454545454547 647.5862068965517,123.63636363636365 C655.7471264367816,120.56818181818184 663.9080459770115,117.84090909090911 672.0689655172414,114.77272727272728 C680.2298850574713,111.70454545454545 688.3908045977012,108.4090909090909 696.551724137931,105.22727272727272 C704.7126436781609,102.04545454545453 712.8735632183908,98.86363636363635 721.0344827586207,95.68181818181816 C729.1954022988506,92.49999999999997 737.3563218390805,89.20454545454544 745.5172413793103,86.13636363636363 C753.6781609195402,83.06818181818181 761.8390804597701,80.22727272727275 770,77.27272727272731" fill="none" stroke="#dfb317" stroke-width="2.5" class="data-line-0" />
  <g class="points">
    
    <circle cx="60" cy="349.3181818181818" r="4" fill="#dfb317" class="data-point" style="animation-delay: 1.50s" />
    <circle cx="84.48275862068965" cy="340.45454545454544" r="4" fill="#dfb317" class="data-point" style="animation-delay: 1.55s" />
    <circle cx="108.9655172413793" cy="330.90909090909093" r="4" fill="#dfb317" class="data-point" style="animation-delay: 1.60s" />
    <circle cx="133.44827586206895" cy="321.3636363636364" r="4" fill="#dfb317" class="data-point" style="animation-delay: 1.65s" />
    <circle cx="157.9310344827586" cy="311.8181818181818" r="4" fill="#dfb317" class="data-point" style="animation-delay: 1.70s" />
    <circle cx="182.41379310344828" cy="302.95454545454544" r="4" fill="#dfb317" class="data-point" style="animation-delay: 1.75s" />
    <circle cx="206.89655172413794" cy="293.40909090909093" r="4" fill="#dfb317" class="data-point" style="animation-delay: 1.80s" />
    <circle cx="231.3793103448276" cy="283.8636363636364" r="4" fill="#dfb317" class="data-point" style="animation-delay: 1.85s" />
    <circle cx="255.86206896551724" cy="274.3181818181818" r="4" fill="#dfb317" class="data-point" style="animation-delay: 1.90s" />
    <circle cx="280.34482758620686" cy="264.77272727272725" r="4" fill="#dfb317" class="data-point" style="animation-delay: 1.95s" />
    <circle cx="304.82758620689657" cy="255.9090909090909" r="4" fill="#dfb317" class="data-point" style="animation-delay: 2.00s" />
    <circle cx="329.3103448275862" cy="246.36363636363637" r="4" fill="#dfb317" class="data-point" style="animation-delay: 2.05s" />
    <circle cx="353.7931034482759" cy="236.8181818181818" r="4" fill="#dfb317" class="data-point" style="animation-delay: 2.10s" />
    <circle cx="378.2758620689655" cy="227.27272727272725" r="4" fill="#dfb317" class="data-point" style="animation-delay: 2.15s" />
    <circle cx="402.7586206896552" cy="217.72727272727272" r="4" fill="#dfb317" class="data-point" style="animation-delay: 2.20s" />
    <circle cx="427.2413793103448" cy="208.86363636363637" r="4" fill="#dfb317" class="data-point" style="animation-delay: 2.25s" />
    <circle cx="451.7241379310345" cy="199.3181818181818" r="4" fill="#dfb317" class="data-point" style="animation-delay: 2.30s" />
    <circle cx="476.2068965517241" cy="189.77272727272728" r="4" fill="#dfb317" class="data-point" style="animation-delay: 2.35s" />
    <circle cx="500.6896551724138" cy="180.22727272727272" r="4" fill="#dfb317" class="data-point" style="animation-delay: 2.40s" />
    <circle cx="525.1724137931035" cy="170.68181818181816" r="4" fill="#dfb317" class="data-point" style="animation-delay: 2.45s" />
    <circle cx="549.6551724137931" cy="161.8181818181818" r="4" fill="#dfb317" class="data-point" style="animation-delay: 2.50s" />
    <circle cx="574.1379310344828" cy="152.27272727272728" r="4" fill="#dfb317" class="data-point" style="animation-delay: 2.55s" />
    <circle cx="598.6206896551724" cy="142.72727272727272" r="4" fill="#dfb317" class="data-point" style="animation-delay: 2.60s" />
    <circle cx="623.1034482758621" cy="133.18181818181816" r="4" fill="#dfb317" class="data-point" style="animation-delay: 2.65s" />
    <circle cx="647.5862068965517" cy="123.63636363636365" r="4" fill="#dfb317" class="data-point" style="animation-delay: 2.70s" />
    <circle cx="672.0689655172414" cy="114.77272727272728" r="4" fill="#dfb317" class="data-point" style="animation-delay: 2.75s" />
    <circle cx="696.551724137931" cy="105.22727272727272" r="4" fill="#dfb317" class="data-point" style="animation-delay: 2.80s" />
    <circle cx="721.0344827586207" cy="95.68181818181816" r="4" fill="#dfb317" class="data-point" style="animation-delay: 2.85s" />
    <circle cx="745.5172413793103" cy="86.13636363636363" r="4" fill="#dfb317" class="data-point" style="animation-delay: 2.90s" />
    <circle cx="770" cy="77.27272727272731" r="4" fill="#dfb317" class="data-point" style="animation-delay: 2.95s" />
  </g>
</svg>